<?xml version="1.0" standalone="no"?>
<!DOCTYPE svg PUBLIC "-//W3C//DTD SVG 20010904//EN"
 "http://www.w3.org/TR/2001/REC-SVG-20010904/DTD/svg10.dtd">
<svg version="1.0" xmlns="http://www.w3.org/2000/svg"
 width="341.000000pt" height="450.000000pt" viewBox="0 0 341.000000 450.000000"
 preserveAspectRatio="xMidYMid meet">
<metadata>
Created by potrace 1.10, written by Peter Selinger 2001-2011
</metadata>
<g transform="translate(0.000000,450.000000) scale(0.100000,-0.100000)"
fill="#ffffff" stroke="none">
<path d="M1301 4392 c-77 -128 -174 -318 -169 -333 2 -5 22 23 45 64 23 40 51
81 63 92 11 10 20 25 21 34 0 10 2 11 6 4 5 -13 -36 -86 -117 -208 -52 -79
-125 -253 -146 -347 -8 -35 -17 -72 -19 -83 -3 -11 -9 -56 -15 -100 -6 -44
-12 -91 -15 -105 -7 -31 -15 -108 -15 -137 0 -13 -5 -23 -11 -23 -8 0 -8 -4 1
-15 8 -10 9 -27 3 -57 -11 -54 4 -208 21 -209 6 0 2 -4 -9 -9 -20 -8 -20 -8 0
-15 11 -4 26 -9 33 -11 7 -2 12 -20 12 -41 0 -28 8 -45 30 -67 16 -16 34 -25
41 -21 8 6 10 -4 7 -36 -4 -37 0 -52 28 -95 51 -78 56 -99 60 -231 l4 -122
-40 -11 c-21 -6 -42 -14 -45 -19 -3 -5 -15 -7 -28 -4 -21 6 -21 6 3 -15 18
-14 27 -17 32 -9 6 9 16 7 38 -5 17 -10 29 -14 26 -10 -2 4 4 9 15 9 19 2 27
-12 10 -19 -4 -1 -12 -14 -16 -27 -5 -16 -4 -21 4 -17 6 4 11 2 11 -5 0 -10 3
-10 12 -1 9 9 26 -2 74 -48 40 -39 86 -71 129 -90 37 -17 80 -39 96 -51 16
-11 29 -16 29 -11 0 14 -19 28 -115 80 -105 57 -146 102 -152 164 -10 120 -10
144 0 156 8 10 7 16 -4 22 -11 7 -11 12 -1 22 6 6 12 29 12 50 0 20 5 49 12
62 10 23 8 29 -15 49 -23 20 -27 30 -27 80 0 31 4 57 10 57 11 0 35 -41 32
-53 -1 -5 1 -6 6 -3 9 6 9 13 -3 96 -12 90 -17 114 -57 280 -23 100 -29 144
-27 220 4 150 39 286 67 258 7 -7 12 -20 12 -29 0 -30 52 -79 83 -79 24 0 27
3 22 20 -4 13 -2 20 6 20 8 0 6 6 -4 18 -21 23 -21 32 1 48 22 17 33 17 26 0
-3 -7 2 -30 10 -51 15 -35 15 -37 -5 -42 -16 -4 -18 -8 -7 -14 15 -10 94 -12
85 -2 -4 4 6 12 23 19 21 9 32 22 36 44 8 36 14 37 43 6 24 -25 21 -49 -4 -39
-8 3 -15 0 -15 -6 0 -14 67 -15 75 -1 4 6 -5 26 -20 45 -14 19 -22 35 -18 35
15 0 85 -79 79 -89 -10 -15 10 -22 22 -8 10 12 15 55 13 109 -1 16 -14 40 -31
58 -16 16 -32 46 -36 65 -3 19 -10 35 -14 35 -5 0 -11 9 -15 20 -3 10 -30 31
-59 45 -47 23 -63 26 -161 24 l-107 -1 -35 -36 -35 -36 7 50 c9 69 53 248 72
298 48 122 184 256 288 285 22 6 53 22 69 36 16 14 39 25 51 25 12 0 37 8 55
17 24 12 35 13 38 5 2 -7 8 -10 13 -6 5 3 12 -2 15 -10 3 -9 12 -16 19 -16 8
0 20 -6 27 -12 25 -23 77 -52 113 -63 42 -12 55 -18 55 -24 0 -4 11 -8 25 -9
35 -3 127 -63 158 -104 50 -65 70 -154 83 -359 4 -72 3 -109 -4 -113 -6 -4
-46 -9 -89 -11 -91 -5 -108 -7 -148 -23 -43 -17 -57 -26 -69 -45 -18 -28 4
-36 69 -25 104 16 250 26 259 18 2 -3 1 -23 -3 -45 -6 -37 -9 -40 -39 -38 -29
1 -32 -2 -27 -20 2 -12 2 -16 -1 -9 -6 13 -46 17 -58 5 -10 -11 -136 -14 -136
-3 0 5 10 16 22 24 20 15 21 16 3 16 -19 0 -105 -84 -105 -103 0 -6 4 -6 13 0
18 15 57 23 57 12 0 -5 -5 -9 -11 -9 -18 0 -41 -29 -33 -42 5 -8 2 -9 -9 -5
-10 3 -17 2 -17 -2 0 -11 25 -21 50 -21 14 0 17 5 13 21 -4 15 0 27 12 35 25
18 35 18 35 -1 0 -9 7 -29 15 -44 28 -55 106 -46 134 16 10 22 14 24 22 12 13
-22 11 -32 -14 -59 l-24 -26 33 -24 c24 -19 33 -35 37 -65 3 -22 8 -53 12 -68
11 -42 -36 -297 -55 -297 -5 0 -14 -19 -20 -42 -6 -24 -14 -50 -17 -58 -3 -8
-8 -23 -10 -34 -2 -10 -10 -33 -19 -52 -9 -18 -13 -37 -10 -43 3 -5 2 -11 -3
-13 -5 -1 -11 -23 -14 -48 -9 -70 -35 -134 -70 -173 -36 -39 -147 -117 -168
-117 -8 0 -4 -7 9 -16 12 -8 26 -13 30 -10 4 2 14 1 21 -3 11 -7 11 -16 1 -45
-6 -19 -9 -40 -5 -45 3 -6 -2 -40 -11 -77 -15 -57 -15 -75 -5 -118 6 -28 15
-68 20 -88 12 -53 65 -128 91 -128 6 0 10 -5 10 -11 0 -7 7 -17 16 -24 15 -11
15 -14 -7 -33 -12 -12 -35 -22 -49 -22 -15 0 -35 -9 -45 -20 l-19 -21 98 2
c87 1 99 -1 117 -19 23 -25 24 -41 5 -67 -7 -11 -17 -36 -21 -55 -4 -19 -15
-46 -24 -60 l-16 -25 30 23 30 24 6 -83 c4 -46 3 -90 -1 -99 -21 -43 -40 -93
-37 -96 2 -2 14 19 27 46 25 53 47 68 36 24 -5 -17 -3 -23 4 -19 19 12 22 -24
8 -93 -7 -37 -11 -79 -7 -93 7 -26 5 -29 26 56 2 11 9 32 15 48 9 22 13 25 25
16 10 -9 12 -24 7 -55 -7 -50 2 -114 16 -114 6 0 10 27 10 60 0 33 4 60 10 60
6 0 10 -10 11 -22 0 -13 2 -45 3 -72 1 -29 7 -51 14 -54 7 -2 12 -24 12 -56 0
-29 5 -57 11 -63 6 -6 11 -49 12 -96 1 -59 6 -88 15 -91 6 -3 12 -12 12 -21 0
-8 5 -15 10 -15 6 0 10 5 10 10 0 6 5 10 11 10 5 0 7 -5 3 -12 -4 -7 -3 -8 5
-4 6 4 18 3 26 -4 10 -9 15 -7 20 8 4 13 12 18 24 15 15 -4 18 0 14 19 -2 12
2 32 10 42 14 18 15 17 15 -23 1 -23 4 -56 7 -71 6 -26 9 -28 25 -17 12 7 22
28 26 54 3 24 15 54 25 67 11 13 19 34 19 46 0 12 4 29 9 39 15 26 68 81 79
81 5 0 12 -19 15 -42 7 -59 41 -151 58 -156 8 -3 18 -10 22 -16 5 -6 6 2 2 18
-18 85 -19 83 9 88 15 3 26 1 26 -6 0 -6 9 -17 19 -23 19 -12 19 -11 3 17 -16
27 -15 30 2 49 11 12 31 21 48 21 18 0 28 5 28 15 0 8 -4 15 -10 15 -5 0 -10
15 -11 33 -1 29 -2 30 -8 7 -4 -14 -13 -25 -21 -25 -19 0 -63 87 -54 108 5 14
10 13 40 -6 18 -12 34 -29 35 -37 0 -10 3 -8 9 5 4 11 6 37 3 57 -3 23 1 53
11 78 32 81 37 126 21 194 -23 101 -8 156 42 156 31 0 55 23 46 45 -5 15 -3
16 15 6 35 -19 37 -12 5 21 -41 45 -43 55 -26 134 8 38 15 79 15 91 0 12 5 19
13 17 14 -6 45 -67 46 -92 1 -9 5 -2 9 17 5 23 3 47 -6 75 -8 22 -12 46 -10
52 3 7 -1 15 -9 17 -7 3 -16 21 -20 39 -9 42 -31 84 -66 128 -16 19 -40 64
-55 100 -24 61 -25 65 -8 77 17 12 17 13 0 13 -12 0 -16 5 -12 16 3 8 1 25 -5
36 -6 11 -9 22 -6 24 6 6 77 -114 77 -130 0 -7 7 -21 16 -32 15 -18 15 -18 11
4 -10 46 18 15 57 -62 31 -63 39 -89 38 -135 0 -46 2 -51 10 -31 13 35 1 92
-37 174 -31 66 -51 131 -47 148 1 4 -7 12 -18 18 -11 6 -20 16 -20 23 0 7 -7
25 -15 41 -8 15 -12 32 -9 37 3 5 -2 9 -10 9 -9 0 -16 3 -17 8 0 4 -2 22 -5
40 -3 25 -1 31 9 26 32 -20 65 -89 66 -141 1 -25 4 -31 17 -26 10 4 14 13 10
26 -3 12 -1 26 4 32 13 16 -5 73 -30 97 -20 19 -28 44 -10 33 6 -3 10 -1 10 4
0 6 -6 11 -13 11 -19 0 -77 84 -77 111 0 22 1 22 32 -7 l32 -29 -32 40 c-18
22 -32 50 -32 63 0 12 -9 35 -19 50 -10 15 -22 47 -25 72 -4 25 -14 76 -23
113 -12 50 -13 71 -5 76 8 5 7 28 -7 83 -18 76 -18 77 3 100 12 13 21 37 22
53 0 17 2 59 4 95 2 45 -1 64 -9 62 -6 -1 -11 5 -11 14 0 8 5 12 10 9 6 -4 10
7 10 24 0 17 -4 31 -10 31 -5 0 -10 24 -10 54 0 86 -16 148 -65 250 -43 90
-67 145 -69 156 -1 3 -32 66 -70 140 -88 175 -196 337 -288 433 l-73 77 -500
0 -500 -1 -64 -107z m72 13 c-3 -9 -8 -14 -10 -11 -3 3 -2 9 2 15 9 16 15 13
8 -4z m974 -72 c-4 -3 -10 -3 -14 0 -3 4 0 7 7 7 7 0 10 -3 7 -7z m-1054 -48
c-3 -9 -8 -14 -10 -11 -3 3 -2 9 2 15 9 16 15 13 8 -4z m1044 -402 c-4 -3 -7
0 -7 7 0 7 3 10 7 7 3 -4 3 -10 0 -14z m-952 -183 c22 -5 72 -18 110 -30 39
-11 79 -23 89 -25 11 -3 24 -11 28 -20 5 -8 16 -15 24 -15 17 0 37 -47 29 -68
-4 -12 -13 -9 -38 16 -64 62 -180 85 -288 58 -74 -19 -89 -30 -84 -59 4 -21 4
-21 -16 2 -16 19 -19 34 -15 65 9 60 32 79 106 84 8 1 33 -3 55 -8z m139 -100
c14 -5 26 -15 26 -22 0 -9 -3 -9 -12 0 -7 7 -20 12 -29 12 -10 0 -21 5 -24 10
-8 13 6 13 39 0z m41 -60 c3 -5 4 -10 1 -10 -3 0 -8 5 -11 10 -3 6 -4 10 -1
10 3 0 8 -4 11 -10z m1375 -176 c0 -8 -5 -12 -10 -9 -6 4 -8 11 -5 16 9 14 15
11 15 -7z m-1983 -286 c-3 -7 -5 -2 -5 12 0 14 2 19 5 13 2 -7 2 -19 0 -25z
m1960 -140 c-3 -8 -6 -5 -6 6 -1 11 2 17 5 13 3 -3 4 -12 1 -19z m-1690 -145
c-4 -3 -7 0 -7 7 0 7 3 10 7 7 3 -4 3 -10 0 -14z m1760 -170 c-4 -3 -7 0 -7 7
0 7 3 10 7 7 3 -4 3 -10 0 -14z m-1897 -337 c0 -3 -5 -8 -12 -12 -7 -4 -8 -3
-4 4 7 12 16 16 16 8z m1954 -52 c3 -8 2 -12 -4 -9 -6 3 -10 10 -10 16 0 14 7
11 14 -7z m40 -723 c3 -5 -1 -12 -10 -15 -20 -8 -29 -1 -19 13 8 13 22 14 29
2z m-847 -48 c-4 -3 -7 0 -7 7 0 7 3 10 7 7 3 -4 3 -10 0 -14z m-1 -55 c-3
-24 -5 -45 -6 -48 0 -3 -4 1 -9 9 -5 7 -5 26 -1 42 5 15 6 30 2 33 -3 3 0 6 7
6 9 0 11 -12 7 -42z m38 -83 c-19 -73 -27 -83 -20 -28 5 39 26 97 32 90 2 -2
-4 -30 -12 -62z m29 -94 c3 -13 1 -18 -9 -14 -7 2 -10 11 -7 19 7 19 10 18 16
-5z m682 -11 c3 -5 1 -10 -4 -10 -6 0 -11 5 -11 10 0 6 2 10 4 10 3 0 8 -4 11
-10z m-60 -69 c-8 -27 -26 -17 -21 12 3 12 5 24 5 27 1 2 6 -1 12 -7 6 -6 8
-21 4 -32z m47 -129 c2 -23 0 -41 -5 -39 -5 1 -8 7 -8 12 0 6 -7 17 -15 26
-16 18 -15 39 1 51 15 11 23 -3 27 -50z m-71 -185 c-13 -13 -23 9 -15 35 l7
23 9 -24 c5 -15 5 -28 -1 -34z m-43 -42 c-3 -3 -9 2 -12 12 -6 14 -5 15 5 6 7
-7 10 -15 7 -18z m-312 -92 c-11 -11 -19 6 -11 24 8 17 8 17 12 0 3 -10 2 -21
-1 -24z"/>
<path d="M1519 3397 l-34 -22 27 -3 c15 -2 35 1 45 7 10 5 24 6 34 1 20 -11
61 -1 56 13 -2 6 -12 11 -23 13 -10 2 -31 5 -45 8 -16 3 -38 -3 -60 -17z"/>
<path d="M2055 3330 c3 -5 8 -10 11 -10 3 0 2 5 -1 10 -3 6 -8 10 -11 10 -3 0
-2 -4 1 -10z"/>
<path d="M2940 3090 c0 -7 3 -10 7 -7 3 4 3 10 0 14 -4 3 -7 0 -7 -7z"/>
<path d="M2945 3020 c-3 -5 -1 -10 4 -10 6 0 11 5 11 10 0 6 -2 10 -4 10 -3 0
-8 -4 -11 -10z"/>
<path d="M1623 2983 c-9 -19 -10 -30 -2 -40 13 -14 54 -18 45 -4 -3 5 1 14 9
21 14 11 14 15 -1 31 -23 26 -37 24 -51 -8z"/>
<path d="M1825 2977 c-10 -8 -15 -19 -12 -25 9 -13 57 8 57 26 0 16 -21 15
-45 -1z"/>
<path d="M1000 2810 c0 -7 3 -10 7 -7 3 4 3 10 0 14 -4 3 -7 0 -7 -7z"/>
<path d="M1010 2778 c0 -9 5 -20 11 -23 17 -11 18 -2 3 19 -12 17 -14 17 -14
4z"/>
<path d="M1548 2745 c-1 -2 -18 -5 -36 -8 -19 -3 -36 -8 -39 -10 -9 -10 32
-24 76 -26 25 -1 47 -4 51 -6 7 -4 151 -24 217 -30 28 -2 66 -7 86 -10 20 -4
37 -3 41 3 8 14 -88 34 -179 37 -38 2 -83 8 -100 15 -45 19 -113 39 -117 35z"/>
<path d="M2981 2674 c0 -11 3 -14 6 -6 3 7 2 16 -1 19 -3 4 -6 -2 -5 -13z"/>
<path d="M953 2273 c4 -3 10 -3 14 0 3 4 0 7 -7 7 -7 0 -10 -3 -7 -7z"/>
<path d="M1905 2260 c-3 -5 -2 -10 4 -10 5 0 13 5 16 10 3 6 2 10 -4 10 -5 0
-13 -4 -16 -10z"/>
<path d="M818 2253 c-21 -2 -38 -8 -38 -12 0 -11 72 -3 84 9 5 5 6 9 1 8 -6
-1 -27 -3 -47 -5z"/>
<path d="M572 2228 c-20 -5 -36 -18 -41 -31 -11 -27 -3 -41 14 -27 13 10 50
18 110 24 42 3 115 27 115 38 0 9 -93 4 -109 -6 -5 -4 -20 -2 -33 2 -13 5 -38
5 -56 0z"/>
<path d="M1260 2211 c0 -5 7 -12 16 -15 14 -5 15 -4 4 9 -14 17 -20 19 -20 6z"/>
<path d="M3020 2150 c0 -7 3 -10 7 -7 3 4 3 10 0 14 -4 3 -7 0 -7 -7z"/>
<path d="M3045 2100 c3 -5 8 -10 11 -10 3 0 2 5 -1 10 -3 6 -8 10 -11 10 -3 0
-2 -4 1 -10z"/>
</g>
</svg>
