<?xml version="1.0" standalone="no"?>
<!DOCTYPE svg PUBLIC "-//W3C//DTD SVG 20010904//EN"
 "http://www.w3.org/TR/2001/REC-SVG-20010904/DTD/svg10.dtd">
<svg version="1.0" xmlns="http://www.w3.org/2000/svg"
 width="900.000000pt" height="600.000000pt" viewBox="0 0 900.000000 600.000000"
 preserveAspectRatio="xMidYMid meet">
<metadata>
Created by potrace 1.10, written by Peter Selinger 2001-2011
</metadata>
<g transform="translate(0.000000,600.000000) scale(0.100000,-0.100000)"
fill="#000000" stroke="none">
<path d="M5180 5985 c0 -8 -6 -15 -12 -15 -7 0 -26 -7 -42 -15 -16 -8 -47 -18
-70 -21 -22 -3 -57 -11 -76 -18 -19 -8 -62 -22 -95 -34 -34 -11 -87 -38 -120
-61 -32 -22 -64 -41 -72 -41 -7 0 -13 -4 -13 -8 0 -18 -90 -54 -119 -47 -19 4
-32 1 -41 -10 -7 -8 -19 -15 -28 -15 -8 0 -31 -10 -51 -22 -46 -29 -83 -50
-148 -83 -29 -14 -60 -36 -70 -49 -10 -12 -52 -59 -93 -104 -41 -46 -80 -94
-86 -108 -6 -14 -15 -29 -20 -32 -14 -10 -64 -80 -64 -89 0 -4 -33 -42 -73
-84 -81 -85 -160 -227 -162 -289 -1 -41 -22 -87 -116 -261 -64 -117 -69 -129
-63 -170 6 -41 3 -49 -25 -79 -17 -19 -31 -39 -31 -45 0 -6 14 -24 31 -41 29
-27 30 -32 24 -81 -6 -50 -5 -53 20 -65 26 -12 27 -15 21 -66 -4 -30 -11 -63
-17 -73 -12 -23 -35 -25 -43 -4 -3 8 -15 14 -28 12 -15 -1 -23 4 -26 18 -12
60 -50 37 -93 -55 -36 -77 -51 -134 -44 -163 4 -13 1 -44 -5 -68 -7 -24 -12
-65 -11 -92 0 -26 -6 -66 -14 -90 -8 -23 -19 -64 -24 -92 -10 -46 -20 -82 -56
-205 -13 -44 -28 -124 -44 -245 -5 -33 -10 -120 -11 -193 -2 -130 -3 -134 -37
-200 -19 -37 -43 -76 -53 -87 -23 -27 -94 -195 -92 -220 0 -11 -9 -55 -22 -97
-25 -80 -33 -90 -159 -207 -26 -24 -54 -59 -62 -77 -20 -48 -64 -103 -95 -119
-50 -26 -46 5 9 87 17 25 31 50 31 56 0 14 87 182 105 202 8 9 15 26 15 38 0
12 13 34 30 49 26 23 40 53 25 53 -10 0 -79 -75 -130 -144 -43 -57 -55 -81
-55 -109 0 -21 -4 -37 -9 -37 -5 0 -12 -11 -15 -25 -6 -24 -26 -36 -26 -15 0
6 -5 10 -11 10 -7 0 -9 -10 -5 -26 5 -20 1 -30 -19 -46 -14 -11 -42 -45 -62
-76 -44 -70 -120 -162 -182 -221 -28 -27 -41 -45 -33 -48 29 -11 6 -33 -85
-78 -190 -95 -263 -161 -263 -237 0 -20 -7 -49 -15 -64 -8 -16 -15 -46 -15
-67 0 -22 -6 -62 -14 -90 -24 -92 -38 -158 -46 -216 -12 -89 -29 -208 -45
-306 -27 -175 -45 -311 -51 -387 l-6 -78 879 0 878 0 2 52 c4 109 4 124 -4
178 -5 31 -18 71 -30 90 -21 35 -43 139 -45 215 0 22 -9 61 -19 86 -10 26 -15
56 -12 68 3 12 -4 47 -15 79 -21 61 -22 119 -3 167 19 46 19 79 -2 83 -10 2
-20 -4 -24 -15 -3 -10 -14 -27 -23 -38 -9 -11 -34 -48 -54 -83 -21 -34 -39
-62 -42 -62 -10 0 -3 50 9 62 15 16 67 120 67 136 0 5 14 22 30 36 17 14 34
33 38 43 15 35 47 83 56 83 5 0 5 -15 1 -32 -8 -30 -8 -56 -4 -120 0 -13 6
-43 11 -68 8 -35 7 -59 -6 -109 -16 -61 -14 -90 3 -62 15 24 20 -4 9 -48 -10
-38 -8 -46 12 -73 17 -23 24 -50 29 -117 4 -48 11 -93 15 -100 5 -7 12 -44 17
-82 5 -39 15 -82 23 -97 7 -15 18 -40 22 -57 6 -20 17 -31 32 -33 18 -3 22
-10 24 -40 3 -60 2 -75 -5 -109 l-6 -33 341 0 c324 0 340 1 326 18 -17 19 -78
145 -78 161 0 17 -22 24 -31 10 -5 -8 -9 -26 -9 -41 0 -16 -4 -28 -9 -28 -5 0
-14 12 -20 28 -6 15 -26 56 -45 90 -31 57 -35 61 -41 40 -15 -52 -49 -118 -61
-118 -7 0 -19 7 -28 15 -19 20 -33 19 -45 -2 -9 -16 -11 -16 -25 -3 -26 25
-31 128 -12 202 18 65 18 154 1 151 -5 -1 -12 -12 -15 -25 -3 -13 -12 -23 -20
-23 -11 0 -15 14 -15 55 -1 131 -5 180 -16 180 -7 0 -9 -12 -5 -34 5 -23 2
-37 -9 -46 -12 -10 -16 -10 -19 1 -11 37 -19 78 -22 121 -3 42 -1 47 19 50 16
2 23 11 25 32 2 16 10 39 17 50 8 12 18 67 24 123 5 55 16 114 24 129 l15 28
10 -37 c6 -20 19 -48 30 -62 15 -19 19 -35 15 -64 -3 -23 -1 -41 6 -45 13 -8
15 -92 2 -100 -4 -3 -11 -31 -14 -63 -4 -32 -10 -70 -13 -85 -6 -25 -3 -28 19
-28 21 0 25 5 30 41 6 49 23 71 37 49 5 -8 10 -24 10 -36 0 -11 9 -29 21 -40
25 -22 64 -98 89 -169 32 -94 94 -215 110 -215 9 0 24 -13 33 -30 10 -16 22
-30 28 -30 12 0 12 27 -1 35 -5 3 -10 17 -10 30 0 50 56 4 127 -104 24 -36 43
-70 43 -76 0 -6 9 -27 20 -47 28 -52 8 -56 -32 -7 -76 95 -85 102 -102 96 -14
-6 -17 -14 -12 -35 5 -22 4 -24 -4 -10 -20 33 -30 18 -30 -43 0 -50 3 -60 15
-55 10 4 15 -1 15 -14 0 -20 19 -20 1695 -20 l1695 0 -5 27 c-3 16 -10 55 -16
88 -15 85 -39 219 -50 290 -5 33 -13 74 -18 90 -5 17 -12 50 -15 75 -4 25 -11
65 -16 90 -5 25 -17 81 -26 125 -9 44 -29 134 -44 200 -16 66 -32 140 -35 165
-4 25 -12 51 -17 57 -15 18 -119 88 -186 125 -252 138 -350 179 -567 233 -100
25 -165 50 -165 62 0 5 -17 8 -37 9 -21 0 -85 14 -143 32 -58 18 -120 38 -137
43 -18 6 -37 8 -42 4 -5 -3 -20 13 -32 34 -13 24 -34 44 -50 50 -35 12 -47 51
-28 89 23 47 71 92 98 92 15 0 47 7 72 14 145 44 189 99 189 236 0 95 -5 100
-75 70 -64 -27 -173 -42 -324 -44 l-124 -1 -10 -29 c-6 -19 -6 -30 1 -35 19
-11 52 -133 52 -191 0 -30 7 -82 15 -115 16 -67 20 -225 5 -225 -5 0 -12 17
-15 38 -8 48 -11 59 -29 108 -14 39 -76 172 -95 204 -5 8 -23 62 -40 120 -32
104 -63 160 -102 181 -38 20 -42 -3 -16 -87 13 -44 28 -119 31 -169 4 -49 14
-103 22 -119 8 -16 14 -37 14 -47 0 -9 13 -47 30 -83 34 -76 61 -162 53 -169
-7 -8 -92 73 -108 103 -8 14 -24 36 -37 50 -13 14 -27 34 -31 44 -6 15 -11 16
-19 8 -9 -9 -8 -16 4 -29 8 -10 18 -29 21 -43 4 -14 29 -63 57 -110 28 -47 54
-97 57 -113 3 -15 9 -30 14 -33 9 -5 -10 -54 -22 -54 -4 0 -11 9 -14 20 -3 11
-10 20 -14 20 -4 0 -29 21 -55 47 -49 48 -96 128 -96 163 0 23 -8 25 -32 6
-20 -14 -24 -51 -8 -61 6 -3 10 -16 10 -28 0 -20 -3 -18 -28 13 -32 41 -112
179 -112 194 0 6 -6 23 -14 37 -7 14 -16 48 -20 75 -3 27 -19 90 -36 139 -16
50 -30 98 -30 108 0 9 -4 17 -9 17 -5 0 -11 12 -13 27 -2 17 -10 29 -20 31
-25 5 -23 -23 3 -49 18 -18 20 -31 18 -114 -2 -61 1 -98 9 -108 11 -12 20 -45
39 -138 5 -29 -23 -67 -39 -51 -5 5 -12 32 -17 60 -4 29 -16 61 -25 71 -10 11
-15 25 -11 31 4 6 2 17 -4 24 -8 10 -7 25 4 56 19 55 19 124 0 140 -8 7 -15
22 -15 34 0 11 -7 34 -15 50 -8 15 -15 45 -15 65 0 20 -3 46 -6 59 -7 25 -24
30 -24 7 0 -8 -5 -15 -11 -15 -6 0 -9 14 -7 33 2 24 7 31 21 29 13 -2 17 4 17
26 0 16 -7 35 -15 42 -19 16 -19 40 0 40 24 0 30 47 10 84 -15 28 -17 48 -11
142 4 60 7 126 6 147 0 37 7 46 26 27 17 -17 49 62 35 88 -6 10 -8 22 -5 25 8
7 34 136 35 172 1 20 3 23 6 10 2 -11 9 -30 15 -42 7 -14 8 -44 4 -80 -4 -32
-7 -73 -6 -92 0 -18 -7 -42 -15 -52 -19 -20 -17 -50 3 -57 8 -2 16 6 19 18 8
30 23 6 23 -37 0 -18 5 -33 11 -33 13 0 7 225 -8 287 -8 34 -7 45 4 55 8 6 13
21 12 32 -3 45 2 73 15 92 12 15 17 17 27 7 7 -7 21 -13 31 -13 10 0 21 -7 24
-15 10 -25 34 -17 34 10 0 15 -9 31 -24 40 -23 16 -24 18 -10 51 8 20 15 57
14 82 -1 116 12 359 22 382 26 63 35 75 55 73 27 -3 40 27 19 43 -21 15 -20
39 3 61 11 11 25 49 34 93 23 116 42 152 62 120 12 -19 45 -10 55 15 9 23 5
55 -7 55 -3 0 -16 -12 -30 -26 -48 -52 -86 0 -43 59 20 26 21 33 11 69 -21 70
-10 268 15 268 8 0 14 11 14 25 0 15 7 40 16 58 15 28 15 41 3 127 -7 52 -13
122 -13 156 0 105 30 128 187 141 43 3 80 10 84 16 10 16 -37 45 -109 67 -37
12 -72 27 -78 35 -6 8 -25 17 -41 20 -35 8 -37 18 -7 39 28 20 98 21 124 1 10
-8 32 -15 47 -15 18 0 50 -17 88 -46 50 -39 64 -44 90 -39 24 5 29 11 24 26
-4 11 0 31 9 44 9 13 16 41 16 61 0 38 -1 37 47 17 32 -13 56 112 32 173 -10
27 -9 28 9 11 17 -16 20 -16 25 -3 4 9 0 22 -8 30 -8 8 -15 20 -15 26 0 6 -61
73 -135 148 -74 75 -135 142 -135 149 0 10 -75 13 -390 13 -340 0 -390 -2
-390 -15z m80 -76 c0 -32 -253 -259 -288 -259 -41 0 -30 20 55 103 129 125
233 195 233 156z m-761 -373 c9 -11 3 -24 -29 -64 -44 -56 -67 -72 -102 -72
-23 0 -23 0 5 25 28 27 30 31 31 80 1 25 6 31 31 36 47 10 52 10 64 -5z m-119
-46 c-19 -13 -30 -13 -30 0 0 6 10 10 23 10 18 0 19 -2 7 -10z m-137 -134
c-33 -24 -113 -106 -113 -116 0 -17 -132 -170 -146 -170 -15 0 10 97 34 133
15 22 34 51 42 65 9 14 24 30 35 36 21 12 75 67 75 77 0 3 19 9 42 12 24 3 45
12 48 19 2 7 6 2 8 -11 3 -18 -4 -30 -25 -45z m436 -125 c11 -7 10 -13 -4 -35
-10 -14 -24 -26 -33 -26 -18 0 -41 -29 -42 -52 0 -10 -3 -18 -7 -18 -5 0 -27
-18 -51 -39 -38 -34 -92 -53 -92 -31 0 19 187 210 205 210 5 0 16 -4 24 -9z
m-329 -170 c0 -11 -9 -23 -20 -26 -11 -3 -20 -10 -20 -15 0 -4 -14 -23 -31
-41 -18 -19 -56 -62 -87 -96 -48 -56 -82 -78 -82 -55 0 4 20 32 45 62 25 30
58 72 75 94 28 37 97 95 113 96 4 0 7 -9 7 -19z m560 -220 c0 -5 17 -15 37
-24 l37 -14 -27 -17 c-14 -10 -34 -15 -45 -12 -21 7 -46 52 -37 67 8 12 35 12
35 0z m-757 -259 c-4 -9 -9 -19 -12 -22 -3 -3 -24 -32 -46 -65 -22 -33 -42
-62 -45 -65 -3 -3 -25 -29 -49 -58 -50 -60 -101 -94 -101 -66 0 9 22 42 48 73
26 31 55 68 64 82 28 44 129 149 139 144 4 -3 5 -13 2 -23z m755 -3 c2 -10
-25 -44 -64 -81 -62 -61 -69 -65 -107 -62 -51 4 -83 32 -65 57 7 10 27 19 43
21 39 6 110 43 111 59 1 6 2 16 3 20 2 16 76 3 79 -14z m472 -49 c0 -22 -4
-40 -10 -40 -5 0 -10 18 -10 40 0 22 5 40 10 40 6 0 10 -18 10 -40z m-15 -70
c3 -10 1 -28 -4 -39 -6 -11 -11 -33 -11 -49 0 -42 -11 -46 -32 -12 -24 40 -23
69 4 97 26 28 35 29 43 3z m-125 -130 c0 -11 -7 -20 -15 -20 -18 0 -19 12 -3
28 16 16 18 15 18 -8z m-462 -62 c7 -7 27 -17 44 -22 41 -14 47 -39 13 -54
-33 -15 -32 -30 3 -38 45 -10 52 -13 52 -24 0 -6 -8 -13 -17 -17 -19 -6 -52
-42 -53 -55 0 -17 63 -3 135 28 25 11 32 11 41 -1 18 -23 36 -18 82 25 40 37
62 49 62 34 0 -4 -17 -23 -38 -43 -21 -21 -41 -45 -45 -54 -7 -18 -74 -50 -88
-41 -10 6 -78 -33 -94 -54 -8 -10 -19 -11 -45 -4 -31 8 -35 12 -33 40 3 27 -1
31 -24 34 -33 4 -57 45 -58 97 0 31 -4 36 -34 44 -33 8 -70 41 -71 63 0 14 88
52 126 53 16 1 35 -4 42 -11z m622 -113 c-13 -39 -40 -48 -40 -13 0 24 42 76
48 59 2 -6 -2 -27 -8 -46z m-1580 -400 c0 -8 -7 -15 -15 -15 -16 0 -20 12 -8
23 11 12 23 8 23 -8z m326 -40 c-7 -18 -26 -20 -26 -2 0 18 24 41 28 27 2 -6
1 -17 -2 -25z m-378 -35 c-14 -22 -24 -19 -15 5 4 8 11 15 17 15 6 0 6 -7 -2
-20z m112 -25 c0 -8 -4 -15 -10 -15 -5 0 -10 7 -10 15 0 8 5 15 10 15 6 0 10
-7 10 -15z m279 -138 c-1 -84 4 -140 15 -180 18 -64 21 -127 7 -127 -11 0 -21
25 -21 50 0 9 -7 23 -15 30 -9 8 -15 30 -15 57 0 24 -5 53 -11 65 -18 34 -15
168 4 206 10 18 22 30 28 27 5 -4 9 -58 8 -128z m-320 69 c-7 -14 -20 -26 -31
-26 -10 0 -18 -5 -18 -12 0 -6 -2 -9 -5 -6 -10 10 16 54 38 64 29 13 30 11 16
-20z m1424 5 c-3 -13 2 -21 17 -26 22 -7 23 -11 17 -89 -3 -44 -10 -94 -16
-111 -5 -16 -12 -51 -16 -77 -5 -38 -10 -48 -25 -48 -14 0 -21 10 -25 38 -13
80 -17 91 -36 113 -10 12 -19 29 -19 38 0 32 38 125 65 158 27 35 47 37 38 4z
m-1307 -88 c22 -8 16 -37 -14 -66 -30 -29 -72 -36 -72 -13 0 8 4 17 9 21 5 3
13 19 16 36 4 17 14 39 24 48 15 15 16 15 19 -2 2 -10 10 -21 18 -24z m-353
23 c3 -7 0 -19 -6 -25 -8 -8 -7 -19 7 -42 27 -45 5 -61 -23 -16 -22 36 -25 54
-15 81 8 20 30 21 37 2z m697 10 c0 -6 19 -100 26 -126 3 -14 8 -56 10 -93 2
-38 10 -82 19 -99 19 -39 19 -68 0 -68 -8 0 -15 8 -15 19 0 10 -7 24 -15 31
-8 7 -15 24 -15 37 0 14 -6 37 -14 51 -8 15 -17 35 -20 45 -9 30 -26 19 -26
-17 0 -68 -18 -45 -25 31 -4 43 -11 85 -15 93 -10 17 24 70 45 70 7 0 15 7 19
15 5 13 26 22 26 11z m1110 -21 c0 -8 -7 -15 -15 -15 -8 0 -15 7 -15 15 0 8 7
15 15 15 8 0 15 -7 15 -15z m-1010 -107 c5 -29 13 -71 19 -93 6 -23 8 -68 4
-105 l-7 -65 -13 45 c-7 25 -18 56 -25 69 -21 40 -14 230 8 208 3 -3 9 -29 14
-59z m590 -59 c0 -59 -12 -79 -24 -36 -8 29 -8 92 0 100 15 15 24 -8 24 -64z
m-1544 13 c-24 -24 -31 -6 -10 25 16 24 19 26 22 9 2 -10 -3 -25 -12 -34z
m227 -27 c1 -5 -7 -11 -18 -14 -11 -2 -33 -14 -51 -27 -40 -31 -49 -30 -28 1
28 42 91 68 97 40z m1317 -84 c0 -11 -4 -23 -10 -26 -6 -4 -10 5 -10 19 0 14
5 26 10 26 6 0 10 -9 10 -19z m-780 -93 c0 -32 -3 -39 -10 -28 -13 20 -13 70
0 70 6 0 10 -19 10 -42z m271 -29 l-9 -44 -1 41 c-1 22 2 44 6 47 12 12 13 1
4 -44z m-201 -10 c0 -20 -15 -26 -24 -10 -8 13 4 42 15 35 5 -3 9 -14 9 -25z
m135 -51 c10 -29 24 -64 32 -77 9 -13 13 -35 10 -50 -6 -29 43 -106 68 -106 8
0 15 -3 15 -7 1 -42 0 -44 -11 -25 -22 38 -32 17 -27 -63 3 -44 4 -80 2 -80
-1 0 -9 -2 -17 -5 -9 -4 -22 10 -38 45 -15 33 -32 53 -46 56 -23 6 -35 36 -61
154 -11 47 -1 76 24 66 20 -7 22 2 12 46 -9 43 -3 98 12 98 5 0 16 -24 25 -52z
m583 -16 c2 -55 12 -68 41 -51 17 12 23 11 37 -3 12 -12 14 -26 9 -58 -9 -52
-31 -62 -59 -27 -12 15 -27 27 -33 27 -15 0 -23 35 -23 106 0 92 27 98 28 6z
m-694 30 c2 -4 7 -24 11 -45 7 -34 5 -39 -14 -44 -22 -6 -30 -46 -11 -58 6 -3
9 -23 9 -43 -1 -21 -3 -29 -6 -17 -3 11 -12 35 -21 54 -12 26 -13 37 -4 52 7
10 12 39 12 64 0 40 11 58 24 37z m-934 -79 c0 -26 -3 -34 -11 -26 -9 9 -3 63
7 63 2 0 4 -17 4 -37z m748 -5 c10 -29 3 -138 -9 -138 -16 0 -29 38 -29 84 0
72 21 102 38 54z m727 -169 c0 -41 -4 -54 -15 -54 -21 0 -36 60 -21 91 18 41
36 24 36 -37z m295 -163 c-6 -6 -15 -5 -23 2 -12 10 -12 20 -1 64 8 29 15 64
15 78 1 14 5 -11 10 -55 5 -48 5 -83 -1 -89z m-500 82 c7 -22 11 -78 11 -122
0 -53 5 -91 14 -110 19 -36 19 -86 1 -112 -8 -10 -16 -17 -18 -14 -44 53 -58
81 -51 97 11 23 10 134 -1 152 -14 22 -12 117 3 135 21 25 29 20 41 -26z
m-1120 7 c0 -14 -4 -25 -10 -25 -11 0 -14 33 -3 43 11 11 13 8 13 -18z m680
-147 c0 -17 5 -28 14 -28 15 0 32 -53 22 -69 -4 -5 -18 1 -33 15 l-27 25 -12
-30 c-13 -30 -7 -78 14 -118 7 -12 12 -56 12 -98 0 -63 4 -82 25 -115 14 -22
25 -50 25 -63 0 -40 11 -38 44 11 19 29 41 49 56 52 14 3 59 22 101 43 42 20
81 37 87 37 6 0 14 -11 18 -25 3 -14 15 -32 27 -40 17 -12 18 -18 9 -42 -6
-15 -13 -43 -16 -60 -6 -38 7 -42 52 -19 15 7 37 17 50 20 19 6 22 4 22 -18 0
-18 -5 -26 -17 -26 -10 0 -45 -14 -78 -30 -33 -16 -73 -30 -88 -30 -15 0 -30
-7 -33 -15 -5 -12 -27 -15 -115 -15 -104 0 -110 1 -131 25 -12 14 -28 23 -36
20 -23 -9 -59 21 -65 54 -4 17 -16 39 -27 48 -11 10 -20 22 -20 28 0 6 -11 26
-25 45 -16 21 -22 37 -16 43 15 15 1 138 -20 173 -11 17 -19 40 -19 50 -1 18
-1 18 -11 1 -15 -26 -26 -13 -34 39 -8 57 4 140 16 109 4 -11 8 -34 8 -52 2
-72 40 -37 42 39 1 40 2 41 11 18 9 -23 17 -26 63 -27 l54 -1 6 41 c4 23 10
46 13 51 8 13 31 -35 32 -66z m-970 -233 c11 -30 26 -32 35 -5 8 26 24 25 34
-2 9 -26 9 -213 0 -223 -10 -9 -24 16 -38 65 -7 25 -16 47 -20 50 -29 23 -53
115 -34 133 10 11 13 9 23 -18z m1260 -32 c0 -45 -18 -51 -26 -8 -8 43 2 77
16 55 6 -8 10 -29 10 -47z m-480 -30 c0 -7 -4 -13 -10 -13 -5 0 -10 12 -10 28
0 21 2 24 10 12 5 -8 10 -21 10 -27z m-889 -70 c-5 -10 -14 -40 -20 -67 -14
-58 -51 -138 -103 -224 -40 -65 -42 -90 -7 -72 15 9 20 7 25 -7 3 -10 10 -28
15 -41 17 -44 -21 -82 -83 -82 -25 0 -42 -8 -64 -31 -16 -17 -37 -35 -48 -41
-17 -9 -18 -7 -13 18 12 63 58 219 67 228 6 6 10 24 11 41 0 16 4 39 9 50 6
17 9 13 15 -20 11 -64 13 -69 29 -56 8 7 17 24 21 39 9 36 74 187 103 240 13
23 30 42 38 42 10 0 12 -5 5 -17z m673 1 c18 -17 19 -24 10 -48 -6 -17 -34
-22 -34 -7 0 5 -3 23 -6 40 -7 34 5 41 30 15z m1346 -6 c0 -6 9 -21 19 -32 11
-12 26 -40 34 -64 14 -39 14 -44 -1 -50 -24 -8 -41 -33 -42 -60 0 -12 -6 -25
-14 -28 -27 -10 -29 -61 -6 -110 12 -25 24 -43 27 -41 2 3 0 28 -5 57 -5 29
-7 60 -5 71 8 30 31 22 38 -12 5 -23 10 -28 18 -20 8 8 8 23 0 53 -12 45 -10
58 11 58 32 0 40 -135 10 -170 -13 -15 -10 -53 6 -75 4 -5 11 -26 15 -45 4
-19 13 -39 20 -45 8 -5 16 -19 19 -30 3 -11 4 -3 1 18 -4 35 -2 38 18 35 18
-2 23 -12 29 -52 4 -26 2 -59 -3 -73 -5 -14 -6 -29 -3 -35 9 -13 24 -72 32
-123 6 -33 11 -41 32 -43 33 -5 50 -20 50 -43 0 -26 -35 -25 -54 2 l-14 21
-11 -21 c-7 -13 -9 -40 -5 -70 4 -31 2 -51 -5 -55 -8 -5 -11 10 -11 47 0 35
-5 59 -14 66 -12 10 -20 0 -49 -56 -18 -37 -39 -69 -46 -71 -17 -6 -42 62 -35
96 4 18 1 32 -6 37 -8 5 -6 14 6 33 14 21 15 39 10 103 -5 63 -4 78 9 83 17 6
20 43 5 66 -7 11 -10 7 -10 -17 0 -18 -4 -33 -10 -33 -5 0 -10 14 -10 30 0 25
-4 30 -23 30 -27 0 -47 -34 -47 -78 0 -15 -9 -53 -20 -85 -11 -31 -20 -63 -20
-72 0 -9 -9 -15 -21 -15 -17 0 -20 -4 -14 -28 3 -17 0 -40 -10 -58 -8 -16 -15
-36 -15 -45 0 -35 -61 -119 -87 -119 -7 0 -15 11 -19 25 -7 27 -23 32 -43 12
-11 -10 -13 -7 -8 13 3 14 9 35 12 48 5 13 3 22 -3 22 -6 0 -14 -10 -18 -22
-3 -12 -10 -26 -15 -32 -5 -6 -31 -38 -59 -71 -27 -33 -50 -65 -50 -72 0 -6
-9 -18 -20 -26 -22 -15 -70 -82 -70 -97 0 -6 -7 -10 -16 -10 -12 0 -15 6 -9
23 4 12 7 31 8 42 3 26 -31 33 -40 8 -3 -10 -19 -33 -35 -51 -15 -18 -28 -38
-28 -44 0 -13 -26 -35 -56 -48 -16 -6 -20 -15 -17 -34 7 -35 20 -41 44 -20 10
9 22 14 26 10 11 -11 -27 -146 -59 -209 -27 -54 -28 -60 -14 -76 9 -10 16 -26
16 -37 0 -20 36 -105 48 -114 4 -3 12 -18 18 -35 6 -19 16 -29 27 -27 14 2 15
-4 11 -45 -4 -26 0 -75 6 -108 25 -117 11 -164 -24 -84 -10 23 -26 49 -35 58
-10 10 -28 45 -40 79 -13 34 -28 65 -32 68 -5 3 -9 19 -9 35 0 17 -5 39 -10
50 -14 25 -32 140 -33 201 0 34 -4 48 -14 48 -7 0 -18 12 -23 26 -8 21 -7 29
5 38 19 14 11 42 -14 49 -19 5 -38 78 -25 98 3 5 -6 26 -21 45 -19 25 -32 33
-45 29 -28 -9 -30 26 -3 52 16 16 23 33 23 62 0 22 -4 42 -9 46 -12 7 -41 -22
-41 -42 0 -8 -10 -28 -21 -45 -26 -35 -32 -29 -53 53 -11 40 -11 59 -2 92 14
46 9 150 -5 141 -5 -3 -7 -10 -3 -15 3 -6 -3 -20 -14 -32 -11 -12 -23 -31 -26
-42 -4 -11 -15 -31 -26 -44 -17 -19 -23 -21 -35 -11 -19 16 -19 44 0 60 8 7
15 21 15 31 0 11 6 28 12 39 9 15 10 27 2 48 -8 21 -8 35 -1 48 6 11 12 42 13
69 1 28 4 70 8 95 6 41 5 43 -6 20 -7 -14 -18 -29 -24 -35 -7 -5 -15 -27 -18
-48 -4 -21 -11 -35 -17 -32 -12 8 -12 112 0 119 5 3 12 23 15 43 7 42 33 110
51 133 6 8 17 34 23 56 7 23 19 47 27 54 8 7 15 18 15 25 0 7 12 32 27 54 23
36 28 39 42 27 9 -8 36 -16 61 -18 40 -3 45 -6 45 -28 0 -19 -5 -25 -23 -26
-44 -2 -49 -22 -10 -38 l35 -15 0 -86 c0 -75 3 -88 22 -106 11 -11 21 -24 21
-29 0 -23 21 -7 35 26 8 20 25 47 38 59 12 12 29 32 37 44 8 13 22 33 31 45 9
11 19 39 22 61 19 122 36 154 79 155 9 0 29 11 45 24 17 14 46 25 75 28 39 5
50 2 66 -16 11 -11 22 -30 24 -40 7 -39 28 -29 28 13 0 22 4 42 9 45 15 10 39
-4 44 -25 8 -30 34 -23 41 13 5 24 9 29 18 20 13 -13 -4 -62 -22 -62 -5 0 -10
-17 -10 -39 0 -29 6 -42 23 -54 18 -12 20 -18 10 -28 -7 -7 -13 -21 -13 -31 0
-10 6 -18 13 -18 13 0 59 54 71 85 8 19 8 19 19 -3 17 -36 32 -20 33 35 0 36
6 58 22 78 23 29 29 60 13 70 -12 7 -26 130 -16 144 9 15 35 14 35 -1z m-1338
-105 c19 -17 24 -43 9 -43 -8 0 -41 43 -41 55 0 10 13 5 32 -12z m-177 -36
c39 -22 53 -51 42 -81 -9 -22 -67 -7 -77 19 -5 13 -13 26 -18 29 -10 6 -4 56
7 56 3 0 24 -11 46 -23z m-321 -2 c7 -21 -17 -116 -29 -112 -5 2 -12 16 -15
32 -9 50 -30 42 -32 -12 -4 -88 -6 -108 -11 -123 -3 -8 -8 -37 -12 -65 -3 -27
-12 -68 -20 -90 -8 -22 -16 -57 -20 -77 -6 -38 -18 -46 -44 -29 -9 6 -11 16
-5 32 4 13 7 33 5 45 -1 12 7 37 19 57 17 29 20 47 16 101 -3 57 -1 68 14 76
17 9 39 75 43 130 2 20 8 26 35 28 17 2 32 7 32 13 0 14 17 11 24 -6z m789
-39 c3 -8 2 -27 -2 -43 l-8 -28 -12 29 c-12 30 -9 56 8 56 5 0 11 -6 14 -14z
m-496 -58 c4 -7 15 -35 25 -61 14 -40 15 -49 3 -53 -20 -8 -35 4 -35 28 0 11
-7 26 -14 32 -8 6 -18 23 -22 39 -5 23 -3 27 14 27 12 0 24 -6 29 -12z m175
-121 c-6 -78 -26 -69 -30 13 -4 80 4 105 23 70 8 -16 11 -46 7 -83z m328 3 c0
-10 -5 -22 -10 -25 -13 -8 -24 20 -16 41 8 20 26 9 26 -16z m-960 -15 c0 -8
-4 -15 -10 -15 -5 0 -10 7 -10 15 0 8 5 15 10 15 6 0 10 -7 10 -15z m2946 -41
c8 -30 -10 -54 -27 -37 -13 13 -4 63 11 63 5 0 13 -12 16 -26z m-3546 -132 c0
-13 -12 -22 -22 -16 -10 6 -1 24 13 24 5 0 9 -4 9 -8z m896 -69 c-4 -32 -12
-60 -18 -64 -13 -8 -18 -139 -5 -156 5 -8 3 -20 -6 -33 -15 -22 -27 -17 -27
11 0 9 -6 19 -12 22 -10 3 -10 11 0 39 6 19 12 57 12 84 0 27 6 58 14 69 7 11
17 35 21 53 12 56 28 38 21 -25z m217 9 c18 -42 21 -62 10 -62 -8 0 -43 77
-43 93 0 20 18 3 33 -31z m133 -19 c-11 -11 -17 4 -9 23 7 18 8 18 11 1 2 -10
1 -21 -2 -24z m2104 -13 c0 -6 14 -29 30 -52 35 -48 40 -74 11 -58 -11 5 -22
23 -26 39 -3 16 -13 35 -21 42 -16 13 -19 39 -4 39 6 0 10 -5 10 -10z m-2820
-35 c0 -16 -34 -38 -43 -28 -10 9 12 43 28 43 8 0 15 -7 15 -15z m2349 -37 c1
-5 -3 -8 -9 -8 -5 0 -10 12 -9 28 0 24 1 25 9 7 5 -11 9 -23 9 -27z m11 -48
c0 -11 -7 -20 -15 -20 -15 0 -21 21 -8 33 12 13 23 7 23 -13z m458 -54 c19
-26 28 -47 22 -51 -21 -13 -10 -27 16 -21 18 5 24 3 19 -5 -9 -14 10 -53 47
-97 27 -32 35 -52 21 -52 -19 1 -133 120 -162 168 -34 57 -37 72 -19 90 18 18
22 16 56 -32z m124 -11 c4 -5 13 -19 20 -29 7 -10 23 -31 36 -46 23 -29 29
-60 13 -60 -18 0 -60 46 -66 73 -4 15 -12 31 -19 35 -21 14 -38 41 -31 52 7
11 31 -2 47 -25z m-2015 -107 c-2 -13 -4 -3 -4 22 0 25 2 35 4 23 2 -13 2 -33
0 -45z m-484 -63 c-19 -51 -43 -71 -43 -36 0 11 10 39 21 61 29 56 45 38 22
-25z m1897 20 c0 -19 -4 -35 -10 -35 -5 0 -10 16 -10 35 0 19 5 35 10 35 6 0
10 -16 10 -35z m-2052 -59 c-8 -14 -38 -55 -68 -91 -39 -45 -56 -59 -59 -48
-2 9 3 21 11 27 8 6 18 18 22 26 14 31 32 58 66 103 27 35 36 41 38 27 2 -11
-3 -30 -10 -44z m1719 3 c-6 -47 -11 -54 -32 -46 -10 4 -15 20 -15 47 0 37 2
40 26 40 25 0 26 -2 21 -41z m-1937 -89 c0 -21 -5 -30 -16 -30 -8 0 -12 -5 -8
-11 4 -8 9 -8 17 0 16 16 27 13 27 -7 0 -26 -36 -44 -75 -36 -23 4 -35 2 -35
-5 0 -6 -6 -11 -14 -11 -8 0 -18 -9 -21 -20 -7 -23 -25 -27 -25 -5 0 14 22 42
68 88 12 12 32 32 45 44 30 30 37 29 37 -7z m2430 -67 c0 -14 -19 -38 -25 -32
-8 8 5 39 16 39 5 0 9 -3 9 -7z m-2606 -31 c11 -34 -25 -95 -102 -174 -41 -43
-79 -78 -84 -78 -29 0 -12 39 58 131 113 149 118 154 128 121z m1319 -129 c9
-14 -8 -86 -21 -91 -8 -2 -12 10 -12 41 0 24 3 47 7 50 9 9 21 9 26 0z m-1037
-98 c5 -27 0 -45 -20 -81 -14 -26 -26 -54 -26 -63 -1 -9 -12 -29 -25 -46 -33
-39 -33 -13 -1 46 13 26 26 73 30 112 8 75 30 92 42 32z m996 -32 c-5 -25 -6
-25 -18 -8 -19 25 -17 35 5 35 14 0 17 -6 13 -27z m598 -119 c0 -73 -12 -92
-23 -36 -7 35 3 112 14 112 5 0 9 -34 9 -76z m-570 40 c0 -14 -4 -23 -10 -19
-5 3 -10 15 -10 26 0 10 5 19 10 19 6 0 10 -12 10 -26z m58 -132 c15 -17 16
-55 0 -50 -20 7 -71 115 -63 135 6 15 11 10 29 -27 11 -25 27 -51 34 -58z
m378 65 c2 -7 -4 -42 -16 -78 -11 -35 -20 -73 -20 -84 0 -24 -32 -105 -42
-105 -4 0 -12 18 -18 40 -9 34 -8 42 9 59 15 15 19 28 14 54 -3 23 0 38 11 50
9 8 16 18 16 21 0 2 4 16 10 30 10 28 28 34 36 13z m-1446 -44 c6 -21 14 -44
16 -52 4 -11 7 -12 16 -3 19 19 48 14 48 -7 0 -11 13 -34 29 -52 32 -34 71
-126 71 -165 0 -13 -2 -24 -5 -24 -10 0 -75 69 -75 80 0 5 -7 10 -15 10 -18 0
-19 5 -3 29 13 21 4 56 -12 46 -5 -3 -10 -15 -10 -26 0 -26 -17 -24 -26 4 -4
12 -18 40 -32 62 -27 42 -46 110 -37 126 12 18 24 8 35 -28z m1460 -165 c0
-38 -3 -49 -10 -38 -16 25 -11 90 7 90 2 0 3 -24 3 -52z m147 -30 c-2 -13 -4
-5 -4 17 -1 22 1 32 4 23 2 -10 2 -28 0 -40z m230 -160 l-22 -51 -3 58 c-2 32
0 65 3 74 6 14 9 13 25 -7 18 -21 18 -23 -3 -74z m-107 -195 c0 -3 -9 2 -20
12 -11 10 -20 28 -20 39 0 17 4 15 20 -12 11 -18 20 -35 20 -39z"/>
<path d="M4431 2161 c-15 -27 -14 -31 9 -31 13 0 20 7 20 19 0 28 -17 35 -29
12z"/>
<path d="M4664 1855 c-4 -9 -11 -14 -18 -13 -6 2 -22 -8 -35 -21 -40 -40 -36
-181 4 -181 17 0 74 86 91 137 13 38 14 50 3 69 -14 27 -37 31 -45 9z"/>
<path d="M4250 1804 c-6 -15 -8 -34 -5 -41 2 -8 -2 -27 -10 -43 -21 -41 -20
-80 3 -80 20 0 52 57 52 93 0 13 5 28 11 34 18 18 7 58 -18 61 -17 3 -26 -4
-33 -24z"/>
<path d="M4841 1796 c-11 -13 -11 -20 -3 -28 8 -8 13 -7 18 5 10 27 0 41 -15
23z"/>
<path d="M4720 1619 c-7 -11 -9 -23 -7 -26 9 -9 47 17 47 32 0 22 -28 18 -40
-6z"/>
<path d="M4194 1609 c-3 -6 -1 -16 5 -22 8 -8 11 -5 11 11 0 24 -5 28 -16 11z"/>
<path d="M4637 1547 c-33 -11 -30 -33 4 -29 29 5 32 7 27 25 -2 11 -9 12 -31
4z"/>
<path d="M4663 1484 c-13 -20 -23 -40 -23 -45 0 -5 -4 -9 -10 -9 -5 0 -12 -11
-16 -24 -3 -14 -12 -27 -20 -30 -8 -3 -14 -15 -14 -26 0 -11 -7 -23 -16 -27
-16 -6 -15 -32 2 -77 6 -15 4 -17 -14 -11 -25 7 -27 -2 -10 -40 14 -32 26 -32
38 0 5 14 14 25 20 25 5 0 28 23 50 51 35 44 40 56 34 85 -5 25 -1 38 15 55
22 24 44 86 35 101 -13 20 -50 6 -71 -28z"/>
<path d="M5310 1421 c0 -11 4 -21 9 -21 18 0 21 18 6 30 -13 10 -15 9 -15 -9z"/>
<path d="M4614 1089 c-3 -6 -1 -16 5 -22 8 -8 11 -5 11 11 0 24 -5 28 -16 11z"/>
<path d="M4481 1052 c-28 -39 -35 -76 -20 -103 11 -22 13 -21 29 31 9 30 22
56 28 58 17 5 15 42 -2 42 -8 0 -24 -13 -35 -28z"/>
<path d="M6330 5170 c0 -11 5 -20 10 -20 6 0 10 9 10 20 0 11 -4 20 -10 20 -5
0 -10 -9 -10 -20z"/>
<path d="M6607 4329 c-27 -45 -23 -58 12 -40 24 13 35 45 23 67 -8 14 -14 9
-35 -27z"/>
<path d="M6552 4024 c-39 -27 -23 -54 34 -54 24 0 110 36 119 50 4 7 -65 20
-109 20 -12 0 -32 -7 -44 -16z"/>
<path d="M5978 3997 c-37 -12 -70 -25 -74 -29 -11 -12 25 -58 44 -58 10 0 33
11 52 25 22 16 47 25 72 25 33 0 38 3 38 24 0 16 -7 26 -22 30 -32 8 -35 8
-110 -17z"/>
<path d="M6612 3264 c-16 -11 -20 -19 -13 -28 5 -6 14 -30 20 -51 6 -22 16
-59 23 -82 9 -32 9 -53 1 -83 -9 -35 -8 -40 6 -40 43 1 91 68 91 127 0 65 -55
173 -88 173 -10 0 -28 -7 -40 -16z"/>
<path d="M5436 3241 c-9 -14 4 -41 21 -41 9 0 13 8 11 22 -3 23 -23 35 -32 19z"/>
<path d="M6548 2729 c-19 -32 -24 -74 -10 -83 12 -7 55 82 48 99 -8 23 -19 18
-38 -16z"/>
<path d="M5366 2741 c-15 -23 -4 -391 12 -415 7 -10 18 74 26 189 4 49 -16
221 -27 231 -3 3 -8 1 -11 -5z"/>
<path d="M5409 2295 c-1 -14 -2 -31 -3 -37 -1 -7 6 -14 15 -16 20 -4 32 34 18
60 -14 26 -29 22 -30 -7z"/>
<path d="M5515 2190 c-10 -17 5 -70 20 -70 23 0 27 18 10 50 -17 33 -21 35
-30 20z"/>
<path d="M5517 2033 c-10 -17 62 -263 76 -263 20 0 -12 177 -45 242 -13 28
-23 34 -31 21z"/>
<path d="M3930 635 c0 -8 5 -15 10 -15 6 0 10 7 10 15 0 8 -4 15 -10 15 -5 0
-10 -7 -10 -15z"/>
</g>
</svg>
