<?xml version="1.0" standalone="no"?>
<!DOCTYPE svg PUBLIC "-//W3C//DTD SVG 20010904//EN"
 "http://www.w3.org/TR/2001/REC-SVG-20010904/DTD/svg10.dtd">
<svg version="1.0" xmlns="http://www.w3.org/2000/svg"
 width="300.000000pt" height="400.000000pt" viewBox="0 0 300.000000 400.000000"
 preserveAspectRatio="xMidYMid meet">
<metadata>
Created by potrace 1.10, written by Peter Selinger 2001-2011
</metadata>
<g transform="translate(0.000000,400.000000) scale(0.100000,-0.100000)"
fill="#116566" stroke="none">
<path d="M0 3695 c0 -168 2 -305 4 -305 2 0 11 -3 20 -6 10 -4 16 -1 16 8 0 7
9 14 19 15 15 1 18 -4 17 -30 -2 -19 4 -37 13 -45 14 -11 13 -12 -9 -8 -14 3
-19 3 -12 0 6 -3 12 -13 12 -21 0 -11 6 -8 20 8 l19 24 1 -25 c1 -21 3 -22 9
-7 5 15 9 12 21 -18 8 -19 22 -43 32 -52 10 -9 18 -26 18 -38 0 -33 31 -41 52
-15 24 30 23 12 -2 -25 -16 -24 -19 -40 -14 -80 7 -53 47 -135 67 -135 9 0 9
-2 1 -8 -7 -4 -8 -15 -3 -27 8 -20 8 -20 9 0 1 13 9 4 26 -29 25 -52 31 -72
13 -46 -8 12 -10 12 -7 -5 2 -11 11 -21 22 -23 40 -8 78 -71 57 -96 -9 -10 -8
-15 4 -20 8 -3 15 -14 15 -24 0 -29 23 -54 43 -46 9 3 15 10 12 14 -8 13 6 40
20 40 21 0 65 -41 65 -61 0 -10 -3 -19 -7 -19 -10 0 -33 -49 -33 -68 0 -8 -9
-31 -19 -51 -10 -20 -32 -81 -48 -136 l-29 -99 -179 -64 c-99 -35 -199 -71
-222 -79 l-43 -16 0 -433 c0 -257 4 -443 10 -458 5 -15 6 -26 1 -26 -13 0 -7
-33 6 -37 6 -2 15 1 19 8 5 8 3 10 -7 5 -8 -4 -6 -1 4 7 9 8 17 19 17 24 0 6
9 22 21 37 16 21 29 26 64 26 24 0 46 -4 50 -9 3 -5 265 -140 583 -299 317
-160 638 -322 712 -360 l135 -69 3 -132 3 -132 -33 17 c-18 9 -166 85 -328
169 -556 287 -592 305 -611 305 -26 0 -120 47 -139 70 -8 9 -126 74 -263 144
-197 101 -247 123 -247 109 0 -13 69 -53 273 -157 149 -77 416 -214 592 -306
530 -277 832 -431 864 -440 29 -8 31 -7 31 18 0 15 -9 90 -20 167 -15 110 -23
143 -38 155 -10 9 -17 20 -16 25 2 6 -26 23 -62 39 -60 27 -64 31 -59 56 6 25
-4 31 -626 338 -585 289 -633 311 -650 297 -16 -15 -22 -14 -77 14 -67 34 -80
56 -58 98 33 62 565 791 590 808 11 9 30 12 44 8 31 -7 169 -85 197 -110 24
-20 112 -67 118 -62 2 2 11 -4 21 -13 10 -10 29 -17 44 -17 17 1 21 3 10 6
-10 2 -18 9 -18 14 0 5 10 4 23 -3 12 -6 27 -13 32 -14 6 -1 33 -13 60 -27
117 -61 204 -100 258 -118 32 -11 104 -41 160 -68 113 -53 124 -63 266 -254
40 -53 75 -97 78 -97 6 0 -37 60 -267 365 -107 143 -225 301 -262 350 -37 50
-89 116 -115 147 -27 32 -49 68 -49 82 -1 14 2 23 7 20 5 -3 18 -2 29 1 15 5
20 16 21 43 1 24 3 29 6 14 3 -12 13 -28 24 -35 10 -6 19 -17 19 -24 0 -15 27
-18 32 -4 5 13 70 1 65 -13 -2 -6 5 -19 16 -28 24 -21 17 -21 55 -2 31 15 43
34 22 34 -5 0 -7 6 -4 14 6 15 51 36 89 41 40 7 115 46 109 58 -3 7 3 3 13 -9
17 -19 21 -20 62 -6 29 10 39 17 30 23 -7 4 -21 3 -30 -2 -17 -9 -38 5 -22 14
21 12 63 16 63 7 0 -17 33 -11 76 14 22 13 52 26 65 29 13 3 35 16 47 28 21
19 25 20 41 5 21 -19 35 -21 26 -3 -4 6 10 -6 29 -28 36 -40 49 -68 21 -45
-26 22 -24 6 3 -20 18 -17 24 -19 19 -7 -15 40 13 12 120 -116 46 -56 54 -70
42 -78 -10 -8 -9 -9 7 -4 23 6 38 -14 29 -37 -7 -18 11 -42 24 -34 6 4 11 15
11 24 0 14 -2 15 -10 2 -5 -8 -11 -12 -14 -10 -2 3 4 15 14 27 l18 23 4 -35
c2 -18 0 -33 -5 -32 -5 1 -12 -4 -15 -12 -3 -10 0 -11 9 -5 12 6 12 5 1 -8
-10 -12 -12 -43 -9 -116 l5 -99 -30 -17 c-36 -22 -32 -29 10 -16 18 5 30 5 27
1 -7 -12 18 -61 32 -61 6 0 19 7 27 16 9 8 20 12 26 9 6 -4 1 -14 -12 -25 -18
-14 -20 -20 -10 -33 10 -12 10 -16 -3 -21 -8 -3 -15 -11 -14 -18 0 -10 2 -10
6 0 2 6 8 10 13 7 13 -8 60 17 60 31 0 8 -6 11 -15 8 -16 -6 -22 21 -7 30 12
7 64 -43 57 -54 -3 -6 0 -7 8 -4 8 3 17 -2 21 -11 3 -9 10 -13 16 -10 5 3 10
1 10 -4 0 -6 -4 -11 -8 -11 -12 0 -13 -42 -1 -56 10 -12 8 -15 -33 -39 -208
-123 -293 -173 -393 -230 -215 -123 -191 -112 -213 -92 -20 18 -20 18 -27 -14
-4 -18 -45 -132 -92 -253 -47 -122 -95 -249 -108 -283 l-24 -62 42 -8 c42 -9
42 -9 39 -50 -3 -39 -2 -41 32 -47 19 -4 37 -10 40 -14 2 -4 -20 -137 -50
-297 -29 -160 -54 -298 -54 -307 0 -17 32 -18 531 -18 l532 0 -7 31 c-3 17 -6
38 -6 45 0 8 -10 14 -21 14 -18 0 -20 2 -8 16 7 9 32 25 56 36 l43 20 0 354
c0 365 -2 380 -38 332 -7 -10 -23 -18 -35 -18 -18 0 -19 -2 -7 -10 16 -11 14
-11 -45 -15 -59 -4 -106 5 -98 19 4 6 -4 4 -17 -5 -23 -15 -26 -15 -44 2 -10
10 -23 16 -27 13 -5 -3 -9 1 -9 8 0 10 -2 10 -9 -1 -7 -11 -10 -9 -16 9 -5 15
-10 19 -18 11 -14 -14 -74 52 -82 90 -4 16 -11 32 -17 35 -18 12 -2 -239 22
-336 47 -191 143 -382 267 -528 50 -58 54 -77 8 -33 -104 99 -250 348 -276
469 -6 26 -14 67 -19 92 -5 25 -14 62 -19 84 -14 58 -11 246 5 318 18 79 56
176 91 231 59 93 205 208 293 231 14 4 -9 -10 -50 -31 -105 -53 -208 -156
-255 -254 -41 -86 -46 -120 -10 -66 39 57 95 81 171 73 39 -4 65 -3 69 4 16
26 151 -8 141 -35 -2 -6 2 -19 9 -28 10 -15 13 -8 14 42 1 37 -4 65 -12 73
-43 44 -47 142 -8 196 25 36 26 39 4 45 -17 4 -17 5 0 6 15 1 17 15 17 146 0
131 -2 145 -17 145 -16 0 -16 -2 -3 -11 13 -9 13 -10 0 -6 -8 2 -17 17 -20 33
l-6 29 -8 -29 c-5 -20 -3 -32 6 -37 13 -8 11 -9 -36 -23 -9 -3 -19 7 -26 27
-7 18 -14 27 -16 21 -6 -16 -54 -5 -54 12 0 8 -7 14 -15 14 -8 0 -15 6 -15 14
0 7 -7 19 -15 26 -12 10 -16 9 -21 -4 -3 -9 -16 -16 -29 -16 -32 0 -46 65 -18
86 10 7 23 14 28 14 6 0 16 9 23 20 19 31 117 21 163 -17 23 -18 73 -11 77 11
3 12 0 16 -8 11 -7 -5 -21 2 -34 17 -11 13 -17 18 -12 11 5 -8 4 -13 -3 -13
-23 0 -64 157 -62 243 0 31 -6 83 -14 114 -17 63 -19 84 -7 67 4 -6 32 -19 62
-29 30 -10 61 -20 68 -23 9 -3 12 30 12 145 l0 150 -47 33 -46 34 46 40 47 41
0 488 c0 457 -1 487 -17 488 -77 3 -252 -6 -259 -14 -9 -8 45 -159 66 -187 15
-20 26 -24 64 -22 25 1 46 -3 46 -8 0 -6 9 -10 19 -10 17 0 19 -5 14 -47 -10
-94 -41 -142 -110 -173 -24 -10 -44 -26 -44 -34 -1 -9 -2 -22 -3 -28 -1 -7 12
-15 28 -18 43 -7 43 -28 2 -45 -41 -17 -47 -34 -49 -132 -2 -93 14 -130 65
-145 46 -14 67 -45 49 -74 -9 -16 -10 -17 -11 -2 0 11 -6 15 -20 11 -11 -3
-20 -1 -20 5 0 6 -10 8 -22 5 l-23 -5 23 17 c18 13 21 20 12 29 -8 8 -15 7
-24 -6 -7 -10 -16 -15 -19 -11 -11 10 -8 25 3 18 14 -9 13 -5 -11 45 -24 50
-27 103 -15 255 5 55 8 112 8 127 -1 14 5 29 13 32 11 4 15 20 14 53 0 26 -3
42 -6 36 -8 -21 -20 -15 -28 14 -3 15 -11 31 -17 34 -8 5 -6 13 5 24 10 9 17
26 17 38 0 14 -3 18 -8 10 -5 -7 -15 5 -30 34 -17 35 -18 44 -7 39 12 -4 13
-2 5 13 -5 11 -13 21 -17 23 -5 1 -21 23 -38 47 -54 80 -143 156 -161 138 -10
-10 20 -45 33 -40 7 3 13 0 13 -6 0 -6 6 -11 14 -11 8 0 20 -13 27 -29 8 -17
16 -26 19 -20 4 5 17 -2 31 -17 l24 -26 -30 13 c-16 7 -37 18 -45 25 -8 6 -23
10 -33 9 -9 -2 -15 0 -12 4 8 13 -32 49 -70 61 -19 6 -33 16 -30 21 4 5 -2 9
-13 9 -10 0 -19 6 -19 14 0 10 9 14 31 11 30 -4 30 -3 11 12 -11 8 -38 24 -60
34 -22 10 -35 19 -30 19 6 0 3 5 -5 10 -9 6 -134 10 -314 9 -293 0 -298 0
-281 -19 10 -11 22 -17 27 -13 6 3 14 -1 19 -8 12 -20 11 -31 -3 -23 -7 4 -8
3 -4 -5 4 -6 12 -9 17 -5 5 3 24 -25 42 -63 34 -73 33 -57 27 -298 -1 -50 -27
-164 -31 -135 -5 41 -3 82 4 87 4 2 7 13 7 23 0 14 -5 18 -17 13 -17 -7 -17
-5 -2 17 16 25 15 55 -1 45 -14 -9 -60 14 -60 29 0 7 7 17 15 20 19 7 11 25
-31 71 -24 28 -26 28 -19 6 5 -15 4 -21 -3 -17 -6 3 -13 -2 -15 -11 -4 -17 -5
-17 -6 0 0 9 -5 17 -11 17 -5 0 -10 7 -10 15 0 8 -4 15 -9 15 -8 0 -26 80 -24
107 0 6 -6 9 -14 6 -9 -4 -14 0 -13 8 4 28 0 36 -25 47 -42 19 -72 15 -79 -11
-6 -25 -46 -35 -46 -11 0 8 5 14 10 14 14 0 13 27 -2 36 -7 4 -8 3 -4 -4 5 -8
-2 -12 -21 -12 -22 0 -25 2 -13 10 12 7 12 13 4 27 -10 15 -28 18 -130 20
-111 3 -118 2 -99 -13 16 -14 17 -16 3 -11 -21 7 -25 -8 -4 -16 7 -3 19 0 25
6 6 6 11 8 11 3 0 -4 -7 -14 -15 -23 -8 -8 -12 -20 -8 -26 5 -8 9 -6 11 6 4
19 26 18 28 -1 1 -7 3 -15 4 -19 1 -5 2 -12 0 -18 -1 -5 7 -2 18 8 15 14 21
15 29 5 15 -19 12 -47 -4 -41 -7 3 -13 0 -13 -7 0 -6 -4 -8 -10 -5 -5 3 -10
-3 -10 -14 0 -12 7 -21 15 -21 17 0 14 -9 -27 -99 -16 -35 -36 -70 -44 -78 -8
-8 -14 -25 -14 -38 0 -13 -3 -30 -6 -38 -3 -9 7 -22 29 -34 19 -11 47 -40 63
-64 16 -24 50 -64 76 -89 50 -50 86 -129 65 -142 -22 -14 -43 -8 -67 17 -13
14 -42 30 -64 36 -23 6 -63 18 -89 26 -26 8 -54 12 -63 9 -13 -5 -13 -9 1 -36
14 -27 14 -33 0 -60 -8 -16 -15 -48 -15 -72 0 -46 -29 -151 -47 -169 -15 -15
-71 12 -108 51 -27 28 -28 30 -15 77 7 26 22 58 32 69 14 16 17 27 10 40 -19
38 -31 88 -23 93 5 4 11 15 14 26 4 18 5 18 6 -2 2 -35 28 -27 42 11 12 33 53
66 82 66 20 0 87 39 87 51 0 15 -58 39 -97 39 -21 0 -69 -8 -106 -19 -37 -10
-67 -15 -67 -12 0 4 -11 11 -25 17 -67 25 -292 272 -235 257 11 -3 20 -1 20 4
0 5 11 15 25 21 16 8 25 19 23 29 -2 13 3 18 20 17 12 0 22 3 22 8 0 9 57 5
67 -5 14 -15 33 -6 39 18 3 14 10 25 14 25 16 0 41 33 36 47 -3 8 -1 11 4 8 6
-3 10 0 10 8 0 8 7 20 16 27 8 8 20 22 25 32 9 16 5 18 -46 18 -48 0 -55 -3
-55 -19 0 -11 -4 -23 -10 -26 -6 -4 -9 4 -7 17 2 23 2 23 -141 26 -96 2 -141
-1 -137 -8 3 -5 2 -10 -4 -10 -5 0 -13 5 -16 10 -3 6 -31 10 -60 10 -43 0 -53
-3 -49 -14 4 -11 -1 -13 -29 -6 -47 10 -66 -2 -36 -24 20 -14 22 -18 9 -27 -8
-5 -32 -8 -52 -7 -21 2 -38 2 -38 0 0 -3 17 -27 37 -56 l36 -51 -41 40 c-23
21 -42 45 -42 51 0 7 -5 16 -11 20 -7 4 -9 -2 -7 -17 3 -21 -1 -24 -35 -27
-25 -2 -35 -7 -31 -15 5 -9 4 -9 -5 -1 -15 14 -4 44 16 44 9 0 28 12 42 28 15
15 38 35 51 44 24 16 16 17 -172 17 l-198 1 0 -305z m1445 276 c-3 -6 -11 -11
-17 -11 -6 0 -6 6 2 15 14 17 26 13 15 -4z m335 9 c0 -5 -2 -10 -4 -10 -3 0
-8 5 -11 10 -3 6 -1 10 4 10 6 0 11 -4 11 -10z m-475 -10 c3 -5 4 -10 1 -10
-3 0 -8 5 -11 10 -3 6 -4 10 -1 10 3 0 8 -4 11 -10z m30 0 c3 -5 1 -10 -4 -10
-6 0 -11 5 -11 10 0 6 2 10 4 10 3 0 8 -4 11 -10z m5 -30 c0 -5 -2 -10 -4 -10
-3 0 -8 5 -11 10 -3 6 -1 10 4 10 6 0 11 -4 11 -10z m-33 -32 c-3 -8 -6 -5 -6
6 -1 11 2 17 5 13 3 -3 4 -12 1 -19z m63 0 c0 -18 -2 -20 -9 -8 -6 8 -7 18 -5
22 9 14 14 9 14 -14z m-1073 -55 c-4 -3 -10 -3 -14 0 -3 4 0 7 7 7 7 0 10 -3
7 -7z m-40 -40 c-4 -3 -7 0 -7 7 0 7 3 10 7 7 3 -4 3 -10 0 -14z m42 -56 l24
-27 -41 17 c-37 16 -40 19 -25 30 9 7 17 12 17 10 1 -1 12 -14 25 -30z m271 3
c8 -5 11 -10 5 -11 -5 0 -20 -2 -32 -3 -14 -2 -19 2 -16 11 6 15 22 17 43 3z
m1137 -62 c-3 -8 -6 -5 -6 6 -1 11 2 17 5 13 3 -3 4 -12 1 -19z m-101 -33 c-3
-8 -1 -15 4 -15 10 0 5 -73 -6 -91 -3 -5 1 -9 8 -9 10 0 10 -2 -1 -9 -12 -8
-10 -16 7 -50 12 -23 22 -43 22 -44 0 -7 -48 1 -75 12 -16 7 -37 14 -46 16
-46 9 -89 65 -76 99 8 20 107 86 129 86 9 0 20 5 23 10 10 15 18 12 11 -5z
m131 -22 c-4 -3 -7 0 -7 7 0 7 3 10 7 7 3 -4 3 -10 0 -14z m-1450 -13 c-3 -11
-1 -20 4 -20 5 0 9 -8 9 -17 0 -15 -2 -16 -10 -3 -13 20 -13 4 1 -21 12 -23 3
-59 -15 -59 -7 0 -22 -17 -35 -37 -12 -21 -20 -30 -17 -20 3 9 4 17 1 17 -7 0
-66 -92 -61 -97 2 -2 12 9 22 26 10 16 21 28 25 25 5 -3 -1 -14 -12 -25 -11
-11 -18 -26 -16 -33 3 -7 -3 -17 -13 -24 -15 -9 -17 -8 -13 9 3 11 0 19 -6 19
-7 0 -9 5 -6 10 3 6 -2 10 -12 10 -11 0 -19 8 -20 19 -2 22 25 37 40 22 12
-12 42 29 72 94 10 22 21 44 23 49 3 5 0 6 -6 2 -23 -14 -12 21 14 48 32 31
38 32 31 6z m1553 -39 c0 -6 -4 -13 -10 -16 -5 -3 -10 1 -10 9 0 9 5 16 10 16
6 0 10 -4 10 -9z m-39 -24 c-10 -9 -11 -8 -5 6 3 10 9 15 12 12 3 -3 0 -11 -7
-18z m46 -34 c-4 -3 -10 -3 -14 0 -3 4 0 7 7 7 7 0 10 -3 7 -7z m-1469 -233
c-5 -11 -8 -8 -9 10 -1 14 -3 41 -5 60 -1 19 0 62 4 95 7 58 7 57 12 -45 3
-58 2 -112 -2 -120z m738 142 c-17 -33 -44 -36 -76 -7 -26 24 -11 35 48 35
l43 0 -15 -28z m-671 -37 c-3 -26 -9 -45 -12 -42 -2 3 -1 26 2 52 4 25 10 44
12 41 3 -3 2 -26 -2 -51z m2322 38 c-4 -3 -7 0 -7 7 0 7 3 10 7 7 3 -4 3 -10
0 -14z m-1116 -26 c-7 -7 -14 -8 -21 -1 -6 6 -2 10 12 11 16 2 18 -1 9 -10z
m-1542 -48 c1 -4 -5 -9 -12 -12 -10 -4 -12 3 -9 27 4 27 6 28 13 11 4 -11 8
-23 8 -26z m520 -19 c1 -13 0 -13 -9 0 -5 8 -9 24 -9 35 0 20 0 20 9 0 5 -11
9 -27 9 -35z m1212 16 c-14 -36 -22 -33 -9 5 6 16 12 28 14 26 3 -2 0 -16 -5
-31z m-1424 7 c-4 -3 -7 0 -7 7 0 7 3 10 7 7 3 -4 3 -10 0 -14z m2120 0 c-4
-3 -10 -3 -14 0 -3 4 0 7 7 7 7 0 10 -3 7 -7z m-1567 -33 c0 -11 -2 -20 -4
-20 -2 0 -6 9 -9 20 -3 11 -1 20 4 20 5 0 9 -9 9 -20z m-233 3 c-4 -3 -10 -3
-14 0 -3 4 0 7 7 7 7 0 10 -3 7 -7z m1767 -4 c-4 -8 -1 -8 12 -1 14 7 24 6 37
-3 18 -13 24 -31 7 -20 -5 3 -10 -1 -10 -9 0 -8 -6 -21 -13 -28 -7 -7 -18 -25
-24 -40 -7 -16 -19 -28 -28 -28 -17 0 -20 -11 -5 -26 8 -8 6 -15 -5 -24 -8 -7
-15 -21 -15 -31 0 -11 -5 -19 -11 -19 -5 0 -8 -4 -4 -9 3 -6 -4 -8 -15 -6 -11
2 -20 -2 -20 -8 0 -8 -3 -8 -8 -2 -4 6 -12 11 -19 12 -20 4 -3 -26 18 -32 11
-4 17 -11 14 -16 -7 -10 -54 -7 -73 5 -13 8 -17 27 -4 25 21 -4 23 3 7 21 -17
19 -17 21 -2 38 10 10 17 31 17 45 0 15 3 26 8 26 26 -4 33 2 17 18 -16 16
-16 17 1 30 18 13 42 17 99 15 17 0 22 2 13 4 -10 3 -18 10 -18 15 0 6 -4 8
-9 4 -6 -3 -15 4 -21 15 -10 18 -7 24 13 21 4 0 7 4 7 9 0 6 9 10 21 10 12 0
17 -4 13 -11z m-1704 -15 c0 -8 -19 -13 -24 -6 -3 5 1 9 9 9 8 0 15 -2 15 -3z
m77 -36 c-3 -8 -6 -5 -6 6 -1 11 2 17 5 13 3 -3 4 -12 1 -19z m-120 -5 c-4 -3
-7 0 -7 7 0 7 3 10 7 7 3 -4 3 -10 0 -14z m794 -4 c16 -8 18 -13 8 -25 -9 -11
-9 -17 0 -28 18 -21 -8 -26 -46 -8 -28 14 -30 17 -21 43 11 31 27 36 59 18z
m-1170 -76 c2 -39 7 -69 11 -67 11 7 10 -4 -3 -29 -7 -11 -11 -53 -11 -91 1
-55 -1 -66 -9 -47 -13 33 -13 49 1 310 0 2 2 2 4 0 3 -2 6 -36 7 -76z m38 25
c-3 -60 -8 -80 -19 -73 -4 2 -3 26 1 52 4 26 8 54 8 61 1 6 4 12 7 12 3 0 4
-24 3 -52z m-142 -10 c-3 -7 -5 -2 -5 12 0 14 2 19 5 13 2 -7 2 -19 0 -25z
m160 10 c-3 -8 -6 -5 -6 6 -1 11 2 17 5 13 3 -3 4 -12 1 -19z m1309 -5 c-4
-16 -14 -33 -22 -39 -12 -10 -11 -12 8 -18 13 -3 25 -1 26 4 2 6 11 10 19 10
13 0 13 -2 2 -16 -12 -15 -11 -16 10 -9 16 5 21 4 17 -4 -4 -6 0 -11 11 -11
12 -1 8 -5 -12 -14 -48 -21 -122 -4 -173 39 -9 8 -26 21 -37 29 -19 14 -19 15
10 21 17 3 53 12 80 19 69 19 68 19 61 -11z m-528 -80 c-9 -11 -9 -17 3 -25
11 -7 11 -11 2 -15 -7 -2 -13 -11 -13 -19 0 -8 -4 -14 -10 -14 -5 0 -7 7 -4
15 4 8 1 15 -5 15 -15 0 -14 38 1 54 18 19 43 9 26 -11z m1302 -43 c0 -5 -5
-10 -11 -10 -5 0 -7 5 -4 10 3 6 8 10 11 10 2 0 4 -4 4 -10z m-2225 -101 c5
-54 -1 -50 -23 18 -7 23 -7 33 2 36 15 6 15 7 21 -54z m647 6 c-2 -15 3 -36
14 -52 11 -16 20 -48 22 -73 2 -49 7 -91 12 -102 8 -22 5 -75 -6 -88 -17 -23
-6 -88 17 -95 10 -4 19 -11 19 -16 0 -5 9 -13 20 -17 18 -7 14 -14 -40 -84
-98 -125 -156 -252 -130 -283 18 -21 -48 -8 -83 17 -66 46 -83 63 -152 148
-60 74 -81 139 -63 194 6 17 14 35 18 39 4 5 6 26 3 47 -5 34 -3 38 21 42 36
7 56 -17 30 -37 -18 -14 -18 -14 3 -15 14 0 31 12 45 30 16 22 24 27 30 18 6
-10 8 -10 8 0 0 19 61 70 93 77 34 8 47 32 47 83 0 25 14 68 36 116 20 42 37
76 39 76 1 0 0 -11 -3 -25z m1442 -3 c2 -4 -9 -8 -25 -8 -27 -2 -38 13 -23 29
7 7 40 -8 48 -21z m-1303 -57 c28 -6 30 -9 24 -38 -10 -45 -31 -65 -53 -51
-18 11 -80 119 -81 142 -1 7 17 -1 40 -17 22 -16 54 -33 70 -36z m1272 19 c11
-11 -3 -24 -18 -18 -8 4 -12 10 -9 15 6 11 18 12 27 3z m-1676 -121 c-4 -3
-10 -3 -14 0 -3 4 0 7 7 7 7 0 10 -3 7 -7z m-4 -62 c5 -22 -14 -34 -38 -25
-21 8 -19 -13 3 -25 15 -9 13 -10 -10 -11 -15 0 -30 5 -33 10 -3 6 -2 10 4 10
5 0 13 10 17 23 12 39 48 50 57 18z m477 9 c0 -5 -2 -10 -4 -10 -3 0 -8 5 -11
10 -3 6 -1 10 4 10 6 0 11 -4 11 -10z m-23 -96 c-10 -10 -29 17 -22 32 6 17 8
17 16 -5 5 -13 8 -25 6 -27z m1711 34 c16 -16 15 -28 -3 -28 -8 0 -14 6 -12
13 1 6 -4 11 -11 9 -8 -1 -11 2 -7 8 8 13 18 13 33 -2z m-179 -54 c-6 -7 -8
-18 -5 -23 4 -5 2 -12 -3 -16 -14 -8 -33 29 -20 42 15 15 41 13 28 -3z m-65
-9 c-4 -8 -1 -15 6 -15 9 0 10 -4 2 -13 -6 -7 -8 -24 -5 -37 4 -16 3 -21 -6
-16 -6 4 -9 11 -6 16 3 4 -6 22 -20 38 -27 33 -27 37 9 40 19 1 24 -2 20 -13z
m-81 -93 c10 -25 15 -47 13 -50 -3 -2 -10 8 -16 24 -16 45 -44 94 -52 94 -5 0
-8 8 -8 18 1 24 40 -29 63 -86z m7 88 c-12 -8 -12 -10 2 -15 19 -7 38 -55 38
-94 0 -36 -17 -9 -26 42 -3 21 -12 41 -19 43 -23 9 -24 30 -2 32 17 1 18 -1 7
-8z m337 -7 c-4 -3 -7 0 -7 7 0 7 3 10 7 7 3 -4 3 -10 0 -14z m-1732 -13 c3
-5 4 -10 1 -10 -3 0 -8 5 -11 10 -3 6 -4 10 -1 10 3 0 8 -4 11 -10z m1702 -22
c-3 -8 -6 -5 -6 6 -1 11 2 17 5 13 3 -3 4 -12 1 -19z m20 0 c-3 -8 -6 -5 -6 6
-1 11 2 17 5 13 3 -3 4 -12 1 -19z m-47 -2 c0 -3 -4 -8 -10 -11 -5 -3 -10 -1
-10 4 0 6 5 11 10 11 6 0 10 -2 10 -4z m-133 -20 c-3 -8 -1 -16 5 -18 7 -3 8
-10 3 -18 -6 -10 -10 -8 -17 9 -4 13 -6 27 -2 32 8 14 17 10 11 -5z m-173 -50
c9 -19 16 -42 16 -53 -1 -10 -7 0 -15 21 -8 22 -21 44 -30 48 -8 5 -13 14 -10
19 9 14 21 4 39 -35z m239 19 c-7 -21 -13 -19 -13 6 0 11 4 18 10 14 5 -3 7
-12 3 -20z m124 8 c-4 -3 -7 0 -7 7 0 7 3 10 7 7 3 -4 3 -10 0 -14z m-52 -3
c3 -5 4 -10 1 -10 -3 0 -8 5 -11 10 -3 6 -4 10 -1 10 3 0 8 -4 11 -10z m32
-12 c-3 -8 -6 -5 -6 6 -1 11 2 17 5 13 3 -3 4 -12 1 -19z m-217 8 c0 -3 -4 -8
-10 -11 -5 -3 -10 -1 -10 4 0 6 5 11 10 11 6 0 10 -2 10 -4z m-1520 -10 c0 -2
-7 -7 -16 -10 -8 -3 -12 -2 -9 4 6 10 25 14 25 6z m101 -13 c21 -10 39 -21 39
-25 0 -3 -20 -13 -44 -21 l-44 -15 -5 26 c-5 26 0 52 11 52 3 0 23 -8 43 -17z
m856 0 c-4 -3 -7 0 -7 7 0 7 3 10 7 7 3 -4 3 -10 0 -14z m810 -15 c-3 -8 -6
-5 -6 6 -1 11 2 17 5 13 3 -3 4 -12 1 -19z m-60 -5 c-4 -3 -7 0 -7 7 0 7 3 10
7 7 3 -4 3 -10 0 -14z m-169 -23 c0 -3 1 -7 2 -10 7 -18 9 -47 4 -60 -7 -19
-34 42 -34 77 0 20 2 22 14 11 8 -7 14 -15 14 -18z m53 16 c9 5 11 -4 11 -51
0 -41 -4 -42 -12 -5 -4 19 -9 42 -12 50 -3 8 -3 12 -1 7 3 -4 9 -5 14 -1z
m-116 -5 c-3 -5 0 -13 6 -16 5 -4 8 -13 5 -20 -3 -8 -1 -15 5 -17 5 -2 12 -23
15 -48 8 -58 1 -50 -25 27 -24 71 -25 83 -10 83 5 0 8 -4 4 -9z m-38 -33 c-3
-7 -5 -2 -5 12 0 14 2 19 5 13 2 -7 2 -19 0 -25z m223 -9 c0 -5 -4 -9 -10 -9
-5 0 -10 7 -10 16 0 8 5 12 10 9 6 -3 10 -10 10 -16z m64 -5 c10 -38 0 -41
-12 -5 -6 17 -7 31 -3 31 5 0 12 -12 15 -26z m46 12 c0 -3 -5 -8 -12 -12 -7
-4 -8 -3 -4 4 7 12 16 16 16 8z m-311 -49 c0 -21 -1 -21 -9 -2 -12 28 -12 37
0 30 6 -3 10 -16 9 -28z m213 9 c7 4 8 2 4 -5 -9 -13 -26 -5 -25 12 0 9 2 8 6
-1 2 -6 10 -9 15 -6z m-112 -48 c0 -18 -2 -20 -9 -8 -6 8 -7 18 -5 22 9 14 14
9 14 -14z m5 -38 c3 -5 4 -10 1 -10 -3 0 -8 5 -11 10 -3 6 -4 10 -1 10 3 0 8
-4 11 -10z m194 -35 c0 -5 -4 -3 -9 5 -5 8 -9 22 -9 30 0 16 17 -16 18 -35z
m-1942 -22 c-4 -3 -7 0 -7 7 0 7 3 10 7 7 3 -4 3 -10 0 -14z m1950 -20 c-4 -3
-7 0 -7 7 0 7 3 10 7 7 3 -4 3 -10 0 -14z m-1970 -39 c-9 -17 -17 -23 -21 -15
-4 6 -3 11 2 11 6 0 13 12 17 28 4 15 9 22 12 15 2 -6 -2 -24 -10 -39z m1940
9 c-4 -3 -7 0 -7 7 0 7 3 10 7 7 3 -4 3 -10 0 -14z m23 -46 c0 -5 -4 -5 -10
-2 -5 3 -10 14 -10 23 0 15 2 15 10 2 5 -8 10 -19 10 -23z m-1590 -12 c7 -9 8
-15 2 -15 -5 0 -12 7 -16 15 -3 8 -4 15 -2 15 2 0 9 -7 16 -15z m1619 -97 c10
-32 15 -58 11 -58 -9 0 -21 27 -25 55 -2 11 -6 34 -9 50 -8 39 -1 24 23 -47z
m-1216 -260 c-5 -10 -33 10 -33 23 0 5 9 4 19 -3 11 -7 17 -16 14 -20z m924
15 c-4 -3 -10 -3 -14 0 -3 4 0 7 7 7 7 0 10 -3 7 -7z m143 -113 c0 -5 -4 -10
-10 -10 -5 0 -10 5 -10 10 0 6 5 10 10 10 6 0 10 -4 10 -10z m217 -207 c-4 -3
-10 -3 -14 0 -3 4 0 7 7 7 7 0 10 -3 7 -7z m-159 -839 c18 -8 32 -21 32 -27 0
-7 4 -6 10 3 9 13 10 13 10 0 0 -13 2 -13 9 -1 7 11 19 3 55 -33 25 -27 46
-54 46 -61 0 -8 -15 -17 -35 -21 -19 -3 -32 -10 -29 -15 9 -15 -8 -10 -28 8
-10 9 -28 17 -41 18 -18 2 -21 7 -19 29 3 30 -5 33 -23 9 -9 -13 -14 -13 -20
-3 -5 9 -4 11 3 6 7 -4 12 -3 12 2 0 6 -6 12 -14 15 -12 5 -15 38 -7 80 2 10
3 9 39 -9z m-1134 -210 c9 -8 20 -12 26 -9 15 9 12 -44 -4 -60 -7 -8 -23 -13
-35 -12 -18 1 -21 7 -21 49 0 50 8 58 34 32z"/>
<path d="M1599 3463 c-13 -16 -12 -17 4 -4 9 7 17 15 17 17 0 8 -8 3 -21 -13z"/>
<path d="M2500 3300 c0 -7 3 -10 7 -7 3 4 3 10 0 14 -4 3 -7 0 -7 -7z"/>
<path d="M866 2365 c-9 -26 -7 -32 5 -12 6 10 9 21 6 23 -2 3 -7 -2 -11 -11z"/>
<path d="M837 2303 c-4 -3 -7 -11 -7 -17 0 -6 5 -5 12 2 6 6 9 14 7 17 -3 3
-9 2 -12 -2z"/>
<path d="M2858 573 c6 -2 18 -2 25 0 6 3 1 5 -13 5 -14 0 -19 -2 -12 -5z"/>
<path d="M2903 563 c4 -3 10 -3 14 0 3 4 0 7 -7 7 -7 0 -10 -3 -7 -7z"/>
<path d="M1643 433 c4 -3 10 -3 14 0 3 4 0 7 -7 7 -7 0 -10 -3 -7 -7z"/>
<path d="M2416 3985 c4 -8 11 -15 16 -15 6 0 5 6 -2 15 -7 8 -14 15 -16 15 -2
0 -1 -7 2 -15z"/>
<path d="M1223 3943 c4 -3 10 -3 14 0 3 4 0 7 -7 7 -7 0 -10 -3 -7 -7z"/>
<path d="M1795 3650 c-7 -12 -7 -12 23 -15 18 -2 20 0 11 11 -14 17 -25 18
-34 4z"/>
<path d="M50 3380 c0 -5 5 -10 11 -10 5 0 7 5 4 10 -3 6 -8 10 -11 10 -2 0 -4
-4 -4 -10z"/>
<path d="M35 3360 c3 -5 8 -10 11 -10 3 0 2 5 -1 10 -3 6 -8 10 -11 10 -3 0
-2 -4 1 -10z"/>
<path d="M123 3233 c4 -3 10 -3 14 0 3 4 0 7 -7 7 -7 0 -10 -3 -7 -7z"/>
<path d="M88 3103 c7 -3 16 -2 19 1 4 3 -2 6 -13 5 -11 0 -14 -3 -6 -6z"/>
<path d="M173 2783 c4 -3 10 -3 14 0 3 4 0 7 -7 7 -7 0 -10 -3 -7 -7z"/>
<path d="M171 2762 c-15 -5 -14 -27 2 -40 15 -13 43 1 33 17 -5 7 -1 9 9 5 11
-5 14 -2 9 9 -5 15 -26 18 -53 9z m16 -17 c0 -8 -4 -12 -9 -9 -5 3 -6 10 -3
15 9 13 12 11 12 -6z"/>
<path d="M540 2640 c0 -7 3 -10 7 -7 3 4 3 10 0 14 -4 3 -7 0 -7 -7z"/>
<path d="M163 2603 c4 -3 10 -3 14 0 3 4 0 7 -7 7 -7 0 -10 -3 -7 -7z"/>
<path d="M2118 2536 c-12 -9 -14 -16 -7 -23 8 -8 7 -13 -1 -18 -15 -9 6 -35
30 -35 10 0 20 -9 23 -21 4 -16 10 -19 29 -14 13 4 25 9 27 11 9 8 -18 27 -41
29 -13 1 -30 3 -38 4 -13 1 -13 3 0 10 8 6 18 7 22 5 5 -3 11 1 14 10 3 9 12
12 22 8 15 -5 15 -4 -1 12 -10 10 -21 16 -24 12 -4 -3 -13 0 -22 8 -13 12 -19
12 -33 2z"/>
<path d="M2208 2533 c7 -3 16 -2 19 1 4 3 -2 6 -13 5 -11 0 -14 -3 -6 -6z"/>
<path d="M2223 2513 c4 -3 10 -3 14 0 3 4 0 7 -7 7 -7 0 -10 -3 -7 -7z"/>
<path d="M2013 2478 c-24 -12 -41 -23 -39 -25 4 -5 96 35 96 42 0 9 -14 5 -57
-17z"/>
<path d="M2073 2463 c4 -3 10 -3 14 0 3 4 0 7 -7 7 -7 0 -10 -3 -7 -7z"/>
<path d="M2090 2440 c-8 -5 -11 -12 -7 -16 4 -4 13 -2 19 4 15 15 7 24 -12 12z"/>
<path d="M2290 2443 c0 -14 43 -63 55 -63 6 0 6 3 0 8 -6 4 -21 20 -33 36 -12
16 -22 24 -22 19z"/>
<path d="M1904 2425 c-19 -14 -19 -14 2 -15 12 0 24 7 28 15 7 19 -5 19 -30 0z"/>
<path d="M2004 2428 c-4 -7 -3 -8 4 -4 7 4 12 9 12 12 0 8 -9 4 -16 -8z"/>
<path d="M1810 2420 c-8 -5 -11 -12 -7 -16 4 -4 13 -2 19 4 15 15 7 24 -12 12z"/>
<path d="M2040 2410 c0 -5 5 -10 10 -10 6 0 10 5 10 10 0 6 -4 10 -10 10 -5 0
-10 -4 -10 -10z"/>
<path d="M2216 2404 c-8 -21 -8 -24 5 -24 5 0 7 5 4 10 -3 6 -1 10 4 10 6 0
11 5 11 10 0 16 -17 12 -24 -6z"/>
<path d="M1945 2400 c4 -6 11 -8 16 -5 14 9 11 15 -7 15 -8 0 -12 -5 -9 -10z"/>
<path d="M2105 2400 c3 -5 11 -10 16 -10 6 0 7 5 4 10 -3 6 -11 10 -16 10 -6
0 -7 -4 -4 -10z"/>
<path d="M1712 2385 c-33 -14 -43 -35 -17 -35 8 0 15 5 15 11 0 6 6 9 13 6 19
-7 38 6 29 20 -5 8 -16 8 -40 -2z"/>
<path d="M1843 2393 c4 -3 10 -3 14 0 3 4 0 7 -7 7 -7 0 -10 -3 -7 -7z"/>
<path d="M361 2378 c-1 -10 4 -18 9 -18 6 0 9 -10 7 -22 -2 -13 -2 -17 0 -10
3 7 8 10 13 7 5 -3 12 -1 15 5 8 13 -14 42 -25 35 -5 -3 -11 1 -13 7 -3 8 -6
6 -6 -4z"/>
<path d="M2073 2383 c4 -3 10 -3 14 0 3 4 0 7 -7 7 -7 0 -10 -3 -7 -7z"/>
<path d="M2130 2380 c-8 -5 -12 -11 -9 -14 3 -3 14 1 25 9 21 16 8 20 -16 5z"/>
<path d="M1963 2373 c4 -3 10 -3 14 0 3 4 0 7 -7 7 -7 0 -10 -3 -7 -7z"/>
<path d="M340 2360 c0 -7 3 -10 7 -7 3 4 3 10 0 14 -4 3 -7 0 -7 -7z"/>
<path d="M1730 2348 c-22 -10 -23 -12 -6 -15 10 -3 26 2 34 11 19 18 8 20 -28
4z"/>
<path d="M1905 2350 c-3 -5 -1 -10 4 -10 6 0 11 5 11 10 0 6 -2 10 -4 10 -3 0
-8 -4 -11 -10z"/>
<path d="M2275 2350 c-3 -5 1 -10 10 -10 9 0 13 5 10 10 -3 6 -8 10 -10 10 -2
0 -7 -4 -10 -10z"/>
<path d="M2370 2341 c0 -10 19 -25 25 -20 1 2 -3 10 -11 17 -8 7 -14 8 -14 3z"/>
<path d="M1783 2333 c-7 -2 -13 -8 -13 -13 0 -10 38 -1 46 11 6 10 -13 11 -33
2z"/>
<path d="M1673 2313 c4 -3 10 -3 14 0 3 4 0 7 -7 7 -7 0 -10 -3 -7 -7z"/>
<path d="M1820 2310 c0 -5 4 -10 9 -10 6 0 13 5 16 10 3 6 -1 10 -9 10 -9 0
-16 -4 -16 -10z"/>
<path d="M1618 2303 c-10 -2 -18 -9 -18 -14 0 -12 10 -11 40 6 24 14 14 18
-22 8z"/>
<path d="M1728 2303 c7 -3 16 -2 19 1 4 3 -2 6 -13 5 -11 0 -14 -3 -6 -6z"/>
<path d="M1850 2279 c0 -5 5 -7 10 -4 6 3 10 8 10 11 0 2 -4 4 -10 4 -5 0 -10
-5 -10 -11z"/>
<path d="M1663 2273 c4 -3 10 -3 14 0 3 4 0 7 -7 7 -7 0 -10 -3 -7 -7z"/>
<path d="M1600 2250 c-8 -5 -10 -10 -5 -10 6 0 17 5 25 10 8 5 11 10 5 10 -5
0 -17 -5 -25 -10z"/>
<path d="M2450 2239 c0 -5 5 -7 10 -4 6 3 10 8 10 11 0 2 -4 4 -10 4 -5 0 -10
-5 -10 -11z"/>
<path d="M5 2219 c-8 -13 -6 -15 24 -24 16 -5 21 -4 17 4 -4 6 -15 11 -24 12
-14 0 -13 2 3 9 16 7 17 9 3 9 -9 1 -20 -4 -23 -10z"/>
<path d="M1500 2211 c0 -5 9 -7 20 -4 11 3 20 7 20 9 0 2 -9 4 -20 4 -11 0
-20 -4 -20 -9z"/>
<path d="M1524 2189 c-9 -15 12 -17 30 -4 17 13 17 14 -4 12 -12 -1 -24 -5
-26 -8z"/>
<path d="M50 2170 c0 -5 5 -10 11 -10 5 0 7 5 4 10 -3 6 -8 10 -11 10 -2 0 -4
-4 -4 -10z"/>
<path d="M1600 2170 c-9 -6 -10 -10 -3 -10 6 0 15 5 18 10 8 12 4 12 -15 0z"/>
<path d="M2462 2129 c2 -7 10 -15 17 -17 8 -3 12 1 9 9 -2 7 -10 15 -17 17 -8
3 -12 -1 -9 -9z"/>
<path d="M2973 2023 c4 -3 10 -3 14 0 3 4 0 7 -7 7 -7 0 -10 -3 -7 -7z"/>
<path d="M1155 1890 c-34 -55 -26 -63 9 -9 15 22 25 43 22 46 -2 3 -16 -14
-31 -37z"/>
<path d="M2465 1880 c-3 -5 1 -10 9 -10 9 0 16 5 16 10 0 6 -4 10 -9 10 -6 0
-13 -4 -16 -10z"/>
<path d="M2493 1843 c4 -3 10 -3 14 0 3 4 0 7 -7 7 -7 0 -10 -3 -7 -7z"/>
<path d="M2525 1820 c-3 -5 -2 -10 4 -10 5 0 13 5 16 10 3 6 2 10 -4 10 -5 0
-13 -4 -16 -10z"/>
<path d="M2627 1785 c-13 -9 -15 -15 -7 -20 7 -4 19 -1 27 8 19 19 3 29 -20
12z"/>
<path d="M596 1745 c-4 -11 3 -19 21 -26 49 -18 74 8 28 29 -34 16 -42 15 -49
-3z m41 -12 c-4 -3 -10 -3 -14 0 -3 4 0 7 7 7 7 0 10 -3 7 -7z"/>
<path d="M2580 1750 c0 -7 3 -10 7 -7 3 4 3 10 0 14 -4 3 -7 0 -7 -7z"/>
<path d="M671 1694 c-12 -19 -21 -37 -21 -38 0 -2 14 -10 32 -17 31 -13 38
-10 40 18 1 5 8 13 17 20 13 10 14 14 3 25 -11 11 -15 10 -23 -2 -9 -13 -10
-13 -6 2 11 33 -22 27 -42 -8z"/>
<path d="M529 1651 l-17 -29 86 -42 86 -42 18 22 c10 12 18 26 18 31 0 13
-144 78 -148 68 -2 -5 -8 -9 -13 -9 -4 0 -6 7 -3 15 11 26 -10 16 -27 -14z"/>
<path d="M767 1673 c-13 -12 -7 -21 22 -33 48 -20 72 7 26 28 -30 14 -39 15
-48 5z"/>
<path d="M841 1611 c-12 -16 -21 -31 -21 -34 0 -2 14 -10 31 -17 29 -12 33
-12 50 11 10 13 19 29 19 35 0 16 -26 25 -47 17 -11 -4 -14 -3 -9 5 15 25 -3
11 -23 -17z m6 -28 c-4 -3 -10 -3 -14 0 -3 4 0 7 7 7 7 0 10 -3 7 -7z"/>
<path d="M448 1533 l-47 -68 35 -18 c20 -10 37 -17 38 -15 28 44 36 60 30 69
-3 6 1 18 9 27 8 9 18 28 22 41 6 21 5 23 -13 19 -12 -3 -22 -2 -24 4 -2 5
-24 -21 -50 -59z m27 -32 c3 -6 -4 -9 -15 -8 -11 1 -20 5 -20 9 0 11 28 10 35
-1z"/>
<path d="M934 1588 c-4 -7 -14 -23 -22 -35 -14 -22 -12 -24 29 -42 50 -21 54
-20 74 19 14 26 13 28 -5 23 -15 -4 -19 -1 -15 10 4 8 -1 17 -9 20 -9 4 -16 2
-16 -3 0 -5 -7 -7 -16 -3 -13 5 -13 7 -2 14 9 6 9 9 1 9 -6 0 -15 -6 -19 -12z"/>
<path d="M726 1565 c-22 -34 -20 -42 13 -53 25 -9 32 -7 51 15 12 14 20 26 18
28 -2 1 -17 10 -35 18 -30 16 -32 16 -47 -8z"/>
<path d="M543 1544 c-16 -25 -16 -27 2 -40 28 -21 51 -17 69 11 16 24 15 25
-13 40 -38 19 -38 20 -58 -11z"/>
<path d="M809 1519 c-12 -17 -20 -31 -18 -33 2 -1 17 -8 33 -15 27 -11 32 -10
48 11 20 26 18 44 -5 42 -9 -1 -15 2 -12 6 3 4 -2 10 -10 14 -9 3 -23 -7 -36
-25z"/>
<path d="M1043 1538 c-6 -7 -15 -23 -22 -35 -11 -21 -6 -25 96 -74 262 -127
312 -148 320 -136 31 48 32 57 10 72 -12 8 -24 15 -28 15 -4 0 -86 38 -183 85
-97 47 -178 85 -180 85 -2 0 -8 -6 -13 -12z"/>
<path d="M627 1501 c-18 -31 -16 -34 25 -50 22 -8 28 -5 47 19 l21 29 -29 16
c-40 20 -44 20 -64 -14z m43 -10 c0 -6 -4 -13 -10 -16 -5 -3 -10 1 -10 9 0 9
5 16 10 16 6 0 10 -4 10 -9z"/>
<path d="M897 1480 c-22 -36 -22 -35 14 -50 29 -12 33 -12 50 11 26 34 22 46
-13 40 -5 0 -8 3 -8 8 0 22 -28 17 -43 -9z"/>
<path d="M516 1465 c-25 -37 -23 -45 11 -60 31 -13 33 -13 54 16 12 17 20 32
18 33 -2 2 -18 11 -36 19 -30 16 -32 16 -47 -8z"/>
<path d="M715 1459 c-9 -17 -15 -32 -13 -33 2 -1 16 -8 32 -15 27 -11 32 -10
48 11 24 31 23 35 -12 53 -38 20 -37 20 -55 -16z m45 -8 c0 -6 -4 -13 -10 -16
-5 -3 -10 1 -10 9 0 9 5 16 10 16 6 0 10 -4 10 -9z"/>
<path d="M985 1440 c-19 -37 -20 -35 16 -50 29 -12 33 -12 49 11 22 28 20 33
-20 53 -29 14 -31 14 -45 -14z m45 -21 c0 -5 -7 -9 -15 -9 -15 0 -20 12 -9 23
8 8 24 -1 24 -14z"/>
<path d="M369 1419 c-11 -17 -20 -32 -18 -33 2 -2 27 -15 56 -30 l52 -26 20
26 c12 15 21 30 21 33 0 4 -25 19 -55 34 l-54 26 -22 -30z m51 1 c0 -5 -4 -10
-9 -10 -6 0 -13 5 -16 10 -3 6 1 10 9 10 9 0 16 -4 16 -10z"/>
<path d="M805 1420 c-19 -37 -20 -36 15 -50 27 -11 32 -10 50 11 26 32 25 33
-15 52 l-35 17 -15 -30z m45 -9 c0 -6 -4 -13 -10 -16 -5 -3 -10 1 -10 9 0 9 5
16 10 16 6 0 10 -4 10 -9z"/>
<path d="M596 1409 c-10 -17 -16 -31 -14 -33 5 -3 59 -26 62 -26 1 0 12 13 24
30 l22 29 -29 16 c-40 20 -44 20 -65 -16z m54 -3 c0 -2 -7 -9 -15 -16 -12 -10
-15 -10 -15 4 0 9 7 16 15 16 8 0 15 -2 15 -4z"/>
<path d="M1067 1391 c-18 -31 -16 -34 25 -50 22 -8 28 -5 47 19 l21 29 -29 16
c-40 20 -44 20 -64 -14z m48 -11 c-3 -5 -10 -10 -16 -10 -5 0 -9 5 -9 10 0 6
7 10 16 10 8 0 12 -4 9 -10z"/>
<path d="M896 1385 c-22 -34 -20 -42 13 -59 27 -14 29 -14 50 15 13 17 21 32
19 34 -1 1 -17 10 -35 18 -30 16 -32 16 -47 -8z m39 -25 c-3 -5 -11 -10 -16
-10 -6 0 -7 5 -4 10 3 6 11 10 16 10 6 0 7 -4 4 -10z"/>
<path d="M687 1371 c-22 -38 -22 -36 14 -51 29 -12 33 -12 50 11 25 32 24 36
-11 54 -37 19 -33 20 -53 -14z m43 -21 c0 -5 -4 -10 -10 -10 -5 0 -10 5 -10
10 0 6 5 10 10 10 6 0 10 -4 10 -10z"/>
<path d="M499 1353 c-7 -16 -15 -30 -16 -33 -4 -6 67 -34 71 -28 38 57 38 57
7 73 -40 20 -46 19 -62 -12z"/>
<path d="M1155 1350 c-15 -29 -15 -30 17 -46 30 -16 32 -15 49 7 25 32 24 36
-11 54 -38 20 -37 20 -55 -15z m45 -16 c0 -8 -5 -12 -10 -9 -6 4 -8 11 -5 16
9 14 15 11 15 -7z"/>
<path d="M320 1345 c-10 -12 -6 -17 24 -32 33 -15 38 -16 52 -1 15 15 14 18
-14 32 -38 20 -46 20 -62 1z m50 -9 c0 -11 -19 -15 -25 -6 -3 5 1 10 9 10 9 0
16 -2 16 -4z"/>
<path d="M777 1330 c-21 -35 -17 -44 20 -57 24 -9 31 -6 51 18 l23 29 -33 20
c-18 11 -35 20 -38 20 -3 0 -14 -14 -23 -30z m43 -20 c0 -5 -4 -10 -10 -10 -5
0 -10 5 -10 10 0 6 5 10 10 10 6 0 10 -4 10 -10z"/>
<path d="M978 1332 l-17 -29 34 -16 c34 -16 34 -16 55 13 l21 29 -30 16 c-40
20 -44 19 -63 -13z m42 -6 c0 -3 -5 -8 -12 -12 -7 -4 -8 -3 -4 4 7 12 16 16
16 8z"/>
<path d="M588 1306 l-16 -33 33 -16 c32 -15 33 -15 55 15 12 16 20 31 18 32
-26 20 -55 36 -63 36 -6 0 -18 -15 -27 -34z m49 -3 c-4 -3 -7 0 -7 7 0 7 3 10
7 7 3 -4 3 -10 0 -14z m-20 -30 c-4 -3 -7 0 -7 7 0 7 3 10 7 7 3 -4 3 -10 0
-14z"/>
<path d="M1245 1310 c-19 -38 -20 -35 16 -51 29 -12 33 -11 50 10 25 31 24 35
-16 54 l-35 17 -15 -30z m45 -20 c0 -5 -4 -10 -10 -10 -5 0 -10 5 -10 10 0 6
5 10 10 10 6 0 10 -4 10 -10z"/>
<path d="M1465 1310 c-8 -16 -15 -31 -15 -34 0 -7 76 -46 88 -46 15 0 43 68
30 76 -7 4 -8 3 -4 -4 9 -14 -4 -15 -24 -2 -13 9 -13 10 0 10 12 1 11 3 -3 11
-13 8 -22 7 -33 -1 -13 -11 -18 -7 -15 13 2 16 -9 5 -24 -23z"/>
<path d="M1066 1289 c-10 -17 -16 -31 -14 -33 10 -6 60 -26 67 -26 7 0 31 43
31 55 0 4 -55 35 -62 35 -2 0 -12 -14 -22 -31z m45 -12 c-1 -12 -15 -9 -19 4
-3 6 1 10 8 8 6 -3 11 -8 11 -12z"/>
<path d="M414 1298 c-7 -12 2 -20 37 -35 21 -9 27 -8 37 7 9 15 8 20 -6 25
-29 12 -62 14 -68 3z m46 -8 c0 -5 -7 -10 -16 -10 -8 0 -12 5 -9 10 3 6 10 10
16 10 5 0 9 -4 9 -10z"/>
<path d="M865 1280 c-15 -29 -15 -30 17 -46 30 -16 32 -15 49 7 25 32 24 44
-6 57 -37 17 -43 15 -60 -18z m45 -4 c0 -3 -5 -8 -12 -12 -7 -4 -8 -3 -4 4 7
12 16 16 16 8z"/>
<path d="M692 1287 c-5 -7 -15 -22 -21 -34 -10 -20 -8 -24 21 -39 32 -16 32
-16 55 12 13 16 23 32 23 35 0 3 -15 13 -34 22 -26 12 -37 13 -44 4z m34 -34
c-10 -10 -19 5 -10 18 6 11 8 11 12 0 2 -7 1 -15 -2 -18z"/>
<path d="M1335 1269 c-15 -29 -15 -32 2 -44 35 -27 53 -25 69 7 8 16 14 31 12
33 -2 1 -17 10 -35 19 l-32 16 -16 -31z m45 -19 c0 -5 -5 -10 -11 -10 -5 0 -7
5 -4 10 3 6 8 10 11 10 2 0 4 -4 4 -10z"/>
<path d="M1577 1255 l-17 -35 30 -15 c16 -8 33 -15 38 -15 11 0 32 46 31 68 0
10 -3 12 -6 5 -2 -7 -9 -13 -14 -13 -6 0 -7 5 -3 11 7 11 -12 29 -32 29 -6 0
-18 -16 -27 -35z m50 -52 c-4 -3 -7 0 -7 7 0 7 3 10 7 7 3 -4 3 -10 0 -14z"/>
<path d="M1158 1246 l-16 -33 34 -16 c32 -16 34 -16 49 6 22 31 19 45 -15 62
-37 19 -34 20 -52 -19z m43 -19 c-13 -13 -26 -3 -16 12 3 6 11 8 17 5 6 -4 6
-10 -1 -17z"/>
<path d="M517 1259 c-25 -15 -21 -26 14 -38 41 -14 46 -14 53 4 8 21 -44 47
-67 34z m33 -19 c0 -5 -2 -10 -4 -10 -3 0 -8 5 -11 10 -3 6 -1 10 4 10 6 0 11
-4 11 -10z"/>
<path d="M955 1240 c-19 -38 -20 -35 16 -50 29 -12 33 -12 50 11 25 32 24 36
-11 54 -38 20 -37 20 -55 -15z m45 -15 c0 -8 -4 -15 -9 -15 -13 0 -22 16 -14
24 11 11 23 6 23 -9z"/>
<path d="M769 1223 c-7 -16 -15 -30 -16 -33 -2 -3 13 -12 32 -19 33 -12 37
-11 55 11 26 31 25 35 -10 53 -39 20 -45 19 -61 -12z m51 -3 c0 -5 -5 -10 -11
-10 -5 0 -7 5 -4 10 3 6 8 10 11 10 2 0 4 -4 4 -10z m-23 -37 c-4 -3 -7 0 -7
7 0 7 3 10 7 7 3 -4 3 -10 0 -14z"/>
<path d="M1421 1220 c-9 -28 -8 -31 21 -46 31 -16 33 -16 50 6 24 30 23 37
-12 55 -40 21 -47 19 -59 -15z m49 -10 c0 -5 -4 -10 -10 -10 -5 0 -10 5 -10
10 0 6 5 10 10 10 6 0 10 -4 10 -10z"/>
<path d="M1668 1211 l-15 -39 33 -16 c34 -15 34 -15 49 14 8 16 15 34 15 39 0
9 -50 41 -63 41 -2 0 -11 -17 -19 -39z m72 -1 c0 -5 -2 -10 -4 -10 -3 0 -8 5
-11 10 -3 6 -1 10 4 10 6 0 11 -4 11 -10z"/>
<path d="M1045 1201 c-8 -17 -15 -32 -15 -35 0 -6 55 -36 64 -36 7 0 39 61 34
65 -2 1 -17 10 -35 19 -32 16 -32 16 -48 -13z m45 -21 c0 -5 -5 -10 -11 -10
-5 0 -7 5 -4 10 3 6 8 10 11 10 2 0 4 -4 4 -10z"/>
<path d="M1245 1200 l-16 -31 37 -15 c20 -8 37 -14 39 -12 7 9 25 48 25 56 0
9 -43 32 -60 32 -5 0 -17 -14 -25 -30z m45 -10 c0 -5 -5 -10 -11 -10 -5 0 -7
5 -4 10 3 6 8 10 11 10 2 0 4 -4 4 -10z"/>
<path d="M596 1204 c-3 -7 10 -19 31 -29 31 -15 37 -15 50 -2 14 13 13 16 -7
27 -32 17 -68 19 -74 4z"/>
<path d="M857 1176 l-16 -34 32 -16 c31 -15 33 -15 54 12 13 15 23 30 23 33 0
4 -65 39 -73 39 -2 0 -11 -15 -20 -34z m49 -13 c-10 -10 -19 5 -10 18 6 11 8
11 12 0 2 -7 1 -15 -2 -18z"/>
<path d="M1517 1193 c-2 -10 -8 -25 -11 -34 -5 -11 4 -20 29 -32 l35 -17 15
30 c20 38 20 37 -15 55 -37 19 -47 19 -53 -2z m43 -28 c0 -8 -4 -15 -10 -15
-5 0 -7 7 -4 15 4 8 8 15 10 15 2 0 4 -7 4 -15z"/>
<path d="M1760 1174 c-6 -14 -10 -31 -10 -37 0 -11 58 -43 64 -36 17 19 34 69
26 74 -6 3 -10 1 -10 -5 0 -6 -5 -8 -10 -5 -6 4 -8 10 -5 15 5 8 -17 20 -36
20 -5 0 -14 -12 -19 -26z"/>
<path d="M1340 1171 c-16 -31 -12 -47 15 -59 36 -17 40 -15 53 13 16 34 16 32
-18 50 -37 19 -37 19 -50 -4z m44 -32 c-3 -5 -10 -7 -15 -3 -5 3 -7 10 -3 15
3 5 10 7 15 3 5 -3 7 -10 3 -15z"/>
<path d="M2840 1182 c0 -5 18 -20 40 -35 41 -26 41 -26 71 -8 37 23 22 37 -17
16 -26 -13 -30 -13 -61 11 -18 14 -33 21 -33 16z"/>
<path d="M1135 1150 c-19 -38 -20 -35 16 -51 29 -12 33 -11 50 10 25 31 24 38
-11 56 -38 20 -37 20 -55 -15z m37 -22 c-7 -7 -12 -8 -12 -2 0 14 12 26 19 19
2 -3 -1 -11 -7 -17z"/>
<path d="M693 1157 c-6 -10 -6 -11 33 -30 28 -15 33 -15 44 -1 11 12 10 17 -6
29 -20 15 -62 16 -71 2z m47 -7 c0 -5 -2 -10 -4 -10 -3 0 -8 5 -11 10 -3 6 -1
10 4 10 6 0 11 -4 11 -10z"/>
<path d="M250 1147 c0 -9 38 -34 94 -61 101 -50 106 -51 106 -35 0 5 -4 7 -10
4 -5 -3 -10 -2 -10 3 0 4 -40 30 -90 56 -65 34 -90 43 -90 33z"/>
<path d="M952 1135 c-17 -36 -15 -40 13 -53 37 -17 43 -15 60 18 15 29 15 30
-14 45 -40 20 -46 19 -59 -10z m48 -5 c0 -5 -5 -10 -11 -10 -5 0 -7 5 -4 10 3
6 8 10 11 10 2 0 4 -4 4 -10z m-10 -24 c0 -3 -4 -8 -10 -11 -5 -3 -10 -1 -10
4 0 6 5 11 10 11 6 0 10 -2 10 -4z"/>
<path d="M1603 1131 c-10 -28 -9 -31 24 -46 19 -9 36 -15 37 -13 8 9 26 48 26
56 0 10 -44 32 -63 32 -7 0 -18 -13 -24 -29z m54 2 c-4 -3 -10 -3 -14 0 -3 4
0 7 7 7 7 0 10 -3 7 -7z m-10 -30 c-4 -3 -10 -3 -14 0 -3 4 0 7 7 7 7 0 10 -3
7 -7z"/>
<path d="M1431 1124 c-6 -14 -11 -29 -11 -34 0 -9 60 -45 64 -38 40 61 39 66
-16 87 -22 8 -27 6 -37 -15z m49 -18 c0 -3 -4 -8 -10 -11 -5 -3 -10 -1 -10 4
0 6 5 11 10 11 6 0 10 -2 10 -4z"/>
<path d="M1225 1110 c-8 -16 -15 -31 -15 -34 0 -6 72 -38 75 -34 8 11 25 49
25 57 0 9 -50 41 -64 41 -3 0 -12 -13 -21 -30z m50 -20 c-3 -5 -11 -10 -16
-10 -6 0 -7 5 -4 10 3 6 11 10 16 10 6 0 7 -4 4 -10z"/>
<path d="M790 1119 c0 -21 3 -25 29 -42 27 -16 29 -16 46 3 17 19 17 20 -11
31 -43 16 -64 19 -64 8z m50 -19 c0 -5 -7 -7 -15 -4 -8 4 -15 8 -15 10 0 2 7
4 15 4 8 0 15 -4 15 -10z"/>
<path d="M1045 1090 c-20 -38 -20 -37 15 -55 38 -20 37 -20 55 15 19 36 15 45
-25 58 -28 10 -31 9 -45 -18z m50 0 c3 -5 1 -10 -4 -10 -6 0 -11 5 -11 10 0 6
2 10 4 10 3 0 8 -4 11 -10z m-15 -30 c0 -5 -4 -10 -10 -10 -5 0 -10 5 -10 10
0 6 5 10 10 10 6 0 10 -4 10 -10z"/>
<path d="M1696 1098 c-3 -13 -6 -28 -6 -34 0 -9 69 -54 84 -54 3 0 12 13 20
29 17 32 14 37 -41 65 -42 21 -50 20 -57 -6z m94 -28 c0 -5 -4 -10 -9 -10 -6
0 -13 5 -16 10 -3 6 1 10 9 10 9 0 16 -4 16 -10z"/>
<path d="M0 1100 c0 -5 5 -10 11 -10 5 0 7 5 4 10 -3 6 -8 10 -11 10 -2 0 -4
-4 -4 -10z"/>
<path d="M1522 1075 c-17 -37 -16 -39 22 -58 l35 -16 15 31 c20 39 21 35 -14
53 -39 20 -45 19 -58 -10z m43 -14 c3 -5 1 -12 -5 -16 -5 -3 -10 1 -10 9 0 18
6 21 15 7z"/>
<path d="M1315 1059 c-9 -17 -15 -32 -13 -34 12 -10 49 -25 62 -25 9 0 22 13
31 30 15 29 15 30 -14 45 -41 21 -48 19 -66 -16z m49 -14 c-4 -8 -8 -15 -10
-15 -2 0 -4 7 -4 15 0 8 4 15 10 15 5 0 7 -7 4 -15z"/>
<path d="M176 1063 c-9 -23 1 -28 18 -10 13 13 13 16 2 20 -8 3 -17 -1 -20
-10z"/>
<path d="M898 1072 c-25 -5 -22 -19 8 -39 26 -16 53 -11 61 13 4 12 -46 31
-69 26z m27 -12 c3 -5 1 -10 -4 -10 -6 0 -11 5 -11 10 0 6 2 10 4 10 3 0 8 -4
11 -10z"/>
<path d="M1135 1039 c-9 -17 -15 -32 -13 -34 2 -1 17 -10 35 -19 l31 -16 21
36 21 35 -35 15 c-45 18 -42 19 -60 -17z m55 7 c0 -3 -4 -8 -10 -11 -5 -3 -10
-1 -10 4 0 6 5 11 10 11 6 0 10 -2 10 -4z m-20 -36 c0 -5 -4 -10 -10 -10 -5 0
-10 5 -10 10 0 6 5 10 10 10 6 0 10 -4 10 -10z"/>
<path d="M217 1041 c-3 -14 -1 -18 9 -14 16 6 18 19 5 27 -5 3 -11 -3 -14 -13z"/>
<path d="M1615 1029 c-9 -17 -15 -32 -13 -34 8 -9 131 -75 138 -75 12 0 31 60
23 73 -4 6 -10 1 -15 -12 -4 -12 -13 -19 -18 -16 -8 5 -7 11 1 21 14 17 16 15
-48 48 l-52 26 -16 -31z"/>
<path d="M1412 1025 c-7 -14 -12 -30 -12 -35 0 -8 51 -40 64 -40 7 0 39 61 34
65 -5 4 -67 35 -71 35 -2 0 -9 -11 -15 -25z m47 -34 c-3 -6 -10 -7 -18 -2 -7
5 -10 14 -6 21 9 14 29 -2 24 -19z"/>
<path d="M476 1032 c-4 -3 11 -13 31 -23 21 -10 40 -15 43 -13 7 7 -23 24 -32
18 -4 -3 -8 -1 -8 4 0 12 -26 23 -34 14z"/>
<path d="M270 1020 c0 -5 5 -10 11 -10 5 0 7 5 4 10 -3 6 -8 10 -11 10 -2 0
-4 -4 -4 -10z"/>
<path d="M974 1018 c-7 -11 -7 -11 35 -33 33 -17 35 -17 48 1 11 15 11 20 -4
28 -24 14 -72 16 -79 4z m56 -8 c0 -5 -4 -10 -9 -10 -6 0 -13 5 -16 10 -3 6 1
10 9 10 9 0 16 -4 16 -10z"/>
<path d="M1226 994 c-9 -20 -16 -37 -14 -38 11 -7 60 -26 66 -26 9 0 46 60 40
64 -5 5 -67 36 -71 36 -2 0 -11 -16 -21 -36z m47 -6 c-4 -7 -8 -16 -8 -20 0
-11 -15 -22 -15 -10 0 19 12 42 22 42 5 0 6 -6 1 -12z"/>
<path d="M0 970 l0 -41 28 14 c15 8 34 16 42 19 10 3 0 12 -27 27 l-43 21 0
-40z"/>
<path d="M325 1000 c3 -5 8 -10 11 -10 3 0 2 5 -1 10 -3 6 -8 10 -11 10 -3 0
-2 -4 1 -10z"/>
<path d="M1501 968 c-6 -17 -10 -32 -9 -33 10 -8 70 -36 73 -33 9 11 25 49 25
60 0 12 -51 38 -72 38 -3 0 -11 -14 -17 -32z m51 -13 c0 -5 -5 -11 -11 -13 -6
-2 -11 4 -11 13 0 9 5 15 11 13 6 -2 11 -8 11 -13z"/>
<path d="M300 980 c0 -7 3 -10 7 -7 3 4 3 10 0 14 -4 3 -7 0 -7 -7z"/>
<path d="M1070 967 c0 -7 15 -21 34 -30 31 -14 36 -14 47 0 11 13 10 17 -6 29
-24 18 -75 18 -75 1z m60 -1 c0 -3 -4 -8 -10 -11 -5 -3 -10 -1 -10 4 0 6 5 11
10 11 6 0 10 -2 10 -4z"/>
<path d="M1318 946 l-16 -33 34 -17 c44 -20 41 -21 59 14 20 38 20 37 -15 55
-40 21 -44 20 -62 -19z m50 -11 c-6 -14 -15 -25 -19 -25 -4 0 -2 11 4 25 7 14
15 25 19 25 4 0 2 -11 -4 -25z"/>
<path d="M1606 952 c-3 -5 -10 -21 -15 -36 -10 -25 -8 -27 50 -57 34 -17 65
-27 70 -22 5 5 11 22 14 38 5 28 2 32 -47 54 -29 14 -56 27 -60 28 -3 2 -9 0
-12 -5z m104 -63 c0 -4 -7 -6 -15 -3 -8 4 -15 10 -15 15 0 4 7 6 15 3 8 -4 15
-10 15 -15z"/>
<path d="M1188 933 c-29 -7 -21 -28 17 -46 33 -16 35 -16 45 3 9 16 6 22 -17
33 -16 7 -36 12 -45 10z m42 -24 c0 -11 -27 -12 -34 0 -3 4 -3 11 0 14 8 8 34
-3 34 -14z"/>
<path d="M1414 904 c-8 -20 -14 -37 -12 -39 9 -8 70 -36 73 -33 1 2 10 18 19
35 l16 32 -40 21 -41 21 -15 -37z m46 6 c8 -5 12 -12 9 -15 -8 -8 -39 5 -39
16 0 11 11 11 30 -1z"/>
<path d="M18 903 c-16 -4 -18 -20 -18 -160 0 -148 1 -155 18 -141 9 8 24 14
32 13 8 -1 24 3 35 9 11 6 23 9 26 9 4 -1 17 10 30 24 18 20 20 25 7 20 -14
-5 -18 -1 -19 16 -1 12 -1 26 0 30 1 4 -5 15 -13 23 -10 9 -13 26 -9 49 4 28
2 35 -11 35 -20 0 -21 9 -1 24 10 7 12 16 6 25 -8 12 -14 13 -36 3 -33 -15
-55 -4 -30 15 19 13 15 15 -17 6z m69 -270 c-4 -3 -7 0 -7 7 0 7 3 10 7 7 3
-4 3 -10 0 -14z"/>
<path d="M1266 874 c-3 -9 9 -21 34 -34 39 -20 39 -20 50 0 8 16 6 21 -11 31
-32 17 -67 18 -73 3z m59 -14 c3 -5 -1 -10 -9 -10 -8 0 -18 5 -21 10 -3 6 1
10 9 10 8 0 18 -4 21 -10z"/>
<path d="M1512 865 c-18 -40 -15 -50 23 -68 l35 -17 15 30 c21 40 20 44 -20
63 -44 21 -40 22 -53 -8z m45 -22 c-4 -3 -7 0 -7 7 0 7 3 10 7 7 3 -4 3 -10 0
-14z"/>
<path d="M1366 824 c-3 -9 9 -21 34 -34 39 -20 39 -20 50 0 8 16 6 21 -11 31
-32 17 -67 18 -73 3z m54 -14 c0 -5 -4 -10 -10 -10 -5 0 -10 5 -10 10 0 6 5
10 10 10 6 0 10 -4 10 -10z"/>
<path d="M1603 806 c-10 -31 -8 -35 17 -50 39 -22 47 -20 65 14 20 39 20 37
-21 55 -49 20 -49 20 -61 -19z m57 4 c0 -5 -5 -10 -11 -10 -5 0 -7 5 -4 10 3
6 8 10 11 10 2 0 4 -4 4 -10z m-23 -47 c-4 -3 -7 0 -7 7 0 7 3 10 7 7 3 -4 3
-10 0 -14z"/>
<path d="M1468 783 c-5 -18 1 -26 33 -42 38 -20 39 -20 49 -1 9 16 6 22 -20
35 -17 9 -35 13 -39 10 -5 -3 -11 0 -13 7 -3 7 -7 3 -10 -9z m49 -20 c-4 -3
-10 -3 -14 0 -3 4 0 7 7 7 7 0 10 -3 7 -7z"/>
<path d="M476 750 c12 -21 14 -41 3 -34 -13 8 -11 -10 4 -26 10 -12 9 -12 -5
-1 -10 7 -18 9 -18 4 0 -5 -12 -9 -27 -8 -25 0 -28 -3 -25 -32 1 -18 9 -52 18
-75 15 -43 22 -66 23 -81 1 -5 4 -6 9 -4 4 3 8 -10 9 -28 3 -57 19 -76 59 -72
19 3 43 12 54 22 16 14 20 15 21 4 0 -8 5 -4 11 8 6 13 17 23 25 23 7 0 13 5
13 10 0 6 5 10 11 10 5 0 7 -4 4 -10 -3 -5 3 -10 14 -10 11 0 22 4 25 9 7 12
-13 71 -31 93 -8 9 -12 21 -9 26 3 5 -3 30 -13 57 -15 39 -26 51 -65 71 -26
13 -52 21 -58 18 -7 -4 -8 -2 -4 4 4 8 0 12 -11 12 -11 0 -25 6 -32 13 -11 10
-12 9 -5 -3z m-49 -77 c-4 -3 -10 -3 -14 0 -3 4 0 7 7 7 7 0 10 -3 7 -7z m20
-20 c-4 -3 -7 0 -7 7 0 7 3 10 7 7 3 -4 3 -10 0 -14z m70 0 c-4 -3 -7 0 -7 7
0 7 3 10 7 7 3 -4 3 -10 0 -14z m-20 -60 c-4 -3 -7 0 -7 7 0 7 3 10 7 7 3 -4
3 -10 0 -14z m58 -82 c-6 -5 -25 10 -25 20 0 5 6 4 14 -3 8 -7 12 -15 11 -17z
m-38 -28 c-4 -3 -7 0 -7 7 0 7 3 10 7 7 3 -4 3 -10 0 -14z m50 -20 c-4 -3 -10
-3 -14 0 -3 4 0 7 7 7 7 0 10 -3 7 -7z m-20 -60 c-4 -3 -7 0 -7 7 0 7 3 10 7
7 3 -4 3 -10 0 -14z"/>
<path d="M1567 731 c-3 -12 4 -23 23 -35 35 -20 56 -20 64 -1 4 10 -7 21 -34
35 -48 24 -47 24 -53 1z m53 -21 c0 -5 -2 -10 -4 -10 -3 0 -8 5 -11 10 -3 6
-1 10 4 10 6 0 11 -4 11 -10z"/>
<path d="M161 704 c14 -17 25 -18 32 -1 3 7 -5 13 -20 13 -19 2 -22 -1 -12
-12z"/>
<path d="M241 704 c0 -11 3 -14 6 -6 3 7 2 16 -1 19 -3 4 -6 -2 -5 -13z"/>
<path d="M450 710 c0 -7 3 -10 7 -7 3 4 3 10 0 14 -4 3 -7 0 -7 -7z"/>
<path d="M326 667 c3 -10 9 -15 12 -12 3 3 0 11 -7 18 -10 9 -11 8 -5 -6z"/>
<path d="M250 650 c0 -7 3 -10 7 -7 3 4 3 10 0 14 -4 3 -7 0 -7 -7z"/>
<path d="M346 623 c-6 -14 -5 -15 5 -6 7 7 10 15 7 18 -3 3 -9 -2 -12 -12z"/>
<path d="M166 611 c-11 -12 -25 -16 -41 -13 -27 5 -35 -12 -9 -22 25 -9 85 20
78 38 -8 20 -7 20 -28 -3z"/>
<path d="M210 620 c0 -5 4 -10 9 -10 6 0 13 5 16 10 3 6 -1 10 -9 10 -9 0 -16
-4 -16 -10z"/>
<path d="M320 613 c0 -8 -13 -13 -32 -13 -17 0 -29 -3 -25 -6 6 -7 -31 -47
-54 -58 -8 -3 -2 -4 14 -2 15 2 27 -1 27 -6 0 -6 17 -7 41 -3 41 7 59 -2 59
-30 0 -5 -5 -3 -10 5 -7 11 -12 12 -17 4 -5 -7 -17 -14 -28 -17 -18 -4 -18 -5
2 -6 16 -1 21 -6 17 -16 -4 -9 4 -23 20 -36 14 -11 26 -28 26 -37 0 -12 -3
-13 -8 -5 -5 8 -12 9 -22 2 -13 -8 -13 -11 3 -20 9 -6 15 -14 12 -20 -4 -5 -2
-9 4 -9 7 0 7 -8 1 -25 -6 -16 -6 -25 0 -25 6 0 10 4 10 9 0 5 9 13 20 16 11
4 18 10 15 15 -9 14 33 50 50 44 12 -5 13 -1 4 25 -6 17 -15 31 -19 31 -4 0
-11 7 -14 16 -3 9 -2 12 5 9 10 -7 1 46 -10 55 -3 3 -8 16 -10 30 -1 14 -8 38
-15 54 -11 26 -13 28 -26 14 -13 -14 -16 -14 -27 1 -8 10 -12 12 -13 4z m57
-30 c-4 -3 -7 0 -7 7 0 7 3 10 7 7 3 -4 3 -10 0 -14z m-26 -40 c13 -16 12 -17
-3 -4 -17 13 -22 21 -14 21 2 0 10 -8 17 -17z"/>
<path d="M38 573 l-38 -15 0 -122 c0 -67 4 -126 8 -131 5 -6 21 -50 36 -100
15 -49 30 -97 33 -105 3 -8 5 -21 4 -28 -2 -10 4 -12 18 -7 13 4 21 2 21 -5 0
-6 -4 -9 -9 -5 -5 3 -12 2 -14 -2 -7 -12 11 -53 24 -53 6 0 9 7 6 15 -4 8 5
23 20 35 25 20 39 60 21 60 -8 0 -12 -16 -9 -33 1 -5 -3 -6 -9 -2 -6 3 -8 10
-5 15 3 4 -4 6 -15 3 -19 -5 -22 1 -19 35 0 4 6 6 13 4 7 -1 22 7 33 18 12 11
23 15 25 9 6 -18 36 1 46 29 24 65 25 63 -12 48 -32 -13 -46 -12 -46 4 0 4 14
13 30 20 17 7 33 16 35 20 8 13 -18 6 -44 -12 -26 -19 -41 -16 -41 8 0 8 4 13
8 10 5 -3 26 6 48 19 44 27 32 33 -23 10 -43 -18 -43 -18 -43 -1 0 8 14 17 30
21 17 4 30 10 30 14 0 4 18 14 40 21 22 7 40 16 40 21 0 4 -32 -6 -71 -22 -40
-16 -74 -28 -75 -26 -2 2 -6 17 -10 33 -5 27 -3 30 45 49 28 11 51 23 51 27 0
4 -32 -6 -71 -23 -84 -34 -79 -33 -79 -15 0 8 17 20 38 27 20 6 46 18 57 26
19 14 19 15 -4 8 -21 -6 -23 -5 -18 14 4 16 1 21 -10 19 -9 -2 -18 3 -20 10
-3 6 3 12 13 12 9 0 15 3 11 6 -3 4 -12 4 -19 2 -7 -3 -17 -6 -22 -6 -5 0 -12
-4 -15 -9 -8 -12 -63 -35 -68 -29 -11 11 36 42 91 60 19 6 19 7 0 21 -23 17
-20 18 -66 -2z m97 -373 c-3 -5 -12 -10 -18 -10 -7 0 -6 4 3 10 19 12 23 12
15 0z"/>
<path d="M165 520 c-3 -5 -2 -10 4 -10 5 0 13 5 16 10 3 6 2 10 -4 10 -5 0
-13 -4 -16 -10z"/>
<path d="M208 493 c7 -3 16 -2 19 1 4 3 -2 6 -13 5 -11 0 -14 -3 -6 -6z"/>
<path d="M240 419 c0 -5 5 -7 10 -4 6 3 10 8 10 11 0 2 -4 4 -10 4 -5 0 -10
-5 -10 -11z"/>
<path d="M310 420 c-8 -5 -12 -12 -9 -15 4 -3 12 1 19 10 14 17 11 19 -10 5z"/>
<path d="M214 408 c-4 -7 -3 -8 4 -4 12 7 16 16 8 16 -3 0 -8 -5 -12 -12z"/>
<path d="M153 390 c-13 -5 -23 -12 -23 -15 0 -10 27 -5 46 10 21 16 11 18 -23
5z"/>
<path d="M300 360 c0 -7 3 -10 7 -7 3 4 3 10 0 14 -4 3 -7 0 -7 -7z"/>
<path d="M250 340 c0 -5 7 -7 15 -4 8 4 15 8 15 10 0 2 -7 4 -15 4 -8 0 -15
-4 -15 -10z"/>
<path d="M255 300 c-3 -5 -1 -10 4 -10 6 0 11 5 11 10 0 6 -2 10 -4 10 -3 0
-8 -4 -11 -10z"/>
<path d="M330 270 c0 -7 3 -10 7 -7 3 4 3 10 0 14 -4 3 -7 0 -7 -7z"/>
<path d="M276 261 c-5 -8 -3 -17 5 -22 18 -11 32 -11 25 0 -4 5 -3 11 1 14 5
2 3 2 -4 1 -6 -2 -13 2 -16 9 -2 8 -6 7 -11 -2z"/>
<path d="M0 117 l0 -117 30 0 c22 0 30 5 30 18 0 10 -4 22 -9 28 -5 5 -12 29
-15 54 -7 54 -22 119 -30 127 -3 4 -6 -46 -6 -110z"/>
<path d="M260 220 c-13 -8 -12 -10 3 -10 9 0 17 5 17 10 0 12 -1 12 -20 0z"/>
<path d="M246 62 c-2 -4 4 -9 15 -9 11 -1 17 2 14 8 -7 11 -22 12 -29 1z"/>
<path d="M191 23 c-1 -17 16 -25 25 -12 4 7 3 9 -4 5 -5 -3 -13 0 -15 6 -4 9
-6 10 -6 1z"/>
<path d="M153 3 c4 -3 10 -3 14 0 3 4 0 7 -7 7 -7 0 -10 -3 -7 -7z"/>
</g>
</svg>
