<?xml version="1.0" encoding="UTF-8"?>
<svg width="1070px" height="4048px" viewBox="0 0 1070 4048" version="1.1" xmlns="http://www.w3.org/2000/svg" xmlns:xlink="http://www.w3.org/1999/xlink">
    <!-- Generator: Sketch 52.5 (67469) - http://www.bohemiancoding.com/sketch -->
    <title>Group 3</title>
    <desc>Created with Sketch.</desc>
    <g id="Page-3" stroke="none" stroke-width="1" fill="none" fill-rule="evenodd">
        <g id="Group-3" fill="#FFCB9A">
            <g id="Group-2">
                <g id="Group">
                    <rect id="Rectangle" fill-opacity="0.832059556" transform="translate(317.216870, 273.065218) rotate(27.000000) translate(-317.216870, -273.065218) " x="243.21687" y="208.565218" width="148" height="129"></rect>
                    <rect id="Rectangle-Copy-9" fill-opacity="0.832059556" transform="translate(608.216870, 698.345871) rotate(-23.000000) translate(-608.216870, -698.345871) " x="534.21687" y="633.845871" width="148" height="129"></rect>
                    <rect id="Rectangle-Copy-8" fill-opacity="0.832059556" transform="translate(325.570280, 125.907013) rotate(27.000000) translate(-325.570280, -125.907013) " x="298.07028" y="83.9070128" width="55" height="84"></rect>
                    <rect id="Rectangle-Copy-15" fill-opacity="0.832059556" transform="translate(616.570280, 552.187666) rotate(-23.000000) translate(-616.570280, -552.187666) " x="589.07028" y="510.187666" width="55" height="84"></rect>
                    <rect id="Rectangle-Copy-4" fill-opacity="0.832059556" transform="translate(101.216870, 172.065218) rotate(27.000000) translate(-101.216870, -172.065218) " x="27.21687" y="107.565218" width="148" height="129"></rect>
                    <rect id="Rectangle-Copy-16" fill-opacity="0.832059556" transform="translate(392.216870, 597.345871) rotate(-23.000000) translate(-392.216870, -597.345871) " x="318.21687" y="532.845871" width="148" height="129"></rect>
                    <rect id="Rectangle-Copy" fill-opacity="0.686254529" transform="translate(404.977223, 329.148795) rotate(-15.000000) translate(-404.977223, -329.148795) " x="355.977223" y="284.148795" width="98" height="90"></rect>
                    <rect id="Rectangle-Copy-17" fill-opacity="0.686254529" transform="translate(695.977223, 754.429449) rotate(-65.000000) translate(-695.977223, -754.429449) " x="646.977223" y="709.429449" width="98" height="90"></rect>
                    <rect id="Rectangle-Copy-10" fill-opacity="0.686254529" transform="translate(314.540628, 443.682663) rotate(2.000000) translate(-314.540628, -443.682663) " x="265.540628" y="398.682663" width="98" height="90"></rect>
                    <rect id="Rectangle-Copy-18" fill-opacity="0.686254529" transform="translate(605.540628, 868.963316) rotate(-48.000000) translate(-605.540628, -868.963316) " x="556.540628" y="823.963316" width="98" height="90"></rect>
                    <rect id="Rectangle-Copy-5" fill-opacity="0.686254529" transform="translate(188.977223, 228.148795) rotate(-15.000000) translate(-188.977223, -228.148795) " x="139.977223" y="183.148795" width="98" height="90"></rect>
                    <rect id="Rectangle-Copy-19" fill-opacity="0.686254529" transform="translate(479.977223, 653.429449) rotate(-65.000000) translate(-479.977223, -653.429449) " x="430.977223" y="608.429449" width="98" height="90"></rect>
                    <rect id="Rectangle-Copy-11" fill-opacity="0.686254529" transform="translate(103.540628, 536.682663) rotate(2.000000) translate(-103.540628, -536.682663) " x="54.5406279" y="491.682663" width="98" height="90"></rect>
                    <rect id="Rectangle-Copy-20" fill-opacity="0.686254529" transform="translate(394.540628, 961.963316) rotate(-48.000000) translate(-394.540628, -961.963316) " x="345.540628" y="916.963316" width="98" height="90"></rect>
                    <rect id="Rectangle-Copy-3" fill-opacity="0.16126019" transform="translate(544.781739, 174.902009) rotate(38.000000) translate(-544.781739, -174.902009) " x="495.781739" y="119.402009" width="98" height="111"></rect>
                    <rect id="Rectangle-Copy-21" fill-opacity="0.16126019" transform="translate(835.781739, 600.182663) rotate(-12.000000) translate(-835.781739, -600.182663) " x="786.781739" y="544.682663" width="98" height="111"></rect>
                    <rect id="Rectangle-Copy-12" fill-opacity="0.16126019" transform="translate(73.568184, 456.971942) rotate(55.000000) translate(-73.568184, -456.971942) " x="24.5681838" y="401.471942" width="98" height="111"></rect>
                    <rect id="Rectangle-Copy-22" fill-opacity="0.16126019" transform="translate(364.568184, 882.252596) rotate(5.000000) translate(-364.568184, -882.252596) " x="315.568184" y="826.752596" width="98" height="111"></rect>
                    <rect id="Rectangle-Copy-6" fill-opacity="0.16126019" transform="translate(328.781739, 73.902009) rotate(38.000000) translate(-328.781739, -73.902009) " x="279.781739" y="18.4020091" width="98" height="111"></rect>
                    <rect id="Rectangle-Copy-23" fill-opacity="0.16126019" transform="translate(619.781739, 499.182663) rotate(-12.000000) translate(-619.781739, -499.182663) " x="570.781739" y="443.682663" width="98" height="111"></rect>
                    <rect id="Rectangle-Copy-2" fill-opacity="0.446246603" x="328" y="137" width="218" height="191"></rect>
                    <rect id="Rectangle-Copy-24" fill-opacity="0.446246603" transform="translate(728.000000, 657.780653) rotate(-50.000000) translate(-728.000000, -657.780653) " x="619" y="562.280653" width="218" height="191"></rect>
                    <rect id="Rectangle-Copy-13" fill-opacity="0.446246603" transform="translate(185.158716, 343.195620) rotate(17.000000) translate(-185.158716, -343.195620) " x="76.1587162" y="247.69562" width="218" height="191"></rect>
                    <rect id="Rectangle-Copy-25" fill-opacity="0.446246603" transform="translate(476.158716, 768.476273) rotate(-33.000000) translate(-476.158716, -768.476273) " x="367.158716" y="672.976273" width="218" height="191"></rect>
                    <rect id="Rectangle-Copy-14" fill-opacity="0.446246603" transform="translate(222.219037, 499.984406) rotate(69.000000) translate(-222.219037, -499.984406) " x="113.219037" y="404.484406" width="218" height="191"></rect>
                    <rect id="Rectangle-Copy-26" fill-opacity="0.446246603" transform="translate(513.219037, 925.265059) rotate(19.000000) translate(-513.219037, -925.265059) " x="404.219037" y="829.765059" width="218" height="191"></rect>
                    <rect id="Rectangle-Copy-7" fill-opacity="0.446246603" x="147" y="23" width="218" height="191"></rect>
                    <rect id="Rectangle-Copy-27" fill-opacity="0.446246603" transform="translate(547.000000, 543.780653) rotate(-50.000000) translate(-547.000000, -543.780653) " x="438" y="448.280653" width="218" height="191"></rect>
                </g>
                <g id="Group-Copy" transform="translate(0.000000, 972.000000)">
                    <rect id="Rectangle" fill-opacity="0.832059556" transform="translate(317.216870, 273.065218) rotate(27.000000) translate(-317.216870, -273.065218) " x="243.21687" y="208.565218" width="148" height="129"></rect>
                    <rect id="Rectangle-Copy-9" fill-opacity="0.832059556" transform="translate(608.216870, 698.345871) rotate(-23.000000) translate(-608.216870, -698.345871) " x="534.21687" y="633.845871" width="148" height="129"></rect>
                    <rect id="Rectangle-Copy-8" fill-opacity="0.832059556" transform="translate(325.570280, 125.907013) rotate(27.000000) translate(-325.570280, -125.907013) " x="298.07028" y="83.9070128" width="55" height="84"></rect>
                    <rect id="Rectangle-Copy-15" fill-opacity="0.832059556" transform="translate(616.570280, 552.187666) rotate(-23.000000) translate(-616.570280, -552.187666) " x="589.07028" y="510.187666" width="55" height="84"></rect>
                    <rect id="Rectangle-Copy-4" fill-opacity="0.832059556" transform="translate(101.216870, 172.065218) rotate(27.000000) translate(-101.216870, -172.065218) " x="27.21687" y="107.565218" width="148" height="129"></rect>
                    <rect id="Rectangle-Copy-16" fill-opacity="0.832059556" transform="translate(392.216870, 597.345871) rotate(-23.000000) translate(-392.216870, -597.345871) " x="318.21687" y="532.845871" width="148" height="129"></rect>
                    <rect id="Rectangle-Copy" fill-opacity="0.686254529" transform="translate(404.977223, 329.148795) rotate(-15.000000) translate(-404.977223, -329.148795) " x="355.977223" y="284.148795" width="98" height="90"></rect>
                    <rect id="Rectangle-Copy-17" fill-opacity="0.686254529" transform="translate(695.977223, 754.429449) rotate(-65.000000) translate(-695.977223, -754.429449) " x="646.977223" y="709.429449" width="98" height="90"></rect>
                    <rect id="Rectangle-Copy-10" fill-opacity="0.686254529" transform="translate(314.540628, 443.682663) rotate(2.000000) translate(-314.540628, -443.682663) " x="265.540628" y="398.682663" width="98" height="90"></rect>
                    <rect id="Rectangle-Copy-18" fill-opacity="0.686254529" transform="translate(605.540628, 868.963316) rotate(-48.000000) translate(-605.540628, -868.963316) " x="556.540628" y="823.963316" width="98" height="90"></rect>
                    <rect id="Rectangle-Copy-5" fill-opacity="0.686254529" transform="translate(188.977223, 228.148795) rotate(-15.000000) translate(-188.977223, -228.148795) " x="139.977223" y="183.148795" width="98" height="90"></rect>
                    <rect id="Rectangle-Copy-19" fill-opacity="0.686254529" transform="translate(479.977223, 653.429449) rotate(-65.000000) translate(-479.977223, -653.429449) " x="430.977223" y="608.429449" width="98" height="90"></rect>
                    <rect id="Rectangle-Copy-11" fill-opacity="0.686254529" transform="translate(103.540628, 536.682663) rotate(2.000000) translate(-103.540628, -536.682663) " x="54.5406279" y="491.682663" width="98" height="90"></rect>
                    <rect id="Rectangle-Copy-20" fill-opacity="0.686254529" transform="translate(394.540628, 961.963316) rotate(-48.000000) translate(-394.540628, -961.963316) " x="345.540628" y="916.963316" width="98" height="90"></rect>
                    <rect id="Rectangle-Copy-3" fill-opacity="0.16126019" transform="translate(544.781739, 174.902009) rotate(38.000000) translate(-544.781739, -174.902009) " x="495.781739" y="119.402009" width="98" height="111"></rect>
                    <rect id="Rectangle-Copy-21" fill-opacity="0.16126019" transform="translate(835.781739, 600.182663) rotate(-12.000000) translate(-835.781739, -600.182663) " x="786.781739" y="544.682663" width="98" height="111"></rect>
                    <rect id="Rectangle-Copy-12" fill-opacity="0.16126019" transform="translate(73.568184, 456.971942) rotate(55.000000) translate(-73.568184, -456.971942) " x="24.5681838" y="401.471942" width="98" height="111"></rect>
                    <rect id="Rectangle-Copy-22" fill-opacity="0.16126019" transform="translate(364.568184, 882.252596) rotate(5.000000) translate(-364.568184, -882.252596) " x="315.568184" y="826.752596" width="98" height="111"></rect>
                    <rect id="Rectangle-Copy-6" fill-opacity="0.16126019" transform="translate(328.781739, 73.902009) rotate(38.000000) translate(-328.781739, -73.902009) " x="279.781739" y="18.4020091" width="98" height="111"></rect>
                    <rect id="Rectangle-Copy-23" fill-opacity="0.16126019" transform="translate(619.781739, 499.182663) rotate(-12.000000) translate(-619.781739, -499.182663) " x="570.781739" y="443.682663" width="98" height="111"></rect>
                    <rect id="Rectangle-Copy-2" fill-opacity="0.446246603" x="328" y="137" width="218" height="191"></rect>
                    <rect id="Rectangle-Copy-24" fill-opacity="0.446246603" transform="translate(728.000000, 657.780653) rotate(-50.000000) translate(-728.000000, -657.780653) " x="619" y="562.280653" width="218" height="191"></rect>
                    <rect id="Rectangle-Copy-13" fill-opacity="0.446246603" transform="translate(185.158716, 343.195620) rotate(17.000000) translate(-185.158716, -343.195620) " x="76.1587162" y="247.69562" width="218" height="191"></rect>
                    <rect id="Rectangle-Copy-25" fill-opacity="0.446246603" transform="translate(476.158716, 768.476273) rotate(-33.000000) translate(-476.158716, -768.476273) " x="367.158716" y="672.976273" width="218" height="191"></rect>
                    <rect id="Rectangle-Copy-14" fill-opacity="0.446246603" transform="translate(222.219037, 499.984406) rotate(69.000000) translate(-222.219037, -499.984406) " x="113.219037" y="404.484406" width="218" height="191"></rect>
                    <rect id="Rectangle-Copy-26" fill-opacity="0.446246603" transform="translate(513.219037, 925.265059) rotate(19.000000) translate(-513.219037, -925.265059) " x="404.219037" y="829.765059" width="218" height="191"></rect>
                    <rect id="Rectangle-Copy-7" fill-opacity="0.446246603" x="147" y="23" width="218" height="191"></rect>
                    <rect id="Rectangle-Copy-27" fill-opacity="0.446246603" transform="translate(547.000000, 543.780653) rotate(-50.000000) translate(-547.000000, -543.780653) " x="438" y="448.280653" width="218" height="191"></rect>
                </g>
            </g>
            <g id="Group-2-Copy" transform="translate(174.000000, 2024.000000)">
                <g id="Group">
                    <rect id="Rectangle" fill-opacity="0.832059556" transform="translate(317.216870, 273.065218) rotate(27.000000) translate(-317.216870, -273.065218) " x="243.21687" y="208.565218" width="148" height="129"></rect>
                    <rect id="Rectangle-Copy-9" fill-opacity="0.832059556" transform="translate(608.216870, 698.345871) rotate(-23.000000) translate(-608.216870, -698.345871) " x="534.21687" y="633.845871" width="148" height="129"></rect>
                    <rect id="Rectangle-Copy-8" fill-opacity="0.832059556" transform="translate(325.570280, 125.907013) rotate(27.000000) translate(-325.570280, -125.907013) " x="298.07028" y="83.9070128" width="55" height="84"></rect>
                    <rect id="Rectangle-Copy-15" fill-opacity="0.832059556" transform="translate(616.570280, 552.187666) rotate(-23.000000) translate(-616.570280, -552.187666) " x="589.07028" y="510.187666" width="55" height="84"></rect>
                    <rect id="Rectangle-Copy-4" fill-opacity="0.832059556" transform="translate(101.216870, 172.065218) rotate(27.000000) translate(-101.216870, -172.065218) " x="27.21687" y="107.565218" width="148" height="129"></rect>
                    <rect id="Rectangle-Copy-16" fill-opacity="0.832059556" transform="translate(392.216870, 597.345871) rotate(-23.000000) translate(-392.216870, -597.345871) " x="318.21687" y="532.845871" width="148" height="129"></rect>
                    <rect id="Rectangle-Copy" fill-opacity="0.686254529" transform="translate(404.977223, 329.148795) rotate(-15.000000) translate(-404.977223, -329.148795) " x="355.977223" y="284.148795" width="98" height="90"></rect>
                    <rect id="Rectangle-Copy-17" fill-opacity="0.686254529" transform="translate(695.977223, 754.429449) rotate(-65.000000) translate(-695.977223, -754.429449) " x="646.977223" y="709.429449" width="98" height="90"></rect>
                    <rect id="Rectangle-Copy-10" fill-opacity="0.686254529" transform="translate(314.540628, 443.682663) rotate(2.000000) translate(-314.540628, -443.682663) " x="265.540628" y="398.682663" width="98" height="90"></rect>
                    <rect id="Rectangle-Copy-18" fill-opacity="0.686254529" transform="translate(605.540628, 868.963316) rotate(-48.000000) translate(-605.540628, -868.963316) " x="556.540628" y="823.963316" width="98" height="90"></rect>
                    <rect id="Rectangle-Copy-5" fill-opacity="0.686254529" transform="translate(188.977223, 228.148795) rotate(-15.000000) translate(-188.977223, -228.148795) " x="139.977223" y="183.148795" width="98" height="90"></rect>
                    <rect id="Rectangle-Copy-19" fill-opacity="0.686254529" transform="translate(479.977223, 653.429449) rotate(-65.000000) translate(-479.977223, -653.429449) " x="430.977223" y="608.429449" width="98" height="90"></rect>
                    <rect id="Rectangle-Copy-11" fill-opacity="0.686254529" transform="translate(103.540628, 536.682663) rotate(2.000000) translate(-103.540628, -536.682663) " x="54.5406279" y="491.682663" width="98" height="90"></rect>
                    <rect id="Rectangle-Copy-20" fill-opacity="0.686254529" transform="translate(394.540628, 961.963316) rotate(-48.000000) translate(-394.540628, -961.963316) " x="345.540628" y="916.963316" width="98" height="90"></rect>
                    <rect id="Rectangle-Copy-3" fill-opacity="0.16126019" transform="translate(544.781739, 174.902009) rotate(38.000000) translate(-544.781739, -174.902009) " x="495.781739" y="119.402009" width="98" height="111"></rect>
                    <rect id="Rectangle-Copy-21" fill-opacity="0.16126019" transform="translate(835.781739, 600.182663) rotate(-12.000000) translate(-835.781739, -600.182663) " x="786.781739" y="544.682663" width="98" height="111"></rect>
                    <rect id="Rectangle-Copy-12" fill-opacity="0.16126019" transform="translate(73.568184, 456.971942) rotate(55.000000) translate(-73.568184, -456.971942) " x="24.5681838" y="401.471942" width="98" height="111"></rect>
                    <rect id="Rectangle-Copy-22" fill-opacity="0.16126019" transform="translate(364.568184, 882.252596) rotate(5.000000) translate(-364.568184, -882.252596) " x="315.568184" y="826.752596" width="98" height="111"></rect>
                    <rect id="Rectangle-Copy-6" fill-opacity="0.16126019" transform="translate(328.781739, 73.902009) rotate(38.000000) translate(-328.781739, -73.902009) " x="279.781739" y="18.4020091" width="98" height="111"></rect>
                    <rect id="Rectangle-Copy-23" fill-opacity="0.16126019" transform="translate(619.781739, 499.182663) rotate(-12.000000) translate(-619.781739, -499.182663) " x="570.781739" y="443.682663" width="98" height="111"></rect>
                    <rect id="Rectangle-Copy-2" fill-opacity="0.446246603" x="328" y="137" width="218" height="191"></rect>
                    <rect id="Rectangle-Copy-24" fill-opacity="0.446246603" transform="translate(728.000000, 657.780653) rotate(-50.000000) translate(-728.000000, -657.780653) " x="619" y="562.280653" width="218" height="191"></rect>
                    <rect id="Rectangle-Copy-13" fill-opacity="0.446246603" transform="translate(185.158716, 343.195620) rotate(17.000000) translate(-185.158716, -343.195620) " x="76.1587162" y="247.69562" width="218" height="191"></rect>
                    <rect id="Rectangle-Copy-25" fill-opacity="0.446246603" transform="translate(476.158716, 768.476273) rotate(-33.000000) translate(-476.158716, -768.476273) " x="367.158716" y="672.976273" width="218" height="191"></rect>
                    <rect id="Rectangle-Copy-14" fill-opacity="0.446246603" transform="translate(222.219037, 499.984406) rotate(69.000000) translate(-222.219037, -499.984406) " x="113.219037" y="404.484406" width="218" height="191"></rect>
                    <rect id="Rectangle-Copy-26" fill-opacity="0.446246603" transform="translate(513.219037, 925.265059) rotate(19.000000) translate(-513.219037, -925.265059) " x="404.219037" y="829.765059" width="218" height="191"></rect>
                    <rect id="Rectangle-Copy-7" fill-opacity="0.446246603" x="147" y="23" width="218" height="191"></rect>
                    <rect id="Rectangle-Copy-27" fill-opacity="0.446246603" transform="translate(547.000000, 543.780653) rotate(-50.000000) translate(-547.000000, -543.780653) " x="438" y="448.280653" width="218" height="191"></rect>
                </g>
                <g id="Group-Copy" transform="translate(0.000000, 972.000000)">
                    <rect id="Rectangle" fill-opacity="0.832059556" transform="translate(317.216870, 273.065218) rotate(27.000000) translate(-317.216870, -273.065218) " x="243.21687" y="208.565218" width="148" height="129"></rect>
                    <rect id="Rectangle-Copy-9" fill-opacity="0.832059556" transform="translate(608.216870, 698.345871) rotate(-23.000000) translate(-608.216870, -698.345871) " x="534.21687" y="633.845871" width="148" height="129"></rect>
                    <rect id="Rectangle-Copy-8" fill-opacity="0.832059556" transform="translate(325.570280, 125.907013) rotate(27.000000) translate(-325.570280, -125.907013) " x="298.07028" y="83.9070128" width="55" height="84"></rect>
                    <rect id="Rectangle-Copy-15" fill-opacity="0.832059556" transform="translate(616.570280, 552.187666) rotate(-23.000000) translate(-616.570280, -552.187666) " x="589.07028" y="510.187666" width="55" height="84"></rect>
                    <rect id="Rectangle-Copy-4" fill-opacity="0.832059556" transform="translate(101.216870, 172.065218) rotate(27.000000) translate(-101.216870, -172.065218) " x="27.21687" y="107.565218" width="148" height="129"></rect>
                    <rect id="Rectangle-Copy-16" fill-opacity="0.832059556" transform="translate(392.216870, 597.345871) rotate(-23.000000) translate(-392.216870, -597.345871) " x="318.21687" y="532.845871" width="148" height="129"></rect>
                    <rect id="Rectangle-Copy" fill-opacity="0.686254529" transform="translate(404.977223, 329.148795) rotate(-15.000000) translate(-404.977223, -329.148795) " x="355.977223" y="284.148795" width="98" height="90"></rect>
                    <rect id="Rectangle-Copy-17" fill-opacity="0.686254529" transform="translate(695.977223, 754.429449) rotate(-65.000000) translate(-695.977223, -754.429449) " x="646.977223" y="709.429449" width="98" height="90"></rect>
                    <rect id="Rectangle-Copy-10" fill-opacity="0.686254529" transform="translate(314.540628, 443.682663) rotate(2.000000) translate(-314.540628, -443.682663) " x="265.540628" y="398.682663" width="98" height="90"></rect>
                    <rect id="Rectangle-Copy-18" fill-opacity="0.686254529" transform="translate(605.540628, 868.963316) rotate(-48.000000) translate(-605.540628, -868.963316) " x="556.540628" y="823.963316" width="98" height="90"></rect>
                    <rect id="Rectangle-Copy-5" fill-opacity="0.686254529" transform="translate(188.977223, 228.148795) rotate(-15.000000) translate(-188.977223, -228.148795) " x="139.977223" y="183.148795" width="98" height="90"></rect>
                    <rect id="Rectangle-Copy-19" fill-opacity="0.686254529" transform="translate(479.977223, 653.429449) rotate(-65.000000) translate(-479.977223, -653.429449) " x="430.977223" y="608.429449" width="98" height="90"></rect>
                    <rect id="Rectangle-Copy-11" fill-opacity="0.686254529" transform="translate(103.540628, 536.682663) rotate(2.000000) translate(-103.540628, -536.682663) " x="54.5406279" y="491.682663" width="98" height="90"></rect>
                    <rect id="Rectangle-Copy-20" fill-opacity="0.686254529" transform="translate(394.540628, 961.963316) rotate(-48.000000) translate(-394.540628, -961.963316) " x="345.540628" y="916.963316" width="98" height="90"></rect>
                    <rect id="Rectangle-Copy-3" fill-opacity="0.16126019" transform="translate(544.781739, 174.902009) rotate(38.000000) translate(-544.781739, -174.902009) " x="495.781739" y="119.402009" width="98" height="111"></rect>
                    <rect id="Rectangle-Copy-21" fill-opacity="0.16126019" transform="translate(835.781739, 600.182663) rotate(-12.000000) translate(-835.781739, -600.182663) " x="786.781739" y="544.682663" width="98" height="111"></rect>
                    <rect id="Rectangle-Copy-12" fill-opacity="0.16126019" transform="translate(73.568184, 456.971942) rotate(55.000000) translate(-73.568184, -456.971942) " x="24.5681838" y="401.471942" width="98" height="111"></rect>
                    <rect id="Rectangle-Copy-22" fill-opacity="0.16126019" transform="translate(364.568184, 882.252596) rotate(5.000000) translate(-364.568184, -882.252596) " x="315.568184" y="826.752596" width="98" height="111"></rect>
                    <rect id="Rectangle-Copy-6" fill-opacity="0.16126019" transform="translate(328.781739, 73.902009) rotate(38.000000) translate(-328.781739, -73.902009) " x="279.781739" y="18.4020091" width="98" height="111"></rect>
                    <rect id="Rectangle-Copy-23" fill-opacity="0.16126019" transform="translate(619.781739, 499.182663) rotate(-12.000000) translate(-619.781739, -499.182663) " x="570.781739" y="443.682663" width="98" height="111"></rect>
                    <rect id="Rectangle-Copy-2" fill-opacity="0.446246603" x="328" y="137" width="218" height="191"></rect>
                    <rect id="Rectangle-Copy-24" fill-opacity="0.446246603" transform="translate(728.000000, 657.780653) rotate(-50.000000) translate(-728.000000, -657.780653) " x="619" y="562.280653" width="218" height="191"></rect>
                    <rect id="Rectangle-Copy-13" fill-opacity="0.446246603" transform="translate(185.158716, 343.195620) rotate(17.000000) translate(-185.158716, -343.195620) " x="76.1587162" y="247.69562" width="218" height="191"></rect>
                    <rect id="Rectangle-Copy-25" fill-opacity="0.446246603" transform="translate(476.158716, 768.476273) rotate(-33.000000) translate(-476.158716, -768.476273) " x="367.158716" y="672.976273" width="218" height="191"></rect>
                    <rect id="Rectangle-Copy-14" fill-opacity="0.446246603" transform="translate(222.219037, 499.984406) rotate(69.000000) translate(-222.219037, -499.984406) " x="113.219037" y="404.484406" width="218" height="191"></rect>
                    <rect id="Rectangle-Copy-26" fill-opacity="0.446246603" transform="translate(513.219037, 925.265059) rotate(19.000000) translate(-513.219037, -925.265059) " x="404.219037" y="829.765059" width="218" height="191"></rect>
                    <rect id="Rectangle-Copy-7" fill-opacity="0.446246603" x="147" y="23" width="218" height="191"></rect>
                    <rect id="Rectangle-Copy-27" fill-opacity="0.446246603" transform="translate(547.000000, 543.780653) rotate(-50.000000) translate(-547.000000, -543.780653) " x="438" y="448.280653" width="218" height="191"></rect>
                </g>
            </g>
        </g>
    </g>
</svg>