<?xml version="1.0" standalone="no"?>
<!DOCTYPE svg PUBLIC "-//W3C//DTD SVG 20010904//EN"
 "http://www.w3.org/TR/2001/REC-SVG-20010904/DTD/svg10.dtd">
<svg version="1.0" xmlns="http://www.w3.org/2000/svg"
 width="900.000000pt" height="1200.000000pt" viewBox="0 0 900.000000 1200.000000"
 preserveAspectRatio="xMidYMid meet">
<metadata>
Created by potrace 1.10, written by Peter Selinger 2001-2011
</metadata>
<g transform="translate(0.000000,1200.000000) scale(0.100000,-0.100000)"
fill="#116466" stroke="none">
<path d="M4200 10365 c-58 -7 -118 -17 -135 -23 -16 -6 -68 -23 -115 -37 -106
-32 -227 -91 -241 -118 -10 -18 -9 -19 17 -12 40 11 152 17 192 10 18 -4 32
-12 32 -20 0 -11 11 -13 49 -8 54 6 79 -11 30 -21 -53 -10 -28 -30 47 -37 38
-4 105 -14 149 -23 91 -19 256 -45 330 -52 l50 -5 -28 26 c-15 14 -36 25 -46
25 -10 0 -24 7 -31 15 -7 9 -29 15 -51 15 -21 0 -40 4 -43 9 -10 15 26 22 82
15 52 -6 54 -6 50 17 -4 32 -62 44 -223 48 -118 2 -172 12 -134 25 56 20 421
11 599 -14 41 -6 125 -15 185 -21 61 -5 145 -13 188 -17 56 -6 81 -4 88 4 14
18 -6 27 -62 29 -26 1 -54 6 -61 12 -7 6 -34 13 -59 17 -36 5 -48 12 -52 28
-5 19 -11 20 -55 14 -40 -5 -56 -2 -96 19 -26 14 -54 25 -62 25 -8 0 -43 9
-77 21 -138 47 -310 58 -517 34z"/>
<path d="M5790 10360 c-9 -5 -3 -10 19 -15 17 -3 33 -11 36 -16 4 -5 13 -9 21
-9 26 0 365 -165 406 -197 7 -6 30 -13 51 -16 37 -6 67 -26 140 -92 20 -19 41
-35 46 -35 11 0 121 -101 121 -111 0 -4 -9 -10 -19 -14 -10 -3 -22 -16 -25
-28 -6 -20 -7 -20 -16 -5 -6 9 -23 19 -39 23 -16 3 -43 17 -62 31 -18 13 -38
24 -45 24 -6 0 -14 9 -17 20 -3 12 -14 20 -26 20 -12 0 -21 4 -21 10 0 5 -19
20 -42 32 -40 21 -65 30 -128 45 l-25 6 25 -26 c14 -15 33 -27 42 -27 10 0 22
-9 28 -20 9 -16 8 -20 -5 -20 -40 0 -112 25 -136 46 -14 13 -35 24 -48 24 -12
0 -34 6 -49 14 -15 7 -42 17 -59 21 -26 5 -33 3 -33 -9 0 -9 -7 -16 -15 -16
-8 0 -15 5 -15 10 0 6 -10 10 -23 10 -13 0 -28 5 -34 11 -6 6 -16 8 -22 5 -15
-10 15 -38 66 -61 40 -19 63 -48 48 -63 -3 -4 -30 6 -58 21 -29 15 -58 27 -65
27 -15 0 -16 -22 -1 -37 42 -42 -76 -41 -155 1 -28 15 -65 26 -86 26 -21 0
-43 7 -50 15 -7 8 -28 15 -47 15 -30 0 -34 -3 -28 -20 5 -14 2 -20 -10 -20
-12 0 -15 6 -10 19 5 15 0 21 -25 26 -40 9 -52 -3 -22 -22 24 -17 29 -38 11
-49 -6 -3 -28 2 -50 11 -34 16 -41 16 -60 3 -24 -15 -57 -12 -164 17 -27 8
-76 17 -108 21 -31 3 -60 10 -63 15 -3 5 -23 9 -46 9 -35 0 -39 -2 -28 -15 7
-8 20 -15 29 -15 40 0 56 -54 20 -65 -16 -5 -18 -10 -8 -21 6 -8 20 -14 31
-14 11 0 22 -9 25 -20 6 -22 29 -28 148 -35 207 -12 228 -12 257 3 18 8 42 12
61 8 18 -3 84 1 147 9 154 20 256 20 264 -1 3 -9 6 -20 6 -25 0 -13 -47 -11
-72 2 -30 16 -108 13 -143 -5 -16 -9 -45 -19 -63 -22 -40 -8 -37 -25 7 -38 21
-6 44 -5 70 4 40 13 60 12 208 -16 78 -14 90 -19 76 -29 -9 -7 -25 -10 -35 -7
-26 6 -22 -11 9 -47 31 -35 39 -37 64 -15 14 13 16 21 8 35 -22 43 30 55 57
14 18 -28 34 -33 34 -10 0 8 8 19 18 24 21 11 180 2 188 -10 3 -5 22 -9 43 -9
22 0 58 -9 82 -20 26 -11 66 -20 96 -20 28 0 55 -4 58 -10 3 -5 17 -10 30 -10
12 0 25 -7 28 -15 4 -8 28 -26 54 -40 26 -14 63 -35 81 -46 17 -12 59 -26 92
-33 55 -12 60 -11 55 4 -3 10 -3 24 1 33 5 13 11 14 32 5 56 -22 76 -34 110
-65 20 -18 38 -31 40 -28 8 7 -28 148 -44 172 -8 12 -14 33 -14 45 0 30 -26
71 -83 131 -25 26 -48 60 -52 74 -3 15 -20 43 -36 64 -16 20 -29 41 -29 45 0
18 -106 112 -150 134 -25 12 -56 32 -70 45 -14 13 -50 33 -80 45 -30 12 -63
26 -74 32 -10 5 -37 16 -60 23 -22 7 -63 22 -91 33 -80 32 -150 43 -419 67
-26 2 -54 6 -61 8 -6 3 -18 2 -25 -3z m-221 -424 c9 -10 9 -16 1 -21 -12 -7
-40 11 -40 26 0 14 26 10 39 -5z m-259 -41 c13 -14 19 -25 13 -25 -6 0 -13 7
-17 15 -3 8 -12 15 -21 15 -8 0 -15 5 -15 10 0 17 15 11 40 -15z m796 -106 c6
-5 44 -6 83 -3 51 5 71 4 71 -5 0 -6 -6 -13 -12 -15 -7 -2 -30 -9 -50 -15 -21
-7 -60 -13 -88 -13 -42 -1 -56 3 -77 24 -33 33 -23 51 25 42 20 -4 42 -11 48
-15z"/>
<path d="M5140 10231 c0 -12 37 -24 50 -16 20 12 10 25 -20 25 -16 0 -30 -4
-30 -9z"/>
<path d="M5260 10185 c0 -15 57 -54 73 -49 10 3 35 -4 57 -15 23 -12 66 -22
106 -25 36 -2 71 -9 77 -15 13 -13 57 -15 57 -2 0 5 -13 12 -30 16 -16 4 -32
11 -36 16 -9 15 -65 35 -119 44 -28 4 -57 10 -65 15 -17 8 -120 21 -120 15z"/>
<path d="M4570 10110 c20 -13 40 -13 40 0 0 6 -12 10 -27 10 -22 0 -25 -2 -13
-10z"/>
<path d="M3790 10089 c-68 -6 -113 -14 -148 -25 -10 -3 -10 -9 -2 -24 10 -19
8 -20 -42 -22 -76 -2 -81 -3 -105 -16 -12 -7 -27 -12 -33 -12 -6 0 -29 -12
-53 -27 -30 -19 -61 -29 -108 -33 -52 -5 -79 -15 -129 -45 -35 -21 -75 -40
-89 -41 -14 -1 -42 -5 -61 -9 -31 -6 -41 -2 -85 32 -74 58 -300 191 -338 198
-17 3 -42 11 -54 17 -17 8 -33 7 -70 -6 -26 -10 -65 -21 -87 -26 -49 -10 -88
-54 -81 -92 2 -15 0 -30 -5 -33 -16 -10 -12 -65 5 -65 8 0 15 -4 15 -8 0 -14
-49 -110 -59 -116 -5 -4 -15 -23 -21 -44 -31 -98 -68 -155 -165 -257 -41 -44
-75 -84 -76 -90 0 -5 -20 -37 -45 -70 -24 -33 -56 -82 -70 -110 -15 -27 -42
-74 -60 -103 -19 -29 -34 -57 -34 -63 0 -6 -7 -23 -14 -37 -20 -37 -43 -91
-52 -127 l-8 -30 -4 37 c-2 20 2 46 7 57 17 30 14 81 -4 81 -8 0 -15 -7 -15
-14 0 -8 -22 -45 -50 -81 -27 -36 -50 -74 -50 -84 0 -10 -15 -30 -33 -44 -29
-22 -36 -24 -48 -12 -9 8 -25 11 -43 8 -22 -4 -32 -15 -44 -44 -8 -22 -19 -39
-24 -39 -4 0 -8 -4 -8 -9 0 -20 -46 -80 -61 -81 -19 0 -38 -22 -62 -70 -10
-19 -25 -48 -33 -65 -8 -16 -19 -37 -25 -45 -9 -15 -23 -45 -40 -85 -4 -11
-17 -41 -28 -67 -22 -50 -27 -78 -12 -78 11 0 21 25 21 51 0 23 60 108 78 108
10 1 12 -26 9 -119 -3 -100 -6 -124 -23 -147 -11 -16 -30 -53 -43 -83 -13 -30
-29 -62 -36 -70 -15 -19 -29 -52 -26 -64 1 -5 -8 -19 -20 -32 -20 -22 -21 -31
-20 -189 1 -91 5 -176 10 -188 4 -12 7 -76 7 -143 -1 -115 -2 -122 -28 -152
-14 -17 -29 -45 -33 -62 -4 -16 -10 -30 -14 -30 -5 0 -20 -19 -35 -43 -16 -25
-59 -65 -104 -97 -105 -75 -262 -233 -262 -264 0 -5 -6 -17 -13 -25 -32 -39
-49 -135 -45 -252 5 -115 20 -173 86 -344 11 -27 30 -77 43 -110 30 -78 33
-253 5 -325 -10 -25 -21 -47 -24 -50 -4 -3 -15 -15 -26 -27 -15 -18 -16 -25
-6 -38 15 -19 9 -59 -24 -155 -14 -41 -26 -86 -26 -100 0 -14 -7 -38 -15 -54
-8 -15 -15 -40 -15 -55 0 -14 -7 -35 -15 -45 -8 -11 -15 -35 -15 -54 0 -18 -7
-40 -15 -48 -10 -10 -15 -34 -15 -67 1 -48 2 -50 15 -33 8 11 15 36 15 55 0
20 7 45 15 55 8 11 15 34 15 52 0 18 4 35 9 38 8 6 38 95 66 201 48 181 76
243 123 267 19 9 52 33 73 53 22 20 43 34 46 31 3 -3 -10 -36 -30 -73 -19 -37
-41 -87 -48 -111 -7 -23 -18 -47 -26 -53 -7 -6 -13 -20 -13 -30 0 -10 -6 -33
-14 -51 -41 -94 -55 -339 -28 -463 28 -125 46 -191 63 -230 22 -48 24 -83 5
-104 -21 -25 -30 -63 -14 -60 7 1 18 1 25 0 19 -2 31 -87 29 -201 -2 -76 1
-112 10 -125 11 -14 14 -15 17 -4 16 59 44 131 52 130 17 -1 17 -48 0 -82 -10
-18 -20 -53 -24 -78 -4 -28 -12 -45 -19 -44 -13 3 -15 -55 -3 -97 6 -22 12
-15 49 63 27 56 48 87 58 87 14 0 16 -10 12 -70 -4 -45 -11 -77 -22 -89 -9 -9
-16 -29 -16 -43 0 -13 -11 -47 -25 -74 -14 -27 -25 -54 -25 -60 0 -7 -14 -38
-31 -70 -17 -33 -44 -93 -59 -134 -16 -41 -36 -94 -46 -118 -19 -46 -13 -63
16 -45 15 10 23 8 44 -12 14 -13 26 -32 27 -42 0 -10 9 17 20 61 23 94 50 150
123 254 30 44 69 100 86 126 60 88 89 84 165 -19 16 -22 54 -63 85 -91 l55
-51 -3 -154 c-2 -105 2 -183 13 -244 8 -49 20 -182 26 -293 9 -179 8 -207 -5
-228 -9 -13 -16 -34 -16 -47 0 -34 -32 -123 -79 -219 -23 -46 -41 -89 -41 -95
0 -10 -38 -87 -97 -194 -10 -20 -39 -65 -63 -100 -24 -35 -60 -90 -82 -121
-40 -60 -47 -81 -24 -72 17 6 112 130 142 184 37 66 181 255 215 282 233 184
383 282 565 369 104 50 128 66 178 120 229 250 654 666 711 696 17 8 58 42 92
74 39 38 89 73 142 98 69 33 230 148 309 220 12 11 37 28 55 37 37 19 88 72
123 127 30 45 59 48 106 10 18 -15 36 -31 39 -35 8 -11 119 -39 129 -33 5 3
12 -4 15 -15 7 -23 28 -33 86 -44 30 -5 42 -2 73 23 21 17 44 27 52 24 8 -3
23 2 33 11 10 9 41 25 70 35 28 10 62 27 74 39 34 32 84 40 102 16 14 -19 17
-16 19 21 1 17 9 20 54 23 30 2 60 -2 67 -8 17 -14 35 -5 35 18 0 10 10 22 23
27 15 7 23 20 25 43 4 38 29 54 44 28 8 -15 12 -14 39 9 32 26 63 32 75 14 8
-14 80 -7 120 12 19 10 30 23 32 41 2 16 11 28 23 31 16 4 19 11 14 26 -3 12
-2 21 3 21 5 0 12 -17 16 -38 4 -28 1 -43 -15 -65 -20 -27 -20 -29 -3 -41 9
-7 14 -18 10 -24 -4 -6 5 -21 19 -34 29 -25 32 -46 8 -64 -22 -15 -8 -32 14
-18 13 8 21 6 35 -8 13 -13 26 -16 48 -12 26 6 30 4 30 -15 0 -11 5 -21 10
-21 18 0 10 -29 -12 -41 -24 -13 -15 -21 35 -33 20 -5 27 -3 27 8 0 15 24 28
34 19 9 -9 7 -36 -3 -52 -8 -12 -12 -13 -25 -1 -9 7 -19 10 -23 6 -9 -8 13
-47 48 -86 34 -37 34 -36 9 -43 -11 -3 -20 -10 -20 -16 0 -14 17 -14 25 0 5 7
14 4 26 -7 17 -15 19 -26 14 -72 -5 -50 -2 -61 36 -136 37 -72 41 -86 35 -129
-4 -36 -1 -55 11 -74 16 -23 16 -26 0 -35 -25 -13 -21 -29 13 -58 31 -26 33
-60 5 -60 -7 0 -18 -6 -24 -14 -9 -11 -6 -17 15 -31 l27 -17 -32 -14 c-39 -17
-49 -39 -26 -64 18 -20 15 -50 -5 -50 -6 0 -21 -9 -33 -21 -20 -19 -21 -21 -5
-33 9 -6 18 -25 20 -41 2 -24 8 -31 31 -33 15 -2 27 -7 27 -12 0 -16 -43 -33
-77 -32 -25 1 -33 -3 -33 -16 0 -10 5 -23 11 -29 7 -7 -2 -13 -33 -21 -42 -11
-43 -12 -45 -54 -2 -44 13 -98 27 -98 18 0 40 -33 40 -59 0 -31 23 -57 40 -46
6 4 24 4 40 0 24 -5 30 -13 35 -43 9 -54 44 -122 62 -122 9 0 24 7 33 15 15
14 21 13 58 -7 49 -28 106 -78 115 -102 4 -10 2 -26 -4 -37 -8 -16 -5 -29 14
-62 14 -23 31 -62 38 -86 12 -41 12 -45 -9 -61 -12 -10 -22 -26 -22 -37 0 -25
-120 -135 -208 -191 -41 -26 -100 -67 -131 -92 -57 -46 -155 -110 -169 -110
-4 0 -52 -29 -107 -65 -98 -64 -179 -107 -340 -180 -97 -44 -299 -115 -329
-115 -20 0 -208 -61 -244 -79 -32 -16 -282 -81 -407 -106 -140 -27 -261 -55
-365 -83 -37 -10 -130 -30 -265 -57 -44 -9 -100 -21 -125 -27 -61 -14 -117
-25 -230 -43 -112 -17 -179 -32 -238 -51 -23 -8 -59 -14 -78 -14 -19 0 -44 -5
-55 -11 -11 -5 -52 -16 -92 -24 -40 -7 -90 -19 -112 -25 -22 -7 -62 -16 -90
-22 -27 -5 -84 -20 -125 -33 -41 -13 -106 -32 -145 -43 -38 -11 -104 -30 -145
-42 -41 -13 -97 -28 -125 -35 -27 -6 -63 -17 -78 -23 -16 -7 -36 -12 -46 -12
-9 0 -21 -4 -26 -9 -6 -4 -35 -16 -65 -26 -30 -9 -78 -26 -105 -36 -28 -10
-56 -19 -62 -19 -7 0 -27 -6 -45 -14 -18 -8 -53 -20 -78 -27 -25 -7 -52 -18
-60 -25 -8 -6 -26 -15 -40 -19 -14 -3 -38 -12 -55 -20 -28 -13 -84 -36 -130
-54 -27 -11 -90 -31 -97 -31 -8 0 7 56 32 120 12 30 25 69 30 85 4 17 13 42
20 58 10 19 10 31 3 38 -11 11 -48 -10 -129 -74 -87 -67 -232 -170 -285 -200
-24 -13 -71 -41 -103 -61 -33 -20 -66 -36 -73 -36 -10 0 -13 23 -14 88 -1 48
-3 105 -5 127 -1 22 -7 137 -13 255 -27 506 -28 502 -30 -82 l-1 -568 3615 0
c1988 0 3615 2 3615 4 0 3 -25 23 -55 44 -96 69 -364 380 -429 497 -16 28 -35
58 -43 67 -11 13 -14 31 -9 75 7 71 -3 92 -67 133 -26 16 -53 42 -59 56 -11
24 -10 29 6 38 89 51 70 129 -41 171 -37 14 -48 25 -64 62 -10 25 -19 48 -19
53 0 5 -5 21 -12 37 -15 36 -20 121 -18 300 l1 143 -40 67 c-48 81 -95 146
-136 187 -17 17 -52 59 -78 94 -42 54 -49 71 -57 130 -5 37 -16 99 -24 137
-48 216 -65 345 -66 507 0 109 -3 132 -20 161 -24 41 -65 54 -80 26 -9 -15
-23 -18 -106 -16 -91 1 -97 3 -112 27 -23 35 -32 40 -65 33 -23 -5 -28 -3 -24
8 5 16 -38 98 -61 115 -13 10 -13 20 2 85 10 41 24 88 32 104 7 17 16 44 20
60 4 17 18 50 31 74 12 24 23 53 23 63 0 10 11 54 24 96 13 42 34 120 46 172
22 92 76 265 90 285 4 6 24 64 44 130 21 66 44 134 52 152 8 17 14 36 14 41 0
23 61 70 97 76 21 4 115 2 208 -4 360 -22 406 -23 530 -6 65 9 160 16 210 17
57 0 107 7 138 17 52 19 117 75 117 101 0 10 5 22 12 29 9 9 8 15 -8 27 -23
17 -31 18 -39 5 -11 -17 -46 -11 -103 18 -44 22 -59 36 -79 76 -25 49 -58 85
-79 86 -5 0 -25 16 -44 35 -29 30 -33 38 -22 53 7 9 19 31 27 49 8 17 19 34
25 38 5 3 10 15 10 27 0 20 4 20 71 14 60 -6 74 -5 90 10 24 21 26 105 4 148
-21 40 -19 43 11 13 29 -29 29 -29 90 23 33 28 64 69 64 85 0 5 -20 18 -44 28
-24 10 -49 29 -57 43 -7 14 -31 33 -52 43 l-39 18 28 6 c16 3 52 3 80 0 29 -3
54 -1 57 4 4 6 -7 28 -24 51 -27 37 -33 40 -64 35 -43 -7 -47 14 -11 50 12 13
26 30 30 38 4 9 8 10 11 3 25 -51 30 -50 74 15 42 61 72 83 134 96 18 3 31 15
38 33 16 40 2 170 -22 208 -25 41 -24 50 9 81 53 49 89 60 222 66 161 8 235
30 323 99 24 20 37 38 37 54 0 21 -5 24 -34 24 -19 0 -47 5 -63 11 -39 16
-201 13 -270 -5 -32 -8 -95 -18 -141 -21 l-83 -7 -42 37 c-58 49 -60 52 -75
70 -26 31 -44 12 -73 -75 -16 -47 -29 -101 -29 -120 0 -20 -13 -56 -30 -85
-16 -27 -35 -61 -41 -75 -22 -50 -26 -54 -52 -61 -27 -7 -37 4 -37 40 0 29
-44 63 -76 59 -23 -2 -29 1 -29 16 0 23 -76 49 -117 40 -37 -7 -65 3 -71 25
-4 16 -10 18 -46 11 -45 -8 -61 5 -61 49 0 22 -74 61 -115 61 -13 0 -35 6 -50
14 -15 8 -34 12 -41 9 -8 -3 -32 2 -54 11 -31 12 -46 14 -61 6 -23 -13 -89 6
-89 26 0 6 -7 17 -15 24 -8 7 -15 24 -15 39 -1 32 -69 111 -97 111 -11 0 -23
11 -29 29 -10 25 -16 28 -51 28 -58 0 -65 8 -58 57 7 47 -1 59 -50 70 -36 9
-50 9 -93 0 -19 -4 -38 -2 -46 5 -8 7 -29 9 -54 5 -37 -6 -41 -4 -44 17 -2 18
-10 24 -28 25 -52 1 -51 -2 -44 95 4 66 3 90 -5 85 -6 -4 -11 -15 -11 -25 0
-10 -3 -21 -7 -24 -10 -11 -52 34 -46 49 3 8 0 27 -7 43 -10 24 -8 35 9 69 11
22 25 44 31 47 15 9 2 25 -21 25 -10 0 -19 4 -19 8 0 17 33 77 47 85 22 14 15
37 -12 37 -21 0 -25 5 -25 30 0 17 7 47 15 67 18 43 18 43 1 43 -18 0 -56 59
-49 77 3 7 13 13 23 13 10 0 28 16 40 35 21 33 21 36 4 67 -9 18 -21 41 -25
50 -5 11 -1 28 14 50 32 49 67 114 67 126 0 6 15 25 33 44 l32 33 -32 3 c-24
2 -33 8 -33 21 0 25 9 31 35 21 28 -11 99 12 103 33 5 23 -29 57 -55 57 -31 0
-68 37 -54 54 13 15 4 26 -21 26 -12 0 -18 -7 -18 -25 0 -23 -24 -45 -49 -45
-19 0 -12 49 9 60 11 6 20 17 20 26 0 13 16 23 64 39 14 4 16 9 8 17 -8 8 -8
17 -1 30 6 10 9 29 7 40 -3 20 -8 22 -65 19 -35 -1 -63 1 -63 6 0 4 39 28 86
53 47 24 88 48 90 52 3 5 -5 12 -18 17 l-23 10 25 1 c18 0 30 10 43 36 25 51
21 59 -15 32 -49 -36 -97 -53 -111 -39 -6 6 -20 11 -30 11 -20 0 -20 9 -1 54
6 17 4 18 -22 13 -16 -3 -41 -3 -56 0 -24 4 -26 8 -17 25 6 10 21 24 35 30 14
6 24 19 23 27 -3 39 5 52 72 109 40 34 86 85 107 118 20 33 42 63 49 67 12 7
19 57 9 57 -12 0 -76 -43 -76 -51 0 -11 -97 -109 -108 -109 -5 0 -13 5 -18 10
-7 7 -24 3 -55 -15 -53 -30 -75 -31 -113 -6 l-28 19 24 16 c13 9 46 20 73 25
27 5 51 14 53 20 2 6 8 11 14 11 5 0 23 9 39 21 31 22 39 49 14 49 -18 0 -20
17 -2 23 9 4 9 7 0 18 -11 11 -15 10 -27 -6 -8 -12 -19 -16 -31 -11 -17 6 -17
8 -1 25 16 17 16 19 -4 24 -19 5 -68 -1 -159 -19 -32 -6 -34 -6 -29 20 3 15 0
30 -8 37 -18 14 -1 47 29 58 12 5 29 21 36 35 13 24 13 28 -7 46 -18 17 -31
20 -84 15 -94 -8 -109 -12 -153 -34 -47 -25 -78 -27 -99 -6 -8 9 -38 17 -67
20 -65 5 -80 24 -37 46 20 11 46 14 78 11 43 -4 49 -2 55 19 5 14 3 25 -4 27
-17 6 -13 22 5 22 32 0 9 34 -29 43 -20 5 -37 15 -37 23 0 7 6 11 13 8 13 -5
127 83 127 97 0 4 -9 9 -21 12 -40 11 -15 32 37 32 53 0 104 26 104 53 0 13 2
13 13 -3 15 -19 37 -13 37 10 0 19 -67 40 -84 26 -18 -15 -118 -19 -123 -5 -2
6 17 19 42 28 25 10 49 25 54 33 7 13 32 17 131 19 68 2 125 6 129 9 3 3 0 14
-5 23 -11 17 -58 20 -355 21 -69 0 -88 3 -92 16 -5 11 -21 15 -60 15 -29 0
-59 6 -66 13 -11 10 -14 10 -18 0 -5 -15 -110 -18 -132 -4 -17 11 7 18 69 23
49 4 44 21 -9 30 -25 4 -48 13 -51 19 -4 6 -29 9 -58 8 -37 -2 -56 2 -70 14
-23 21 -65 22 -97 1 -23 -15 -27 -15 -65 5 -22 12 -54 21 -71 21 -19 0 -39 9
-55 25 -14 14 -33 25 -43 25 -10 0 -40 12 -67 26 -27 14 -69 30 -94 34 -25 4
-89 19 -144 34 -54 14 -106 25 -115 24 -9 -1 -50 -5 -91 -9z m-1359 -284 c-28
-44 -59 -84 -123 -159 -14 -17 -29 -28 -33 -24 -9 8 10 44 52 94 18 23 33 50
33 60 0 10 4 24 8 30 8 12 85 54 90 49 2 -1 -10 -24 -27 -50z m143 -13 c3 -5
-14 -39 -37 -77 -23 -37 -52 -86 -65 -108 -12 -23 -31 -49 -42 -59 -11 -10
-20 -25 -20 -33 0 -8 -5 -15 -10 -15 -6 0 -15 -12 -21 -26 -5 -15 -12 -24 -16
-21 -3 4 2 23 12 42 9 21 14 47 11 60 -4 15 -1 25 9 29 8 3 15 12 15 21 0 32
60 133 97 163 39 32 58 39 67 24z m2400 -33 c17 -16 -2 -21 -40 -12 -52 12
-58 34 -7 26 21 -3 42 -9 47 -14z m-300 5 c15 -6 23 -34 10 -34 -15 0 -44 22
-39 31 7 11 9 11 29 3z m349 -19 c-6 -17 -25 -15 -31 3 -2 7 5 12 17 12 14 0
19 -5 14 -15z m-1442 -18 c-1 -12 -15 -9 -19 4 -3 6 1 10 8 8 6 -3 11 -8 11
-12z m113 -32 c3 -9 18 -15 40 -15 22 0 36 -6 40 -16 5 -13 14 -15 42 -9 29 5
40 2 56 -14 10 -12 27 -21 38 -21 20 0 39 -9 178 -81 34 -18 62 -39 62 -47 0
-11 -3 -12 -14 -3 -19 16 -46 3 -47 -23 -1 -15 -4 -11 -10 12 -10 33 -13 36
-60 46 -22 5 -28 2 -33 -17 -3 -13 0 -26 8 -32 7 -5 18 -20 25 -32 20 -39 -12
-28 -53 17 -28 32 -35 46 -30 65 5 19 2 26 -12 31 -36 11 -69 29 -77 41 -4 6
-20 14 -36 18 -16 3 -35 13 -42 21 -6 8 -24 14 -40 14 -15 0 -34 7 -42 15 -8
7 -26 17 -41 21 -37 9 -32 24 8 24 21 0 36 -6 40 -15z m1036 -185 c0 -5 -9
-10 -20 -10 -11 0 -20 5 -20 10 0 6 9 10 20 10 11 0 20 -4 20 -10z m195 -25
c0 -5 -10 -11 -22 -13 -16 -2 -23 2 -23 13 0 11 7 15 23 13 12 -2 22 -7 22
-13z m-2725 -4 c0 -5 -10 -30 -22 -57 l-23 -49 -3 32 c-2 20 4 42 15 57 18 26
33 33 33 17z m584 -140 c-14 -42 -19 -50 -22 -33 -2 13 1 28 6 35 5 7 13 32
18 57 6 33 9 39 12 21 2 -13 -4 -49 -14 -80z m-657 -39 c-29 -35 -46 -102 -67
-262 -11 -89 1 -160 26 -140 8 7 14 20 14 29 0 16 46 132 63 158 4 6 16 9 27
6 11 -3 20 0 20 6 0 6 5 11 10 11 6 0 10 -9 10 -21 0 -18 -15 -42 -63 -99 -17
-20 -47 -89 -47 -107 0 -11 -7 -14 -25 -11 -14 3 -25 5 -25 4 -1 0 -3 -75 -6
-166 -2 -91 -9 -187 -14 -213 -6 -27 -8 -53 -5 -58 8 -12 -17 -119 -28 -119
-13 0 -17 21 -22 135 -5 98 -9 162 -16 260 -1 17 1 77 4 135 6 90 5 100 -6 70
-7 -19 -16 -42 -22 -50 -8 -13 -21 -76 -42 -199 -5 -33 16 -120 43 -172 10
-20 10 -29 2 -37 -23 -23 -38 -13 -38 27 0 40 -20 68 -41 56 -31 -20 -39 88
-14 190 8 33 15 76 15 95 1 41 31 159 55 215 43 99 81 167 97 176 10 5 18 17
18 25 0 10 6 14 15 10 11 -4 15 2 15 26 0 21 9 42 28 61 l27 29 3 -27 c2 -15
-3 -34 -11 -43z m2406 31 c18 -10 39 -23 47 -29 8 -6 27 -14 41 -17 14 -4 38
-18 53 -32 15 -14 32 -25 38 -25 19 0 48 -32 48 -52 0 -26 -11 -23 -63 17 -25
19 -52 35 -59 35 -18 1 -58 35 -58 50 0 8 -9 11 -24 8 -17 -3 -35 5 -62 28
-36 31 -37 33 -16 34 13 0 38 -8 55 -17z m356 -82 c11 -7 9 -10 -8 -16 -26 -8
-49 4 -30 16 17 11 21 11 38 0z m-2149 -70 c0 -9 -10 -37 -21 -61 l-21 -44
-14 25 c-15 28 -19 89 -4 89 5 0 13 -8 19 -17 8 -16 10 -14 16 10 8 29 25 28
25 -2z m587 -39 c43 -31 96 -66 118 -76 22 -10 48 -23 57 -27 10 -5 24 -9 31
-9 7 0 42 -20 77 -45 35 -25 69 -45 75 -45 6 0 44 -22 84 -50 40 -27 75 -50
79 -50 3 0 13 -6 21 -14 16 -14 88 -51 201 -104 180 -85 282 -122 340 -122 19
0 49 -7 65 -16 42 -22 188 -65 260 -77 33 -5 74 -16 92 -23 17 -8 38 -14 46
-14 8 0 26 -9 40 -20 18 -14 48 -22 101 -27 100 -8 116 -26 39 -43 -37 -9 -96
0 -156 22 -15 6 -46 12 -70 13 -85 5 -227 38 -382 91 -192 65 -209 72 -265
104 -24 14 -37 17 -45 9 -7 -7 -4 -15 9 -25 15 -10 17 -17 9 -25 -8 -8 -15 -8
-25 0 -7 7 -35 26 -63 42 -91 53 -144 91 -193 136 -31 29 -62 39 -72 23 -10
-15 -43 4 -120 71 -19 16 -45 32 -57 35 -13 4 -23 10 -23 14 0 5 -17 19 -37
31 -21 13 -50 34 -65 49 -15 14 -46 37 -69 50 -23 14 -60 41 -83 61 -22 19
-56 45 -74 58 -17 12 -37 31 -42 42 -19 35 15 22 97 -39z m1491 10 c2 -7 -6
-12 -17 -12 -21 0 -27 11 -14 24 9 9 26 2 31 -12z m-690 -150 c3 -9 -2 -13
-14 -10 -9 1 -19 9 -22 16 -3 9 2 13 14 10 9 -1 19 -9 22 -16z m1416 -37 c16
-12 17 -17 6 -30 -24 -29 -58 -7 -44 30 7 18 14 18 38 0z m-2579 -35 c3 -5 13
-10 21 -10 16 0 64 -39 64 -53 0 -17 71 -97 86 -97 8 0 14 -9 14 -20 0 -11 20
-41 45 -66 25 -24 45 -51 45 -60 0 -10 6 -13 18 -10 18 6 33 -4 73 -54 30 -36
76 -85 168 -174 89 -87 104 -117 46 -89 -19 9 -35 19 -35 23 0 3 -24 31 -53
61 -28 31 -65 72 -81 92 -34 42 -46 45 -64 16 -14 -21 -18 -16 148 -190 39
-40 133 -124 235 -209 16 -14 71 -65 121 -115 92 -91 108 -106 202 -189 29
-25 50 -46 47 -46 -14 0 -107 64 -115 81 -6 10 -26 21 -46 25 -20 4 -38 13
-41 20 -3 8 -12 14 -21 14 -8 0 -24 7 -34 17 -10 9 -21 13 -26 9 -4 -4 1 -13
11 -20 9 -7 17 -16 17 -20 0 -12 43 -45 58 -46 7 0 15 -7 18 -15 4 -8 10 -15
15 -15 5 0 17 -8 27 -17 29 -28 68 -60 85 -69 16 -10 98 -77 129 -106 10 -10
21 -18 24 -18 14 0 74 -54 74 -67 0 -19 -36 0 -72 38 -15 16 -36 29 -47 29
-12 0 -21 4 -21 9 0 5 -26 26 -57 47 -32 21 -83 61 -113 90 -30 29 -77 69
-105 90 -27 20 -89 77 -137 125 -48 48 -96 90 -107 94 -26 8 -171 150 -171
167 0 13 -99 118 -111 118 -4 0 -9 -10 -11 -22 -2 -13 -10 -23 -18 -23 -10 0
-14 8 -12 24 2 14 -5 31 -17 42 -12 11 -21 25 -21 32 0 7 -9 20 -20 30 -11 9
-20 24 -20 33 0 9 -8 33 -19 53 -10 20 -33 65 -51 101 -18 36 -38 72 -45 80
-25 30 -95 162 -95 179 0 9 -7 26 -15 37 -16 22 -20 54 -6 54 6 0 13 -4 16
-10z m-337 -108 c-8 -9 -21 -39 -28 -67 -7 -27 -17 -54 -21 -59 -5 -6 -9 -18
-9 -28 0 -10 -13 -45 -30 -78 -16 -33 -30 -68 -30 -79 0 -23 -35 -47 -45 -31
-3 6 -2 25 4 43 20 69 33 123 35 157 2 19 6 49 11 65 8 34 60 130 84 158 15
18 16 16 29 -23 12 -35 12 -44 0 -58z m943 -25 c19 -19 49 -55 67 -80 l33 -47
-33 3 c-27 2 -35 8 -43 34 -6 17 -22 42 -37 56 -14 13 -31 34 -37 45 -18 35
10 28 50 -11z m-2081 -124 c0 -5 -5 -15 -10 -23 -8 -12 -10 -11 -10 8 0 12 5
22 10 22 6 0 10 -3 10 -7z m27 -59 c2 -7 -7 -25 -21 -40 -23 -26 -25 -27 -26
-9 0 38 12 66 28 63 8 -2 17 -8 19 -14z m2113 -35 c0 -11 -27 -12 -34 0 -3 4
-3 11 0 14 8 8 34 -3 34 -14z m-958 -71 c9 -78 -3 -237 -17 -241 -12 -2 -23
73 -24 168 -2 146 27 197 41 73z m2737 11 c-19 -12 -24 -2 -8 17 9 11 14 13
17 4 3 -7 -2 -16 -9 -21z m-39 -19 c0 -6 -7 -13 -15 -16 -20 -8 -48 3 -40 16
8 13 55 13 55 0z m178 -28 c5 -17 -27 -27 -41 -13 -9 9 -8 14 3 21 18 11 32 8
38 -8z m-2177 -45 c-13 -13 -26 -3 -16 12 3 6 11 8 17 5 6 -4 6 -10 -1 -17z
m2079 14 c0 -14 -18 -23 -30 -16 -6 4 -8 11 -5 16 8 12 35 12 35 0z m-2682
-124 c3 -46 -10 -87 -28 -87 -11 0 -13 47 -4 103 9 51 28 41 32 -16z m572 -87
c0 -5 14 -25 30 -43 34 -40 37 -49 13 -40 -42 15 -86 93 -53 93 6 0 10 -4 10
-10z m-440 -116 c0 -13 4 -24 9 -24 7 0 31 -73 31 -95 0 -18 -24 13 -41 52
-20 48 -26 108 -9 98 6 -3 10 -17 10 -31z m894 -8 c16 -15 33 -26 37 -26 4 0
37 -29 74 -65 36 -36 63 -65 60 -65 -29 0 -235 168 -235 192 0 11 27 -4 64
-36z m-997 -13 c-3 -10 -5 -2 -5 17 0 19 2 27 5 18 2 -10 2 -26 0 -35z m155
-145 c-9 -9 -12 -7 -12 12 0 19 3 21 12 12 9 -9 9 -15 0 -24z m2558 -64 c0
-16 -16 -19 -25 -4 -8 13 4 32 16 25 5 -4 9 -13 9 -21z m-2398 -41 c17 -15 25
-53 11 -53 -14 0 -43 34 -43 52 0 22 8 23 32 1z m1241 -298 c43 -8 50 -25 9
-25 -30 0 -72 24 -72 42 0 7 4 7 13 0 6 -6 29 -13 50 -17z m-298 -57 c14 -6
25 -15 25 -20 0 -15 53 -59 87 -73 18 -8 33 -20 33 -28 0 -17 -39 -27 -66 -16
-28 10 -159 -17 -203 -42 -46 -26 -124 -122 -141 -173 -7 -22 -13 -78 -14
-125 -1 -90 15 -133 53 -146 21 -6 76 21 127 64 l39 32 -24 18 c-24 18 -24 20
-8 45 9 14 17 43 17 65 0 43 4 46 73 56 44 7 46 6 93 -44 35 -37 56 -51 75
-51 15 0 32 -7 39 -15 7 -8 30 -18 51 -21 22 -4 39 -9 39 -12 0 -11 -36 -31
-57 -32 -73 -1 -95 -276 -32 -406 11 -23 43 -67 72 -99 l52 -57 61 13 61 12
56 -37 c53 -35 61 -37 106 -31 67 9 94 38 89 96 -2 26 1 44 9 46 21 8 51 -35
59 -82 14 -96 -79 -214 -158 -200 -43 7 -67 -8 -52 -32 13 -20 68 -24 144 -11
25 4 53 9 64 10 21 3 59 -60 91 -149 15 -43 16 -56 6 -81 -43 -104 -173 -109
-371 -14 -149 71 -175 85 -195 102 -26 21 -74 52 -101 65 -30 14 -86 66 -103
96 -20 36 -70 103 -131 177 -31 37 -77 96 -103 132 -26 36 -62 85 -80 109 -35
47 -43 60 -103 171 -41 73 -46 90 -64 199 -27 156 76 348 245 456 28 18 62 35
76 38 13 2 27 5 31 6 4 0 19 -4 33 -11z m-1730 -255 c-1 -55 -17 -104 -50
-165 -8 -14 -15 -38 -15 -51 0 -14 -4 -28 -9 -32 -18 -10 -21 13 -7 46 8 19
19 68 26 109 7 41 17 79 22 85 4 5 8 21 8 35 0 15 3 30 6 33 15 15 21 -6 19
-60z m65 -54 c0 -20 -15 -26 -24 -10 -8 13 4 42 15 35 5 -3 9 -14 9 -25z m-30
-101 c0 -13 -5 -30 -10 -38 -7 -11 -10 -5 -10 23 0 20 5 37 10 37 6 0 10 -10
10 -22z m-34 -105 c-13 -24 -15 -25 -16 -7 0 11 5 25 12 32 19 19 21 6 4 -25z
m111 -130 c-2 -27 -3 -5 -3 47 0 52 1 74 3 48 2 -27 2 -69 0 -95z m-1487 43
c0 -7 -7 -19 -15 -26 -8 -7 -15 -16 -15 -21 0 -5 -10 -26 -23 -47 -27 -43 -57
-133 -57 -169 0 -13 -7 -38 -16 -56 -11 -21 -12 -28 -3 -19 27 25 31 11 24
-84 -6 -77 -4 -99 8 -112 15 -18 23 -76 36 -283 5 -70 15 -143 22 -163 10 -29
11 -41 1 -54 -6 -9 -20 -33 -31 -52 -26 -48 -127 -157 -137 -147 -4 4 0 31 8
60 24 77 8 166 -52 307 -17 41 -37 89 -43 105 -5 17 -16 44 -22 60 -19 47 -26
223 -10 254 7 14 16 57 20 95 6 56 15 81 46 129 39 59 112 141 184 205 38 33
75 42 75 18z m3726 -96 c14 0 24 -6 24 -14 0 -8 16 -28 35 -45 31 -27 34 -34
24 -53 -7 -12 -9 -41 -6 -69 7 -61 -8 -84 -44 -70 -40 15 -67 56 -78 119 -6
31 -15 70 -21 86 -11 33 4 61 27 51 8 -3 26 -5 39 -5z m-1895 -243 c-14 -15
-21 -17 -21 -8 0 21 33 56 38 41 3 -7 -5 -22 -17 -33z m-36 -37 c-3 -5 -13
-10 -21 -10 -8 0 -14 5 -14 10 0 6 9 10 21 10 11 0 17 -4 14 -10z m3275 -40
c0 -14 -7 -20 -23 -20 -13 0 -26 3 -30 6 -12 12 6 34 29 34 17 0 24 -6 24 -20z
m-3450 -48 c0 -12 -23 -32 -37 -32 -9 0 -8 6 5 19 18 21 32 26 32 13z m3317
-126 c-3 -8 3 -23 14 -35 25 -27 29 -26 26 2 -2 18 3 23 32 25 49 5 87 -6 72
-21 -21 -21 -11 -29 29 -22 36 6 40 5 40 -14 0 -11 -4 -23 -10 -26 -13 -8 -13
-62 0 -70 13 -8 10 -138 -4 -147 -7 -5 -5 -16 7 -37 17 -29 17 -29 -17 -80
-19 -28 -42 -58 -50 -67 -21 -20 -20 -44 1 -59 32 -23 5 -38 -58 -31 -49 6
-59 4 -59 -8 0 -8 4 -17 9 -20 5 -3 7 -15 4 -26 -7 -25 -39 -26 -52 -3 -8 15
-12 16 -35 3 -22 -11 -30 -11 -50 0 -21 11 -28 10 -54 -9 -17 -12 -45 -21 -65
-21 -20 0 -39 -4 -42 -10 -3 -5 -14 -10 -24 -10 -28 0 -35 60 -10 80 15 12 17
18 7 28 -16 16 -28 15 -28 -2 0 -29 -21 -27 -31 3 -7 21 -18 31 -31 31 -27 0
-90 39 -82 51 3 5 14 9 25 9 26 0 24 27 -3 34 -31 7 -88 61 -88 81 0 9 9 19
20 22 11 3 20 11 20 17 0 7 15 16 33 21 25 8 31 15 30 33 -2 12 -4 32 -5 45
-3 20 1 22 37 22 38 0 40 2 45 34 4 30 10 36 40 44 46 11 56 22 40 42 -11 14
-10 17 8 22 12 3 22 9 22 14 0 5 9 18 20 29 24 24 68 26 84 5 10 -14 17 -13
56 9 51 28 85 33 77 12z m1367 -227 c14 -17 26 -35 26 -41 0 -6 18 -30 40 -54
22 -24 40 -48 40 -54 0 -18 -47 -41 -109 -52 -53 -10 -63 -9 -79 5 -10 9 -32
22 -49 28 -44 15 -47 34 -13 84 17 24 30 54 30 67 0 57 72 67 114 17z m-1864
-229 c0 -19 -11 -26 -23 -14 -8 8 3 34 14 34 5 0 9 -9 9 -20z m140 -215 c0
-21 5 -25 30 -25 31 0 35 -6 24 -34 -10 -26 -42 -18 -59 14 -9 17 -20 30 -25
30 -14 0 -12 -14 2 -28 8 -8 9 -15 2 -22 -15 -15 -79 42 -71 63 3 9 13 14 21
11 8 -3 17 -1 21 5 3 6 17 11 31 11 19 0 24 -5 24 -25z m1374 -95 c85 -41 114
-66 99 -81 -15 -15 -69 -14 -87 0 -7 6 -28 12 -47 14 -33 2 -34 4 -37 50 -2
26 0 47 4 47 3 0 34 -13 68 -30z m96 -126 c0 -16 -9 -18 -29 -5 -7 5 -11 14
-7 19 9 15 36 4 36 -14z m-122 -12 c3 -17 -2 -22 -17 -22 -16 0 -21 6 -21 26
0 33 33 30 38 -4z m191 -61 c16 -16 17 -22 7 -37 -17 -23 -36 -9 -36 27 0 34
4 35 29 10z m-3699 -637 c0 -14 -4 -23 -10 -19 -5 3 -10 15 -10 26 0 10 5 19
10 19 6 0 10 -12 10 -26z m70 -119 c0 -13 -4 -26 -9 -29 -11 -7 -22 31 -14 50
8 20 23 7 23 -21z m-2550 -227 c0 -10 -4 -18 -10 -18 -5 0 -10 15 -10 33 0 24
3 28 10 17 5 -8 10 -23 10 -32z m4653 -1290 c-2 -5 -8 -8 -14 -8 -11 0 -12 73
-1 84 8 8 23 -64 15 -76z"/>
<path d="M4227 7003 c-12 -11 -8 -23 8 -23 8 0 15 7 15 15 0 16 -12 20 -23 8z"/>
<path d="M4140 6430 c0 -37 90 -125 143 -142 37 -11 39 -10 62 18 15 18 19 30
12 32 -12 4 -97 43 -154 71 -18 8 -33 19 -33 23 0 5 -7 8 -15 8 -8 0 -15 -5
-15 -10z"/>
<path d="M5610 5830 c0 -13 28 -25 38 -16 3 4 0 11 -8 16 -20 13 -30 12 -30 0z"/>
<path d="M5655 10069 c-3 -4 10 -15 28 -23 19 -8 38 -19 41 -25 4 -6 16 -11
26 -11 39 0 27 17 -31 42 -32 14 -61 22 -64 17z"/>
<path d="M5287 10032 c-17 -7 -17 -9 2 -26 24 -21 54 -14 49 11 -4 20 -24 25
-51 15z"/>
<path d="M2232 10003 c-16 -18 -22 -33 -17 -50 l6 -24 23 28 c45 53 33 98 -12
46z"/>
<path d="M4640 10022 c0 -25 122 -50 128 -27 1 6 -22 11 -53 13 -30 2 -55 7
-55 12 0 6 -4 10 -10 10 -5 0 -10 -4 -10 -8z"/>
<path d="M2206 9843 c-3 -10 -9 -25 -12 -33 -4 -8 3 -5 15 7 22 23 28 43 12
43 -5 0 -11 -8 -15 -17z"/>
<path d="M5720 9709 c0 -24 45 -59 78 -59 37 0 53 24 31 45 -18 17 -109 28
-109 14z"/>
<path d="M1737 9133 c-12 -11 -8 -23 8 -23 8 0 15 7 15 15 0 16 -12 20 -23 8z"/>
<path d="M5363 9095 c-3 -9 -3 -18 -1 -21 9 -9 38 8 38 22 0 19 -29 18 -37 -1z"/>
<path d="M1620 9035 c-10 -12 -9 -16 4 -21 19 -7 21 -45 4 -62 -7 -7 -8 -12
-2 -12 32 0 42 42 20 84 -11 23 -15 24 -26 11z"/>
<path d="M1567 8974 c-71 -85 -97 -144 -63 -144 8 0 17 -8 20 -17 5 -12 10
-13 18 -5 8 8 8 15 -2 27 -10 12 -10 21 -3 38 6 12 18 38 27 58 9 20 22 42 31
49 16 13 20 31 8 29 -5 0 -21 -16 -36 -35z"/>
<path d="M5706 8245 c-11 -8 -17 -17 -14 -21 8 -8 48 14 48 26 0 14 -12 12
-34 -5z"/>
<path d="M5850 8152 c-79 -29 -90 -39 -90 -77 0 -19 5 -35 10 -35 6 0 40 29
77 65 36 36 62 65 57 64 -5 0 -29 -8 -54 -17z"/>
<path d="M6985 7990 c-86 -9 -99 -14 -155 -60 -25 -20 -74 -56 -109 -79 -122
-81 -240 -181 -258 -219 -7 -15 -18 -35 -25 -44 -10 -14 -10 -22 0 -38 18 -30
15 -46 -15 -69 -48 -36 -53 -41 -53 -57 0 -9 9 -18 20 -21 27 -7 25 -26 -5
-59 -30 -32 -32 -48 -6 -39 13 4 36 -12 86 -60 65 -64 149 -115 187 -115 20 0
23 -11 7 -27 -13 -13 -3 -21 56 -44 34 -13 40 -19 37 -42 -2 -21 3 -29 21 -36
13 -5 37 -20 53 -35 39 -32 131 -68 155 -61 17 6 79 81 79 97 0 4 11 18 24 31
12 13 25 29 27 35 2 7 21 15 42 19 28 4 42 1 57 -12 17 -15 24 -16 45 -7 33
15 41 38 21 61 -35 38 -19 49 70 45 33 -1 66 1 72 5 17 10 17 79 0 126 -10 28
-13 76 -11 160 3 145 18 245 45 305 11 25 23 71 25 102 8 83 -7 102 -99 122
-82 18 -288 26 -393 16z m95 -226 c0 -2 -5 -14 -11 -27 -10 -23 -14 -24 -46
-14 -27 8 -36 8 -43 -3 -4 -7 -15 -10 -24 -7 -19 7 -32 35 -21 45 14 14 145
20 145 6z m-340 -135 c0 -5 -7 -9 -15 -9 -15 0 -20 12 -9 23 8 8 24 -1 24 -14z
m-90 -6 c0 -15 -19 -37 -26 -31 -4 4 -16 1 -28 -7 -26 -19 -86 -20 -86 -2 0
19 59 46 103 46 20 1 37 -2 37 -6z m520 -163 c0 -12 -38 -28 -85 -37 -30 -6
-30 -6 -11 15 23 27 96 43 96 22z"/>
<path d="M7262 6597 c-13 -15 -27 -67 -18 -67 7 0 46 61 46 73 0 11 -16 8 -28
-6z"/>
<path d="M5187 3074 c-8 -8 1 -24 14 -24 5 0 9 7 9 15 0 15 -12 20 -23 9z"/>
</g>
</svg>
