<?xml version="1.0" standalone="no"?>
<!DOCTYPE svg PUBLIC "-//W3C//DTD SVG 20010904//EN"
 "http://www.w3.org/TR/2001/REC-SVG-20010904/DTD/svg10.dtd">
<svg version="1.0" xmlns="http://www.w3.org/2000/svg"
 width="300.000000pt" height="400.000000pt" viewBox="0 0 300.000000 400.000000"
 preserveAspectRatio="xMidYMid meet">
<metadata>
Created by potrace 1.10, written by Peter Selinger 2001-2011
</metadata>
<g transform="translate(0.000000,400.000000) scale(0.050000,-0.050000)"
fill="#116466" stroke="none">
<path d="M2815 7049 c-6 -7 -57 -16 -113 -20 -246 -21 -246 -65 0 -54 248 11
462 -12 711 -77 84 -22 157 -35 162 -29 17 17 -159 83 -234 88 -38 2 -74 11
-80 20 -26 38 -417 101 -446 72z"/>
<path d="M2525 6888 c7 -11 -21 -16 -64 -12 -52 5 -110 -9 -185 -44 -61 -29
-126 -52 -145 -52 -19 0 -60 -27 -91 -60 -74 -79 -169 -79 -329 1 -105 51
-266 87 -196 43 21 -14 -73 -138 -239 -314 -24 -26 1 42 40 110 46 80 -85 -74
-170 -199 -40 -60 -89 -163 -108 -230 -92 -324 -138 -407 -138 -251 0 53 -8
78 -25 75 -81 -16 23 228 179 420 38 47 60 85 49 85 -35 0 -281 -302 -304
-373 -14 -44 -34 -66 -54 -62 -94 16 -199 -382 -177 -675 5 -67 2 -103 -6 -81
-14 36 -17 35 -26 -14 -6 -32 -2 -49 9 -42 11 7 5 -10 -12 -36 -30 -45 -29
-50 13 -75 35 -21 39 -22 19 0 -37 39 -30 66 8 28 30 -30 29 -35 -10 -72 -24
-22 -43 -53 -43 -69 0 -16 -12 -29 -28 -29 -15 0 -38 -13 -52 -30 -29 -35 -13
-39 41 -9 60 32 50 -27 -18 -105 -72 -83 -99 -173 -100 -331 -1 -232 -45 -275
-82 -80 -29 153 -3 292 72 391 69 91 47 102 -29 15 -84 -95 -108 -193 -83
-331 45 -244 44 -284 -8 -449 -28 -88 -49 -161 -47 -164 16 -15 54 38 105 143
54 114 57 117 64 60 10 -91 -170 -460 -273 -559 -45 -44 -82 -86 -82 -94 0 -8
40 28 90 79 l89 94 1 -158 c0 -138 -6 -166 -50 -224 -30 -39 -45 -78 -37 -98
10 -27 19 -23 51 24 l39 56 -10 -80 c-14 -122 -42 -212 -102 -331 -34 -67 -59
-155 -66 -229 l-10 -120 52 76 c59 84 65 103 28 82 -15 -8 -18 -7 -8 4 9 10
24 18 34 18 9 0 54 50 99 110 104 140 103 140 142 -50 75 -372 40 -689 -97
-876 -56 -77 -68 -109 -59 -160 9 -60 -44 -169 -71 -143 -5 6 -33 -56 -62
-136 -56 -154 -81 -635 -33 -635 11 0 20 -13 20 -30 0 -61 39 -27 52 45 7 41
23 88 36 103 38 48 108 262 90 274 -10 6 3 39 29 74 26 35 80 127 121 205 102
198 169 271 368 404 96 65 256 198 355 296 200 198 384 361 605 537 81 64 142
121 135 127 -6 7 -32 -8 -58 -32 -42 -39 -50 -41 -72 -14 -14 17 -17 31 -7 31
11 0 20 38 20 85 1 237 58 555 99 555 17 0 23 26 19 80 -4 44 1 80 9 80 21 0
12 34 -41 150 -57 126 -55 124 -89 79 -15 -22 -35 -32 -43 -24 -8 9 5 43 29
76 25 33 39 69 33 79 -7 11 0 15 16 9 15 -6 39 3 53 20 38 46 57 38 46 -19 -8
-40 -3 -48 23 -38 20 7 32 2 33 -15 0 -15 1 -112 2 -217 1 -104 10 -208 19
-230 13 -27 16 9 12 110 -4 83 -2 177 6 210 l12 60 16 -66 c18 -76 -2 -345
-31 -422 -11 -28 -22 -119 -25 -202 -3 -94 -18 -175 -40 -216 -19 -37 -31 -77
-27 -89 14 -42 140 98 185 206 37 89 67 125 168 195 l122 87 2 -57 2 -56 21
65 c22 70 55 87 55 30 1 -29 4 -30 19 -6 12 19 11 35 -2 43 -13 8 1 46 36 100
l57 88 6 -68 c4 -37 -3 -77 -15 -89 -47 -47 -25 -131 34 -127 35 3 53 -5 50
-21 -3 -14 2 -25 10 -25 8 0 16 -23 18 -52 4 -63 24 -86 87 -98 54 -10 84 -48
69 -88 -20 -56 31 -84 77 -41 23 21 53 39 68 39 37 0 180 -148 171 -176 -5
-13 11 -48 35 -78 24 -30 34 -58 23 -62 -12 -4 -15 -21 -8 -39 8 -21 4 -27
-12 -17 -30 19 -29 12 7 -74 20 -49 23 -76 8 -85 -11 -7 -16 -25 -11 -39 6
-15 -2 -31 -17 -37 -16 -6 -23 -27 -16 -52 6 -22 19 -36 28 -30 10 6 18 3 18
-8 0 -11 -11 -24 -25 -30 -19 -7 -19 -10 -1 -11 15 -1 19 -16 12 -35 -9 -23
-5 -29 11 -19 13 8 23 2 23 -15 0 -19 -13 -26 -38 -19 -21 5 -44 0 -51 -12 -7
-12 -4 -22 8 -22 11 0 19 -10 16 -22 -3 -13 6 -27 20 -32 14 -5 25 5 25 22 0
75 34 22 60 -93 20 -91 30 -111 35 -72 8 60 64 59 135 -3 22 -20 69 -50 105
-68 35 -18 80 -56 99 -85 31 -48 34 -49 48 -13 27 73 40 296 20 356 -17 54
-19 55 -20 12 -3 -64 -148 81 -232 231 l-56 99 51 159 c28 88 57 186 65 219 7
33 44 161 83 285 87 278 97 285 293 222 201 -65 524 -67 608 -5 61 46 87 128
40 128 -35 0 -85 57 -98 112 -11 45 49 99 86 77 12 -8 15 7 7 39 -12 46 -5 56
59 82 65 27 72 38 72 105 0 54 12 83 40 100 75 47 52 102 -35 83 -41 -10 -101
-23 -133 -29 -32 -6 -84 -39 -115 -72 -56 -60 -131 -68 -111 -12 5 14 0 41 -9
60 -11 21 -11 35 0 35 10 0 17 22 16 50 -2 39 -11 47 -43 39 -40 -11 -40 -11
0 15 32 21 40 48 40 131 0 68 8 105 24 105 17 0 16 19 -6 72 -17 39 -27 82
-23 94 9 27 -80 114 -118 114 -15 0 -27 10 -27 21 0 12 -9 16 -19 9 -35 -21
-200 69 -312 171 -60 54 -123 99 -140 99 -17 0 -26 9 -19 21 8 11 -10 39 -38
61 -54 43 -65 129 -18 147 14 5 26 20 26 32 0 12 -11 15 -23 7 -15 -9 -20 -4
-12 14 40 98 39 108 -4 58 l-43 -50 42 87 c24 48 34 82 24 75 -11 -6 -25 2
-31 18 -7 18 4 40 27 54 30 20 33 30 14 53 -19 23 -19 31 1 38 14 5 25 24 25
44 0 20 42 77 93 128 51 51 79 93 64 93 -16 0 -39 -10 -51 -22 -12 -12 -33
-16 -45 -9 -23 15 -20 99 5 124 29 28 13 41 -41 33 l-55 -9 48 27 c63 34 83
85 26 67 -67 -21 -112 61 -62 111 21 21 44 38 51 38 14 0 57 51 90 109 22 38
21 38 -27 7 -28 -18 -85 -39 -128 -46 -70 -11 -74 -10 -34 14 24 14 45 35 46
46 2 11 9 25 15 30 6 6 5 -1 -3 -15 -14 -25 11 -35 33 -13 22 22 -63 86 -105
78 -22 -4 -36 1 -29 11 6 10 2 19 -10 19 -41 0 -20 38 39 73 33 20 60 49 60
64 0 21 -11 17 -36 -13 -40 -46 -244 -86 -244 -48 0 11 -20 16 -45 11 -25 -4
-4 9 45 31 50 22 77 40 60 41 -27 1 -27 4 0 21 27 17 27 20 0 21 -51 3 106 56
171 57 34 1 70 -7 81 -18 11 -11 66 -22 122 -24 57 -3 99 -12 93 -20 -5 -9 13
-16 40 -16 27 0 54 -13 60 -30 13 -32 113 -42 113 -12 0 24 106 -28 208 -102
105 -75 136 -73 121 8 -28 161 -186 317 -369 365 -48 12 -48 12 -8 -13 66 -41
263 -223 215 -198 -24 12 -56 34 -70 48 -58 58 -272 151 -294 129 -16 -16 -45
-15 -104 3 -46 14 -120 20 -166 14 -54 -7 -65 -5 -33 5 44 13 46 16 13 29 -20
8 -45 9 -56 2 -10 -6 -64 5 -119 25 -87 31 -103 32 -119 6 -14 -23 -3 -33 51
-48 39 -10 70 -24 70 -31 0 -27 -210 13 -430 82 -66 20 -138 36 -160 35 -22
-1 -93 5 -158 14 -71 9 -114 8 -107 -3z m95 -177 c39 -17 84 -39 100 -50 17
-11 109 -57 205 -103 175 -84 250 -138 191 -138 -17 0 -46 18 -66 40 -19 21
-43 34 -53 28 -10 -6 -41 8 -70 31 -29 23 -58 37 -64 31 -5 -6 7 -24 28 -41
38 -30 38 -31 -3 -11 -23 11 -59 19 -80 18 -21 -2 -78 25 -128 58 -49 33 -139
72 -200 86 -151 36 -238 74 -200 88 50 18 208 23 240 8 17 -8 62 -29 100 -45z
m-365 -100 c3 -3 -28 -6 -68 -7 -91 -4 -134 20 -67 37 40 10 101 -4 135 -30z
m-840 -86 c-70 -69 -89 -50 -22 22 28 31 56 50 63 44 7 -7 -12 -36 -41 -66z
m145 47 c0 -30 -224 -380 -257 -400 -11 -7 24 65 79 159 54 94 98 181 98 193
0 12 16 34 35 48 44 34 45 34 45 0z m930 -43 c36 -17 86 -54 113 -83 l47 -51
-65 33 c-36 18 -65 41 -65 50 0 9 -34 30 -75 47 -41 17 -63 32 -48 33 15 1 56
-12 93 -29z m-292 -86 c47 -24 93 -39 103 -32 10 6 57 -15 104 -47 118 -81
311 -176 395 -194 39 -8 88 -25 110 -37 22 -12 48 -19 59 -16 49 15 122 -21
81 -40 -34 -15 -32 -16 14 -10 30 4 50 0 45 -8 -5 -9 6 -20 26 -25 28 -8 26
-10 -8 -12 -51 -2 -235 50 -314 90 -52 26 -56 25 -46 -3 11 -28 8 -28 -32 0
-52 37 -83 40 -63 8 9 -15 5 -18 -9 -9 -13 8 -20 21 -15 29 5 8 -10 27 -34 42
-41 26 -42 25 -14 -9 28 -34 27 -35 -16 -12 -25 13 -41 31 -35 40 5 8 -2 16
-15 16 -13 1 -96 42 -184 93 -98 56 -176 89 -200 83 -22 -5 -28 -4 -13 2 33
15 -80 88 -136 88 -21 0 -43 8 -49 17 -19 30 160 -9 246 -54z m-2 -358 c104
-102 183 -185 176 -185 -19 0 -113 60 -171 109 -43 36 -46 36 -20 3 16 -21 88
-85 159 -143 72 -58 171 -144 221 -192 51 -48 71 -69 45 -48 -109 91 -106 39
4 -62 l120 -110 -135 103 c-121 93 -204 173 -135 130 17 -11 21 -8 12 7 -8 13
-22 19 -31 13 -10 -5 -55 21 -101 60 -96 80 -93 79 -93 41 0 -16 5 -27 11 -25
7 2 14 -3 17 -11 9 -28 -17 -17 -76 33 -32 27 -60 61 -61 76 -1 20 -3 20 -12
-1 -6 -16 -26 16 -46 73 -20 55 -71 148 -115 207 -97 130 -133 197 -107 197
11 0 25 -9 32 -20 21 -34 49 -22 38 15 -6 19 10 8 35 -25 25 -33 130 -143 233
-245z m-258 -20 c14 -41 29 -88 34 -105 5 -16 -13 11 -40 60 -55 98 -61 120
-35 120 9 0 28 -34 41 -75z m-58 -84 c0 -17 5 -53 11 -81 11 -55 -36 57 -59
140 -14 48 -13 48 17 11 17 -21 31 -53 31 -70z m-612 34 c-8 -14 -34 -52 -58
-85 -24 -33 -48 -73 -53 -89 -6 -19 -14 -22 -23 -7 -7 11 18 63 57 114 66 86
109 124 77 67z m566 -215 c25 -27 46 -42 46 -32 0 10 21 -13 46 -50 25 -37 56
-68 69 -68 13 0 35 -13 49 -29 22 -25 21 -25 -9 -3 -19 15 -35 21 -35 13 0
-26 -84 47 -171 149 -49 57 -89 114 -88 127 0 12 11 5 23 -17 13 -22 44 -62
70 -90z m-613 24 c-19 -67 4 -88 35 -32 14 25 18 16 16 -35 -3 -71 -41 -157
-71 -157 -19 0 -11 196 10 263 21 65 30 30 10 -39z m1473 -429 c87 -60 83 -72
-20 -60 -152 17 -307 -180 -211 -268 47 -42 103 -18 113 49 8 49 46 40 112
-26 31 -31 40 -56 30 -82 -46 -117 13 -304 104 -330 26 -7 75 -28 108 -46 56
-29 62 -29 85 2 23 31 25 30 25 -9 0 -59 -48 -101 -109 -94 -28 3 -46 -3 -40
-13 6 -10 46 -18 89 -18 82 0 126 -83 92 -172 -27 -71 -432 156 -432 242 0 14
-17 46 -38 73 -274 348 -302 604 -84 752 84 56 94 56 176 0z m-1775 -256 c-72
-145 -104 -145 -42 -1 24 55 43 119 43 142 0 39 3 40 31 12 27 -27 24 -43 -32
-153z m92 -9 c-8 -65 -30 -125 -55 -153 -37 -41 -40 -42 -26 -7 9 22 19 67 23
100 8 79 55 216 64 189 4 -12 1 -70 -6 -129z m1699 70 c7 -12 -18 -20 -64 -20
-56 1 -68 6 -46 20 39 25 94 25 110 0z m302 -371 c15 -59 2 -79 -41 -62 -40
15 -41 113 -1 113 16 0 35 -23 42 -51z m686 -305 c44 -42 52 -172 10 -156 -26
10 -31 3 -23 -38 8 -44 3 -50 -48 -50 -31 0 -57 -9 -57 -20 0 -12 -18 -12 -51
0 -46 18 -48 16 -29 -20 15 -27 15 -40 1 -40 -12 0 -21 9 -21 20 0 11 -22 20
-50 20 -27 0 -50 -9 -50 -21 0 -49 -50 31 -54 87 -5 69 90 173 117 129 10 -16
37 1 83 49 70 74 123 86 172 40z m807 -683 c78 -39 68 -59 -15 -33 -38 12 -70
34 -70 48 0 15 7 23 15 19 8 -4 40 -19 70 -34z m-1656 -239 c6 -10 -3 -23 -19
-29 -39 -15 -39 -53 0 -53 17 0 30 -14 30 -31 0 -17 8 -26 18 -20 9 6 22 -7
28 -29 7 -27 0 -40 -19 -40 -16 0 -24 9 -17 20 7 11 -2 20 -19 20 -17 0 -31
15 -31 32 0 24 -7 27 -25 12 -52 -42 -75 25 -28 82 46 57 64 65 82 36z m-3
-316 c-6 -14 -16 -22 -23 -18 -7 4 -15 -24 -17 -64 -8 -148 -66 -229 -66 -92
0 29 -9 45 -20 38 -11 -7 -20 -2 -20 10 0 12 -24 44 -53 71 -29 27 -49 50 -45
51 72 13 90 12 104 -8 11 -15 14 -6 7 23 -7 34 -3 43 18 35 21 -8 29 5 29 44
l0 54 48 -59 c26 -33 43 -71 38 -85z"/>
<path d="M2640 4718 c0 -38 75 -110 94 -91 8 8 -10 38 -40 68 -40 40 -54 46
-54 23z"/>
<path d="M4244 5511 c-58 -36 -141 -97 -186 -135 l-80 -71 42 -74 c44 -80 345
-391 377 -391 10 0 24 14 30 30 7 17 26 30 42 30 17 0 31 8 31 19 0 10 17 24
38 30 28 9 44 45 62 147 13 74 37 171 54 217 76 210 -186 337 -410 198z m216
-113 c0 -9 -13 -12 -29 -6 -16 7 -59 2 -95 -10 -39 -13 -91 -15 -125 -6 l-59
16 89 24 c163 42 219 37 219 -18z"/>
<path d="M4546 4603 c-81 -53 -109 -285 -44 -356 73 -78 137 -97 170 -50 15
22 72 49 126 62 236 57 219 149 -28 150 l-160 1 7 60 c3 33 14 69 24 82 22 26
-63 72 -95 51z"/>
<path d="M3813 1269 c8 -20 -1 -35 -26 -41 -30 -8 -37 -25 -32 -74 5 -38 -5
-80 -24 -104 -18 -22 -61 -85 -97 -139 -163 -253 -861 -538 -2084 -853 l-220
-56 1626 -1 1626 -1 -65 80 c-35 45 -94 104 -131 131 -49 38 -66 67 -66 110 0
58 -67 183 -148 275 -22 25 -76 142 -118 260 -43 118 -94 258 -114 311 -19 54
-48 106 -63 115 -44 28 -77 21 -64 -13z"/>
</g>
</svg>
