<?xml version="1.0" standalone="no"?>
<!DOCTYPE svg PUBLIC "-//W3C//DTD SVG 20010904//EN"
 "http://www.w3.org/TR/2001/REC-SVG-20010904/DTD/svg10.dtd">
<svg version="1.0" xmlns="http://www.w3.org/2000/svg"
 width="300.000000pt" height="99.000000pt" viewBox="0 0 300.000000 99.000000"
 preserveAspectRatio="xMidYMid meet">
<metadata>
Created by potrace 1.10, written by Peter Selinger 2001-2011
</metadata>
<g transform="translate(0.000000,99.000000) scale(0.100000,-0.100000)"
fill="#000000" stroke="none">
<path d="M503 979 c9 -6 15 -14 12 -19 -3 -4 5 -6 17 -2 14 3 19 2 14 -6 -4
-7 -1 -12 9 -12 8 0 23 -4 33 -10 25 -14 196 -83 272 -110 80 -29 95 -40 38
-30 -24 5 -45 7 -47 5 -7 -8 84 -26 111 -23 15 3 28 1 28 -4 0 -4 12 -11 28
-14 15 -4 73 -19 128 -35 116 -33 118 -33 108 -16 -5 7 -1 6 10 -2 10 -8 41
-16 69 -18 48 -2 151 -16 220 -29 15 -3 25 -10 22 -15 -3 -5 12 -6 35 -3 25 4
46 1 55 -6 12 -10 15 -10 15 0 0 10 3 10 15 0 8 -7 21 -10 29 -7 7 3 17 2 22
-2 5 -4 42 -14 82 -21 40 -7 67 -17 61 -21 -7 -4 -3 -7 12 -7 74 -1 116 -6
128 -16 12 -9 13 -8 6 3 -6 11 -4 13 9 8 9 -4 51 -9 94 -13 110 -8 147 -12
147 -14 0 -1 13 -4 30 -6 16 -3 50 -16 75 -30 54 -30 156 -120 152 -135 -1 -6
2 -8 7 -5 10 6 34 -18 26 -26 -7 -7 -202 57 -237 77 -14 8 -38 15 -52 15 -14
0 -26 4 -26 9 0 4 -11 7 -25 6 -29 -4 -44 13 -24 26 19 12 6 11 -26 -1 -19 -7
-35 -6 -58 3 -56 24 -384 90 -399 81 -4 -3 -8 -2 -8 3 0 4 -27 9 -60 11 -105
5 -65 -13 58 -26 64 -7 127 -15 140 -18 46 -13 19 -24 -60 -25 -68 -1 -77 -3
-48 -10 21 -5 67 -4 115 3 74 10 88 8 180 -16 245 -64 478 -144 635 -217 58
-26 132 -55 165 -63 77 -18 155 -26 155 -15 0 5 -20 9 -45 9 -42 0 -59 5 -130
36 -16 7 -57 23 -90 36 -33 13 -61 26 -63 31 -2 4 -10 7 -17 7 -7 0 -55 42
-107 94 -52 51 -112 102 -133 113 -62 32 -148 53 -211 53 -31 0 -55 3 -51 6 3
3 57 5 119 4 108 -1 659 -2 706 -1 13 1 22 7 22 17 0 14 -51 16 -527 13 l-528
-2 -165 41 c-91 23 -223 49 -295 57 -341 41 -501 85 -787 213 -123 55 -192 82
-207 82 -3 0 2 -5 12 -11z"/>
<path d="M768 823 c7 -3 16 -2 19 1 4 3 -2 6 -13 5 -11 0 -14 -3 -6 -6z"/>
<path d="M20 736 c0 -2 7 -9 15 -16 13 -11 14 -10 9 4 -5 14 -24 23 -24 12z"/>
<path d="M60 713 c1 -29 175 -93 249 -93 63 1 33 16 -45 23 -33 2 -69 9 -80
15 -10 5 -36 18 -56 28 -21 10 -38 22 -38 26 0 5 -7 8 -15 8 -8 0 -15 -3 -15
-7z"/>
<path d="M776 685 c3 -7 23 -20 45 -30 21 -10 39 -21 39 -25 0 -4 19 -13 43
-20 23 -8 54 -22 70 -33 15 -10 27 -14 27 -10 0 13 -76 54 -84 46 -3 -3 -6 -1
-6 5 0 7 -4 12 -9 12 -5 0 -36 15 -69 34 -34 19 -58 28 -56 21z"/>
<path d="M948 673 c6 -2 18 -2 25 0 6 3 1 5 -13 5 -14 0 -19 -2 -12 -5z"/>
<path d="M633 663 c9 -2 25 -2 35 0 9 3 1 5 -18 5 -19 0 -27 -2 -17 -5z"/>
<path d="M503 640 c-32 -13 -29 -21 5 -10 56 18 58 18 37 19 -11 0 -30 -4 -42
-9z"/>
<path d="M420 630 c-13 -8 -12 -10 3 -10 9 0 17 5 17 10 0 12 -1 12 -20 0z"/>
<path d="M378 623 c7 -3 16 -2 19 1 4 3 -2 6 -13 5 -11 0 -14 -3 -6 -6z"/>
<path d="M385 560 c-27 -4 -111 -6 -185 -4 -123 2 -200 -7 -200 -24 0 -9 255
-7 387 2 71 5 120 3 178 -9 86 -16 405 -22 405 -7 0 9 -11 10 -250 16 -80 1
-157 8 -172 14 -37 15 -104 20 -163 12z"/>
<path d="M1480 558 c0 -4 24 -7 53 -7 54 1 49 5 -15 11 -21 2 -38 0 -38 -4z"/>
<path d="M990 520 c-9 -6 -10 -10 -3 -10 6 0 15 5 18 10 8 12 4 12 -15 0z"/>
<path d="M1100 520 c0 -11 38 -32 50 -28 5 2 -4 11 -20 20 -17 9 -30 13 -30 8z"/>
<path d="M491 504 c-66 -18 -159 -62 -226 -107 -254 -172 -260 -177 -262 -208
-3 -30 -3 -29 76 35 94 76 141 105 241 146 136 57 226 72 410 72 198 0 312
-17 618 -96 173 -44 222 -61 283 -96 112 -65 182 -114 246 -173 56 -52 92 -77
110 -77 4 1 -2 9 -14 19 -12 10 -19 22 -15 26 4 3 2 5 -4 3 -16 -4 -76 60 -68
74 4 7 3 8 -5 4 -6 -4 -9 -13 -5 -19 3 -7 -22 16 -55 51 -34 34 -61 69 -61 78
0 8 -5 12 -10 9 -7 -4 -7 -12 0 -24 8 -16 1 -14 -40 8 -28 14 -50 32 -50 40 0
8 -6 11 -17 7 -10 -4 -14 -4 -10 0 7 7 -108 61 -147 69 -11 3 -23 10 -27 17
-7 10 -11 10 -21 0 -9 -9 -9 -12 2 -12 7 0 11 -2 8 -5 -3 -3 -27 2 -54 11 -27
10 -56 18 -64 19 -35 4 -100 26 -100 34 0 5 -12 6 -27 3 -18 -3 -30 1 -39 13
-10 13 -17 15 -27 7 -8 -7 -18 -7 -27 -2 -14 9 -13 11 9 14 5 0 13 4 17 9 13
13 -31 8 -50 -6 -15 -11 -32 -11 -100 1 -44 7 -153 15 -241 17 -181 4 -243 -6
-420 -69 -15 -6 -15 -4 3 6 12 8 19 18 15 22 -4 4 -3 6 2 5 6 -2 27 5 49 14
21 9 45 17 52 17 8 0 14 4 14 10 0 6 3 9 8 8 10 -3 85 23 97 33 13 13 -10 10
-74 -7z"/>
<path d="M1608 513 c7 -3 16 -2 19 1 4 3 -2 6 -13 5 -11 0 -14 -3 -6 -6z"/>
<path d="M938 483 c7 -3 16 -2 19 1 4 3 -2 6 -13 5 -11 0 -14 -3 -6 -6z"/>
<path d="M1195 476 c17 -8 32 -12 34 -10 7 7 -3 12 -34 18 l-30 6 30 -14z"/>
<path d="M1723 468 c15 -5 27 -16 27 -24 0 -8 9 -14 20 -14 11 0 20 -5 20 -11
0 -7 11 -9 26 -6 15 3 28 0 30 -8 3 -7 14 -10 26 -7 15 4 19 2 13 -7 -6 -10
-3 -10 16 0 23 12 23 11 9 -6 -14 -17 -14 -17 7 -7 16 9 22 9 25 0 2 -6 13
-13 24 -14 10 -1 28 -5 39 -8 11 -2 24 -5 28 -5 5 -1 6 -5 3 -10 -3 -4 7 -7
22 -5 14 1 30 -3 34 -9 6 -9 10 -9 17 1 6 11 11 10 25 -3 12 -12 16 -13 16 -3
0 8 4 7 11 -4 6 -11 22 -18 40 -18 22 0 28 -4 23 -12 -6 -10 -4 -10 8 0 12 9
18 10 23 2 4 -6 13 -9 21 -6 8 3 14 2 14 -2 0 -4 8 -8 18 -9 9 -1 44 -9 77
-18 33 -9 67 -17 75 -17 8 0 33 -6 55 -13 22 -7 67 -19 100 -25 l60 -13 -40
-13 c-62 -19 -106 -38 -153 -63 -24 -12 -50 -20 -58 -17 -9 3 -12 1 -9 -4 3
-6 0 -10 -7 -10 -8 0 -31 -9 -52 -20 -22 -10 -43 -17 -49 -13 -6 3 -7 1 -3 -5
4 -8 0 -12 -11 -12 -11 0 -28 -7 -39 -15 -18 -14 -17 -15 11 -9 17 3 96 35
176 70 227 99 296 110 467 78 73 -14 105 -14 91 0 -2 2 -42 10 -89 16 -76 10
-242 45 -342 71 -21 5 -38 16 -38 23 0 15 -46 59 -80 76 -16 8 -8 -4 23 -32
26 -24 47 -47 47 -50 0 -10 -248 58 -704 193 -94 28 -151 38 -93 17z"/>
<path d="M1030 466 c0 -9 30 -14 35 -6 4 6 -3 10 -14 10 -12 0 -21 -2 -21 -4z"/>
<path d="M1180 430 c0 -5 5 -10 11 -10 5 0 7 5 4 10 -3 6 -8 10 -11 10 -2 0
-4 -4 -4 -10z"/>
<path d="M1324 411 c3 -5 15 -11 26 -14 17 -4 19 -3 9 9 -12 15 -44 20 -35 5z"/>
<path d="M1600 401 c0 -5 10 -18 23 -28 12 -10 32 -31 45 -47 12 -16 22 -25
22 -21 0 10 -74 104 -82 105 -5 0 -8 -4 -8 -9z"/>
<path d="M1400 380 c0 -6 7 -10 15 -10 8 0 15 2 15 4 0 2 -7 6 -15 10 -8 3
-15 1 -15 -4z"/>
<path d="M1690 282 c0 -6 9 -12 20 -15 11 -3 20 -3 20 -1 0 2 -9 8 -20 14 -11
6 -20 7 -20 2z"/>
<path d="M1780 240 c0 -4 48 -19 108 -34 363 -87 551 -103 625 -51 28 20 14
19 -25 -1 -26 -14 -52 -16 -142 -11 -61 4 -142 14 -181 22 -38 9 -77 17 -85
19 -75 10 -160 31 -160 38 0 5 -4 7 -9 4 -5 -4 -37 0 -70 8 -34 8 -61 11 -61
6z"/>
</g>
</svg>
