<?xml version="1.0" standalone="no"?>
<!DOCTYPE svg PUBLIC "-//W3C//DTD SVG 20010904//EN"
 "http://www.w3.org/TR/2001/REC-SVG-20010904/DTD/svg10.dtd">
<svg version="1.0" xmlns="http://www.w3.org/2000/svg"
 width="450.000000pt" height="300.000000pt" viewBox="0 0 450.000000 300.000000"
 preserveAspectRatio="xMidYMid meet">
<metadata>
Created by potrace 1.10, written by Peter Selinger 2001-2011
</metadata>
<g transform="translate(0.000000,300.000000) scale(0.100000,-0.100000)"
fill="#ffffff" stroke="none">
<path d="M2400 2848 c0 -8 16 -14 43 -15 23 -1 36 1 29 4 -6 2 -10 8 -8 12 3
4 -11 8 -30 9 -22 2 -34 -2 -34 -10z"/>
<path d="M2500 2846 c0 -2 9 -6 20 -9 11 -3 20 -1 20 4 0 5 -9 9 -20 9 -11 0
-20 -2 -20 -4z"/>
<path d="M2320 2830 c-18 -4 -21 -8 -10 -12 17 -6 58 6 44 14 -5 3 -20 2 -34
-2z"/>
<path d="M2262 2822 c-14 -9 -6 -42 10 -42 5 0 6 5 3 10 -3 6 1 10 9 10 10 0
13 6 10 15 -7 17 -13 18 -32 7z"/>
<path d="M2495 2822 c3 -4 29 -9 58 -13 29 -4 63 -10 77 -14 25 -7 25 -7 4 8
-19 14 -152 32 -139 19z"/>
<path d="M2645 2820 c-2 -3 18 -13 45 -20 27 -7 47 -16 45 -20 -2 -4 15 -22
38 -39 l42 -32 -40 36 c-34 32 -36 36 -15 30 14 -4 31 -15 38 -24 8 -9 11 -10
7 -3 -13 26 18 10 67 -35 28 -27 48 -42 44 -35 -12 19 9 14 29 -8 10 -11 23
-20 29 -20 6 0 4 5 -4 10 -8 5 -10 10 -5 10 6 0 -12 15 -40 33 -27 17 -56 37
-63 44 -7 7 -25 16 -40 20 -14 3 -42 15 -60 26 -37 22 -110 39 -117 27z"/>
<path d="M2212 2797 c-7 -7 -21 -20 -30 -29 -9 -10 -21 -18 -27 -18 -6 0 -31
-20 -55 -45 -24 -25 -41 -45 -38 -45 6 0 83 49 136 85 12 9 22 22 22 30 0 8 5
15 10 15 6 0 10 5 10 10 0 13 -12 12 -28 -3z"/>
<path d="M2464 2788 c17 -13 49 -40 72 -60 22 -21 45 -38 50 -38 14 0 -89 91
-121 106 l-30 14 29 -22z"/>
<path d="M2410 2785 c7 -8 17 -12 22 -9 6 4 5 10 -3 15 -22 14 -33 10 -19 -6z"/>
<path d="M2547 2769 c12 -12 25 -20 28 -17 3 3 -7 13 -22 23 l-28 17 22 -23z"/>
<path d="M2580 2786 c0 -2 7 -7 16 -10 8 -3 12 -2 9 4 -6 10 -25 14 -25 6z"/>
<path d="M2681 2754 c36 -26 44 -29 34 -14 -3 6 0 10 7 10 20 1 -24 23 -51 26
-21 3 -20 1 10 -22z"/>
<path d="M2345 2761 c-3 -5 -2 -12 3 -15 5 -3 9 1 9 9 0 17 -3 19 -12 6z"/>
<path d="M2410 2743 c0 -5 13 -17 28 -27 l27 -19 -24 26 c-26 28 -31 32 -31
20z"/>
<path d="M2480 2736 c0 -2 8 -10 18 -17 15 -13 16 -12 3 4 -13 16 -21 21 -21
13z"/>
<path d="M2340 2724 c0 -6 23 -32 50 -58 28 -26 48 -51 45 -56 -3 -5 -1 -11 4
-15 6 -3 8 3 6 15 -4 22 -24 60 -25 46 0 -5 -18 11 -40 35 -21 24 -39 39 -40
33z"/>
<path d="M2430 2690 c0 -5 5 -10 11 -10 5 0 7 5 4 10 -3 6 -8 10 -11 10 -2 0
-4 -4 -4 -10z"/>
<path d="M2541 2685 c0 -5 6 -19 14 -29 8 -11 15 -15 15 -10 0 6 -7 19 -15 30
-8 10 -14 15 -14 9z"/>
<path d="M2770 2684 c0 -13 48 -59 55 -52 3 2 -9 17 -25 33 -17 16 -30 24 -30
19z"/>
<path d="M2500 2643 c5 -12 15 -25 21 -29 6 -3 24 -34 40 -68 16 -33 26 -50
23 -37 -12 47 -33 86 -64 121 -19 22 -27 27 -20 13z"/>
<path d="M2380 2645 c0 -5 12 -23 26 -40 14 -16 21 -21 15 -10 -14 30 -40 61
-41 50z"/>
<path d="M2580 2643 c0 -3 7 -14 16 -24 9 -10 20 -33 24 -51 7 -28 8 -29 9 -8
0 14 -8 40 -19 58 -19 30 -30 40 -30 25z"/>
<path d="M2640 2639 c-12 -9 -12 -10 4 -5 13 5 34 -9 77 -51 32 -32 59 -61 59
-65 0 -7 60 -69 60 -62 0 14 -69 95 -119 141 -66 59 -61 56 -81 42z"/>
<path d="M3076 2630 c4 -8 13 -22 21 -31 20 -24 52 -89 44 -89 -4 0 -18 11
-31 25 -13 14 -28 25 -34 25 -6 0 -4 -5 4 -10 8 -5 11 -10 5 -10 -5 0 -5 -4 2
-8 30 -19 73 -87 73 -116 0 -38 24 -119 32 -111 3 4 3 19 -2 34 -4 16 -6 40
-3 54 9 46 -34 162 -78 209 -22 24 -37 36 -33 28z"/>
<path d="M2650 2612 c0 -12 19 -26 26 -19 2 2 -2 10 -11 17 -9 8 -15 8 -15 2z"/>
<path d="M2730 2615 c0 -2 10 -10 23 -16 20 -11 21 -11 8 4 -13 16 -31 23 -31
12z"/>
<path d="M2840 2615 c0 -11 108 -113 135 -127 11 -5 4 5 -15 23 -19 18 -54 50
-77 73 -24 22 -43 36 -43 31z"/>
<path d="M2484 2565 c18 -42 46 -205 46 -265 0 -23 5 -40 11 -40 6 0 9 10 6
23 -3 12 -9 63 -12 112 -7 86 -35 188 -56 201 -6 3 -3 -11 5 -31z"/>
<path d="M2780 2583 c0 -5 25 -33 55 -62 30 -29 55 -48 55 -43 0 5 -6 15 -14
22 -8 6 -12 19 -9 28 4 13 2 14 -4 4 -8 -10 -18 -5 -46 23 -21 21 -37 33 -37
28z"/>
<path d="M2463 2535 c6 -19 12 -33 15 -31 7 7 -9 66 -18 66 -4 0 -3 -16 3 -35z"/>
<path d="M2716 2538 c10 -14 21 -24 23 -22 3 3 -6 15 -18 27 l-24 22 19 -27z"/>
<path d="M2962 2546 c7 -8 15 -12 17 -11 5 6 -10 25 -20 25 -5 0 -4 -6 3 -14z"/>
<path d="M2670 2543 c0 -5 9 -18 20 -28 11 -10 20 -16 20 -13 0 3 -9 15 -20
28 -11 13 -20 19 -20 13z"/>
<path d="M3025 2517 c10 -15 20 -25 23 -22 3 3 -5 16 -17 28 l-23 22 17 -28z"/>
<path d="M2915 2495 c17 -22 34 -43 40 -47 5 -4 6 -8 1 -8 -5 0 -1 -9 9 -20
25 -27 7 -25 -24 3 -16 14 -13 7 9 -20 19 -23 39 -42 44 -42 5 -1 4 5 -1 12
-5 6 -10 22 -11 35 0 12 -14 40 -31 61 -42 53 -72 75 -36 26z"/>
<path d="M3001 2494 c13 -17 26 -30 28 -27 3 2 -8 16 -24 31 l-28 27 24 -31z"/>
<path d="M2735 2465 c10 -16 25 -39 35 -50 10 -11 19 -27 22 -35 2 -8 7 -10
10 -4 6 9 -11 34 -63 94 l-21 25 17 -30z"/>
<path d="M1907 2473 c-14 -13 -6 -39 23 -73 21 -24 30 -30 30 -18 0 9 -7 24
-17 33 -14 14 -14 18 -2 26 10 6 10 9 2 9 -7 0 -13 7 -13 15 0 16 -12 20 -23
8z"/>
<path d="M2631 2464 c0 -11 3 -14 6 -6 3 7 2 16 -1 19 -3 4 -6 -2 -5 -13z"/>
<path d="M3110 2473 c0 -6 8 -17 18 -24 16 -13 16 -13 2 6 -8 11 -16 22 -17
24 -2 2 -3 0 -3 -6z"/>
<path d="M2591 2463 c0 -4 4 -17 9 -28 8 -19 9 -19 9 2 1 12 -3 25 -9 28 -5 3
-10 3 -9 -2z"/>
<path d="M2850 2461 c0 -5 5 -13 10 -16 6 -3 10 -2 10 4 0 5 -4 13 -10 16 -5
3 -10 2 -10 -4z"/>
<path d="M3070 2450 c0 -7 7 -21 15 -30 23 -26 63 -142 66 -192 3 -46 -6 -72
-22 -62 -5 3 -7 9 -4 14 3 5 1 11 -4 15 -6 3 -8 -4 -6 -16 3 -13 10 -26 17
-30 7 -4 9 -11 5 -16 -10 -9 -52 38 -143 160 -76 100 -95 116 -32 26 70 -100
77 -112 71 -122 -3 -6 -1 -7 5 -3 7 4 12 1 12 -8 0 -9 3 -15 8 -14 4 1 21 -12
39 -30 17 -17 27 -32 22 -32 -6 0 -7 -5 -4 -10 3 -6 -4 -14 -16 -18 -13 -5
-18 -11 -12 -15 17 -10 41 2 49 25 3 11 12 17 20 14 17 -6 18 -1 3 22 -9 14
-7 26 10 57 21 40 29 101 11 90 -5 -3 -7 -13 -4 -23 5 -14 4 -15 -5 -2 -6 8
-11 25 -11 36 0 28 -24 84 -55 131 -33 47 -35 49 -35 33z"/>
<path d="M2486 2432 c-2 -4 -1 -14 5 -22 7 -12 9 -10 9 8 0 23 -5 28 -14 14z"/>
<path d="M3000 2432 c0 -12 19 -26 26 -19 2 2 -2 10 -11 17 -9 8 -15 8 -15 2z"/>
<path d="M2882 2410 c7 -10 14 -18 15 -16 6 6 -9 36 -18 36 -5 0 -4 -9 3 -20z"/>
<path d="M2702 2400 c7 -10 14 -18 15 -16 6 6 -9 36 -18 36 -5 0 -4 -9 3 -20z"/>
<path d="M3060 2403 c0 -6 8 -17 18 -24 16 -13 16 -13 2 6 -8 11 -16 22 -17
24 -2 2 -3 0 -3 -6z"/>
<path d="M1853 2376 c4 -9 -1 -20 -11 -25 -14 -9 -12 -10 14 -11 28 0 30 -2
30 -35 -1 -23 -5 -34 -13 -31 -14 6 -36 -18 -26 -27 11 -12 23 -7 17 7 -3 8 0
13 8 13 7 -1 14 3 16 8 2 6 11 18 20 28 15 17 14 20 -22 53 -21 20 -36 28 -33
20z"/>
<path d="M2503 2320 c0 -41 2 -58 4 -37 2 20 2 54 0 75 -2 20 -4 3 -4 -38z"/>
<path d="M2652 2350 c0 -14 2 -19 5 -12 2 6 2 18 0 25 -3 6 -5 1 -5 -13z"/>
<path d="M2836 2343 c10 -18 22 -33 25 -33 4 0 10 -8 12 -17 3 -13 5 -13 5 -3
1 8 -13 31 -30 50 l-31 35 19 -32z"/>
<path d="M1962 2330 c0 -17 -6 -37 -12 -45 -7 -8 -7 -15 -1 -19 13 -9 33 63
22 82 -5 9 -8 4 -9 -18z"/>
<path d="M2905 2350 c3 -5 8 -10 11 -10 2 0 4 5 4 10 0 6 -5 10 -11 10 -5 0
-7 -4 -4 -10z"/>
<path d="M3010 2352 c0 -5 11 -19 25 -32 28 -26 31 -23 13 15 -10 23 -38 36
-38 17z"/>
<path d="M2989 2325 c15 -31 91 -108 91 -93 0 9 3 9 11 -2 9 -13 10 -13 6 0
-2 8 -9 15 -16 15 -7 0 -32 23 -57 50 -25 28 -41 41 -35 30z"/>
<path d="M2700 2320 c0 -5 5 -10 11 -10 5 0 7 5 4 10 -3 6 -8 10 -11 10 -2 0
-4 -4 -4 -10z"/>
<path d="M2776 2295 c14 -19 28 -35 30 -35 8 0 -32 60 -44 65 -7 2 -1 -11 14
-30z"/>
<path d="M2102 2290 c0 -14 2 -19 5 -12 2 6 2 18 0 25 -3 6 -5 1 -5 -13z"/>
<path d="M2180 2290 c0 -5 6 -7 13 -4 7 2 21 -2 32 -10 16 -12 17 -16 6 -30
-12 -14 -9 -16 26 -16 21 0 43 4 49 9 5 6 17 4 29 -6 19 -15 19 -15 -5 -8 -33
10 -15 -10 31 -33 23 -12 42 -34 60 -70 36 -73 53 -86 31 -25 -25 71 -60 118
-107 145 -22 12 -41 21 -42 20 -5 -3 -37 9 -66 24 -33 16 -57 18 -57 4z"/>
<path d="M2120 2276 c0 -8 4 -17 9 -20 5 -4 7 3 4 14 -6 23 -13 26 -13 6z"/>
<path d="M2156 2265 c4 -8 11 -15 16 -15 6 0 5 6 -2 15 -7 8 -14 15 -16 15 -2
0 -1 -7 2 -15z"/>
<path d="M2190 2262 c0 -14 11 -21 26 -15 8 3 11 9 8 14 -7 11 -34 12 -34 1z"/>
<path d="M3105 2250 c10 -11 20 -20 22 -20 2 0 -1 9 -7 20 -6 11 -16 20 -22
20 -6 0 -3 -9 7 -20z"/>
<path d="M1876 2229 c-25 -24 -15 -24 26 1 25 15 28 20 13 19 -11 0 -29 -9
-39 -20z"/>
<path d="M2770 2229 c7 -11 14 -19 16 -16 7 7 -7 37 -17 37 -6 0 -5 -9 1 -21z"/>
<path d="M2691 2204 c0 -11 3 -14 6 -6 3 7 2 16 -1 19 -3 4 -6 -2 -5 -13z"/>
<path d="M2163 2203 c-7 -2 -13 -9 -13 -15 0 -6 6 -6 15 2 9 7 26 10 42 6 21
-5 24 -4 13 4 -16 10 -37 12 -57 3z"/>
<path d="M2492 2180 c0 -14 2 -19 5 -12 2 6 2 18 0 25 -3 6 -5 1 -5 -13z"/>
<path d="M2820 2196 c0 -2 7 -7 16 -10 8 -3 12 -2 9 4 -6 10 -25 14 -25 6z"/>
<path d="M2266 2160 c11 -14 28 -36 37 -50 10 -13 17 -19 17 -12 0 7 -17 30
-37 50 -21 21 -29 26 -17 12z"/>
<path d="M2980 2186 c0 -2 8 -10 18 -17 15 -13 16 -12 3 4 -13 16 -21 21 -21
13z"/>
<path d="M2135 2160 c4 -6 10 -8 15 -5 4 3 15 2 24 -1 12 -5 13 -9 3 -24 -15
-26 1 -40 19 -16 13 18 15 18 49 -18 19 -21 35 -41 35 -46 0 -4 12 -16 28 -26
26 -17 27 -17 12 2 -8 10 -19 25 -25 33 -5 8 -31 36 -57 63 -37 37 -55 48 -79
48 -18 0 -28 -4 -24 -10z"/>
<path d="M2850 2163 c1 -19 62 -69 114 -91 47 -21 40 -7 -9 18 -25 13 -59 36
-75 52 -17 15 -30 25 -30 21z"/>
<path d="M2105 2129 c-12 -18 3 -22 20 -5 14 14 14 16 1 16 -8 0 -18 -5 -21
-11z"/>
<path d="M2761 2120 c0 -8 4 -24 9 -35 5 -13 9 -14 9 -5 0 8 -4 24 -9 35 -5
13 -9 14 -9 5z"/>
<path d="M2512 2100 c0 -14 2 -19 5 -12 2 6 2 18 0 25 -3 6 -5 1 -5 -13z"/>
<path d="M2542 2100 c0 -14 2 -19 5 -12 2 6 2 18 0 25 -3 6 -5 1 -5 -13z"/>
<path d="M2190 2091 c0 -5 -10 -7 -22 -3 -14 3 -19 2 -14 -6 10 -17 41 -15 56
3 10 12 10 15 -4 15 -9 0 -16 -4 -16 -9z"/>
<path d="M2731 2064 c0 -11 3 -14 6 -6 3 7 2 16 -1 19 -3 4 -6 -2 -5 -13z"/>
<path d="M2330 2056 c0 -2 9 -6 20 -9 11 -3 18 -1 14 4 -5 9 -34 13 -34 5z"/>
<path d="M3130 2051 c0 -5 5 -13 10 -16 6 -3 10 -2 10 4 0 5 -4 13 -10 16 -5
3 -10 2 -10 -4z"/>
<path d="M1690 2029 c0 -13 5 -31 10 -39 7 -11 8 -5 4 20 -8 43 -14 51 -14 19z"/>
<path d="M2188 2043 c6 -2 18 -2 25 0 6 3 1 5 -13 5 -14 0 -19 -2 -12 -5z"/>
<path d="M2481 2034 c0 -11 3 -14 6 -6 3 7 2 16 -1 19 -3 4 -6 -2 -5 -13z"/>
<path d="M2542 1970 c-1 -43 2 -89 7 -102 5 -14 8 8 9 68 1 49 -2 95 -6 102
-5 6 -9 -24 -10 -68z"/>
<path d="M2940 2021 c0 -6 4 -13 10 -16 6 -3 7 1 4 9 -7 18 -14 21 -14 7z"/>
<path d="M2796 1996 c10 -42 33 -101 34 -88 0 16 -31 112 -36 112 -3 0 -2 -11
2 -24z"/>
<path d="M2712 1995 c-1 -11 3 -38 7 -60 7 -34 9 -35 9 -10 0 35 -15 101 -16
70z"/>
<path d="M2751 1985 c0 -11 4 -27 9 -35 9 -13 10 -13 9 0 0 8 -4 24 -9 35 -9
20 -9 20 -9 0z"/>
<path d="M1745 1960 c-4 -6 7 -10 25 -10 21 0 38 -8 50 -22 10 -13 22 -19 27
-15 4 5 -5 20 -20 33 -29 25 -71 32 -82 14z"/>
<path d="M3100 1946 c0 -8 5 -18 10 -21 6 -3 10 3 10 14 0 12 -4 21 -10 21 -5
0 -10 -6 -10 -14z"/>
<path d="M1681 1914 c0 -11 3 -14 6 -6 3 7 2 16 -1 19 -3 4 -6 -2 -5 -13z"/>
<path d="M2766 1881 c1 -27 7 -64 13 -82 15 -49 36 -161 33 -179 -3 -13 -2
-13 7 0 15 21 14 107 -1 116 -8 5 -9 2 -5 -10 4 -9 3 -15 -2 -12 -5 3 -8 25
-7 48 3 49 -2 70 -15 62 -5 -3 -6 14 -3 38 4 32 2 47 -8 56 -12 10 -14 4 -12
-37z"/>
<path d="M2881 1914 c0 -11 3 -14 6 -6 3 7 2 16 -1 19 -3 4 -6 -2 -5 -13z"/>
<path d="M2955 1920 c-3 -5 -1 -10 4 -10 6 0 11 5 11 10 0 6 -2 10 -4 10 -3 0
-8 -4 -11 -10z"/>
<path d="M1760 1908 c0 -6 3 -8 7 -5 3 4 13 1 22 -6 14 -11 14 -10 2 6 -15 20
-31 22 -31 5z"/>
<path d="M2511 1894 c0 -11 3 -14 6 -6 3 7 2 16 -1 19 -3 4 -6 -2 -5 -13z"/>
<path d="M2655 1880 c21 -180 28 -230 32 -230 9 0 -8 157 -23 212 -8 34 -12
40 -9 18z"/>
<path d="M3116 1855 c4 -33 8 -78 10 -100 2 -22 8 -65 13 -95 6 -41 9 -46 10
-22 2 47 -18 212 -29 247 -7 23 -8 15 -4 -30z"/>
<path d="M1835 1880 c17 -4 39 -8 50 -8 16 0 15 2 -5 8 -14 4 -36 8 -50 8 -22
0 -22 -1 5 -8z"/>
<path d="M2606 1875 c4 -8 8 -15 10 -15 2 0 4 7 4 15 0 8 -4 15 -10 15 -5 0
-7 -7 -4 -15z"/>
<path d="M2896 1867 c3 -10 9 -15 12 -12 3 3 0 11 -7 18 -10 9 -11 8 -5 -6z"/>
<path d="M2518 1863 c-2 -5 -1 -24 3 -43 l6 -35 2 43 c1 39 -3 52 -11 35z"/>
<path d="M2736 1853 c-6 -14 -5 -15 5 -6 7 7 10 15 7 18 -3 3 -9 -2 -12 -12z"/>
<path d="M2830 1865 c0 -5 5 -17 10 -25 5 -8 10 -10 10 -5 0 6 -5 17 -10 25
-5 8 -10 11 -10 5z"/>
<path d="M2968 1785 c2 -44 6 -82 8 -84 7 -8 2 104 -6 134 -4 17 -5 -5 -2 -50z"/>
<path d="M2690 1817 c0 -20 4 -38 9 -42 6 -3 7 10 4 32 -8 50 -13 55 -13 10z"/>
<path d="M3051 1834 c0 -11 3 -14 6 -6 3 7 2 16 -1 19 -3 4 -6 -2 -5 -13z"/>
<path d="M1658 1833 c6 -2 12 -13 12 -23 0 -11 25 -34 66 -61 37 -24 72 -48
78 -54 21 -19 68 -47 73 -42 2 3 -13 18 -34 33 -21 15 -53 41 -70 58 -18 16
-33 27 -33 23 0 -19 -58 25 -64 48 -4 15 -13 25 -24 24 -10 0 -12 -3 -4 -6z"/>
<path d="M2551 1824 c0 -11 3 -14 6 -6 3 7 2 16 -1 19 -3 4 -6 -2 -5 -13z"/>
<path d="M2852 1810 c0 -8 6 -31 13 -50 9 -23 14 -28 14 -15 0 11 -6 34 -14
50 -7 17 -13 23 -13 15z"/>
<path d="M2594 1796 c-3 -8 -2 -20 2 -27 5 -8 3 -9 -6 -4 -10 6 -12 4 -7 -9 4
-10 7 -22 7 -27 0 -5 4 -9 9 -9 11 0 19 80 9 86 -5 3 -11 -2 -14 -10z"/>
<path d="M2721 1794 c0 -11 3 -14 6 -6 3 7 2 16 -1 19 -3 4 -6 -2 -5 -13z"/>
<path d="M1636 1774 c-4 -9 -4 -19 -1 -22 2 -3 7 3 11 12 4 9 4 19 1 22 -2 3
-7 -3 -11 -12z"/>
<path d="M3091 1780 c0 -8 4 -24 9 -35 9 -20 9 -20 9 0 0 11 -4 27 -9 35 -9
13 -10 13 -9 0z"/>
<path d="M2530 1765 c0 -5 5 -17 10 -25 5 -8 10 -10 10 -5 0 6 -5 17 -10 25
-5 8 -10 11 -10 5z"/>
<path d="M2638 1735 c-2 -23 1 -50 9 -65 16 -31 17 -47 2 -52 -6 -2 -2 -14 10
-28 11 -14 20 -19 21 -12 0 6 -5 12 -10 12 -7 0 -9 13 -6 33 3 17 0 59 -7 92
l-14 60 -5 -40z"/>
<path d="M2735 1735 c2 -22 5 -55 5 -73 0 -18 4 -31 8 -28 4 2 7 -12 5 -32
l-2 -37 10 30 c8 24 6 46 -11 105 -12 44 -18 58 -15 35z"/>
<path d="M2700 1729 c0 -5 5 -7 10 -4 6 3 10 8 10 11 0 2 -4 4 -10 4 -5 0 -10
-5 -10 -11z"/>
<path d="M3104 1696 c3 -13 9 -62 12 -110 4 -47 11 -86 16 -86 5 0 7 8 4 18
-3 9 -8 59 -12 110 -4 50 -11 92 -16 92 -6 0 -8 -11 -4 -24z"/>
<path d="M2933 1638 c-2 -16 1 -18 10 -9 7 7 8 14 1 21 -6 6 -10 2 -11 -12z"/>
<path d="M2981 1588 c0 -42 3 -79 7 -82 4 -2 6 25 4 62 -5 99 -10 107 -11 20z"/>
<path d="M2792 1630 c0 -14 2 -19 5 -12 2 6 2 18 0 25 -3 6 -5 1 -5 -13z"/>
<path d="M3023 1590 c0 -36 2 -50 4 -32 2 17 2 47 0 65 -2 17 -4 3 -4 -33z"/>
<path d="M2863 1605 c0 -22 2 -30 4 -17 2 12 2 30 0 40 -3 9 -5 -1 -4 -23z"/>
<path d="M2600 1617 c0 -7 9 -18 20 -25 13 -7 20 -8 20 -2 0 6 -7 13 -15 16
-8 4 -12 10 -9 15 3 5 0 9 -5 9 -6 0 -11 -6 -11 -13z"/>
<path d="M2911 1614 c0 -11 3 -14 6 -6 3 7 2 16 -1 19 -3 4 -6 -2 -5 -13z"/>
<path d="M2551 1604 c0 -11 3 -14 6 -6 3 7 2 16 -1 19 -3 4 -6 -2 -5 -13z"/>
<path d="M1571 1575 c-1 -34 3 -41 44 -75 l30 -25 -25 28 c-14 16 -30 45 -36
65 -12 37 -12 37 -13 7z"/>
<path d="M2801 1590 c0 -8 4 -24 9 -35 9 -20 9 -20 9 0 0 11 -4 27 -9 35 -9
13 -10 13 -9 0z"/>
<path d="M2942 1575 c0 -16 2 -22 5 -12 2 9 2 23 0 30 -3 6 -5 -1 -5 -18z"/>
<path d="M3081 1564 c1 -21 5 -50 9 -64 5 -16 6 -2 3 35 -7 69 -13 86 -12 29z"/>
<path d="M3140 1580 c0 -5 5 -10 10 -10 6 0 10 5 10 10 0 6 -4 10 -10 10 -5 0
-10 -4 -10 -10z"/>
<path d="M2470 1558 c0 -15 -151 -158 -167 -158 -6 0 -14 -4 -17 -9 -11 -17
32 1 50 20 9 10 21 19 26 19 5 0 27 18 49 40 22 22 44 40 47 39 15 -1 55 -61
45 -67 -5 -4 -13 -19 -17 -34 -3 -15 -15 -32 -26 -38 -11 -6 -20 -18 -20 -27
0 -14 2 -14 20 2 22 20 26 14 9 -16 -6 -11 -8 -25 -6 -32 6 -18 58 99 64 144
4 30 2 39 -9 39 -26 0 -51 37 -44 65 4 14 4 25 1 25 -3 0 -5 -5 -5 -12z"/>
<path d="M2534 1558 c-3 -5 -3 -12 0 -15 3 -4 6 -1 6 5 0 6 10 9 21 7 12 -3
19 -1 15 2 -11 11 -35 12 -42 1z"/>
<path d="M3153 1525 c0 -22 2 -30 4 -17 2 12 2 30 0 40 -3 9 -5 -1 -4 -23z"/>
<path d="M2948 1492 c6 -62 12 -67 12 -9 0 25 -4 48 -9 51 -5 3 -6 -16 -3 -42z"/>
<path d="M2540 1510 c0 -11 7 -20 15 -20 13 0 14 4 5 20 -6 11 -13 20 -15 20
-3 0 -5 -9 -5 -20z"/>
<path d="M2847 1477 c-3 -23 -9 -51 -13 -60 -3 -9 -1 -17 4 -17 11 0 29 107
20 116 -3 2 -8 -15 -11 -39z"/>
<path d="M2888 1475 c-2 -25 0 -45 4 -45 5 0 8 20 8 45 0 25 -2 45 -4 45 -2 0
-6 -20 -8 -45z"/>
<path d="M2780 1462 c0 -23 -4 -42 -8 -42 -14 0 -44 -76 -39 -96 3 -14 6 -11
12 13 4 18 11 30 16 27 5 -3 9 3 9 13 0 11 5 24 12 31 6 6 11 28 10 48 -2 52
-12 56 -12 6z"/>
<path d="M2912 1475 c0 -16 2 -22 5 -12 2 9 2 23 0 30 -3 6 -5 -1 -5 -18z"/>
<path d="M2618 1483 c-31 -5 -31 -5 -22 -27 5 -14 8 -14 22 1 23 22 27 1 8
-38 -20 -39 -21 -58 -2 -39 24 26 47 112 29 109 -5 -1 -20 -4 -35 -6z"/>
<path d="M3137 1392 c2 -54 8 -111 13 -127 6 -20 7 11 3 90 -3 66 -8 123 -12
128 -4 4 -6 -37 -4 -91z"/>
<path d="M2752 1450 c0 -14 2 -19 5 -12 2 6 2 18 0 25 -3 6 -5 1 -5 -13z"/>
<path d="M1685 1440 c-3 -5 4 -11 14 -15 13 -4 21 -17 23 -38 3 -34 1 -43 -26
-94 -9 -17 -16 -39 -15 -50 1 -29 51 89 53 127 2 32 5 35 32 32 16 -2 37 -11
47 -19 9 -9 18 -12 18 -7 3 24 18 -77 18 -121 0 -39 -2 -46 -10 -30 -8 17 -9
17 -4 -5 2 -14 5 -47 5 -74 0 -27 3 -47 6 -43 6 6 14 107 17 225 l2 63 -40 9
c-22 6 -61 19 -87 29 -27 11 -50 15 -53 11z"/>
<path d="M3033 1415 c0 -22 2 -30 4 -17 2 12 2 30 0 40 -3 9 -5 -1 -4 -23z"/>
<path d="M3102 1425 c0 -16 2 -22 5 -12 2 9 2 23 0 30 -3 6 -5 -1 -5 -18z"/>
<path d="M2926 1424 c-8 -20 -8 -89 0 -82 6 7 16 98 10 98 -2 0 -7 -7 -10 -16z"/>
<path d="M2982 1395 c0 -16 2 -22 5 -12 2 9 2 23 0 30 -3 6 -5 -1 -5 -18z"/>
<path d="M3051 1404 c0 -11 3 -14 6 -6 3 7 2 16 -1 19 -3 4 -6 -2 -5 -13z"/>
<path d="M2675 1373 c-4 -16 -15 -47 -26 -71 -21 -47 -22 -52 -11 -52 10 1 39
69 46 113 8 42 -1 51 -9 10z"/>
<path d="M1581 1383 c-1 -17 16 -25 25 -12 4 7 3 9 -4 5 -5 -3 -13 0 -15 6 -4
9 -6 10 -6 1z"/>
<path d="M1930 1380 c55 -16 95 -21 84 -10 -5 5 -34 11 -64 14 -48 5 -51 4
-20 -4z"/>
<path d="M2580 1343 c0 -35 3 -44 10 -33 13 20 13 80 0 80 -5 0 -10 -21 -10
-47z"/>
<path d="M2833 1374 c-3 -8 -1 -20 6 -25 6 -5 9 -6 6 -3 -2 4 0 15 6 25 7 13
6 19 -1 19 -6 0 -13 -7 -17 -16z"/>
<path d="M2075 1369 c-29 -4 -33 -7 -15 -9 28 -3 53 0 59 6 9 8 -5 9 -44 3z"/>
<path d="M1764 1357 c3 -10 6 -35 6 -54 0 -20 3 -33 7 -30 10 11 4 80 -8 91
-9 8 -10 6 -5 -7z"/>
<path d="M1632 1313 c-6 -20 -10 -39 -8 -41 2 -2 9 13 16 33 7 20 10 38 8 41
-3 2 -10 -13 -16 -33z"/>
<path d="M2621 1334 c0 -11 3 -14 6 -6 3 7 2 16 -1 19 -3 4 -6 -2 -5 -13z"/>
<path d="M2935 1313 c-3 -21 -8 -46 -10 -55 -2 -10 1 -18 5 -18 5 0 11 -10 13
-22 2 -13 4 12 3 54 -1 43 -2 78 -3 78 -1 0 -5 -17 -8 -37z"/>
<path d="M2862 1285 c-13 -47 -16 -82 -7 -73 5 5 7 13 21 86 9 47 0 39 -14
-13z"/>
<path d="M2912 1305 c0 -16 2 -22 5 -12 2 9 2 23 0 30 -3 6 -5 -1 -5 -18z"/>
<path d="M2500 1311 c0 -6 -12 -23 -26 -36 -15 -14 -22 -25 -16 -25 6 0 14 5
17 10 4 6 10 8 15 5 11 -7 26 43 16 52 -3 4 -6 1 -6 -6z"/>
<path d="M2752 1300 c-6 -10 -8 -21 -3 -24 5 -3 11 4 14 16 8 29 4 32 -11 8z"/>
<path d="M2592 1294 c-12 -13 -34 -105 -27 -112 5 -5 46 110 43 118 -2 5 -9 2
-16 -6z"/>
<path d="M3103 1260 c0 -30 2 -43 4 -27 2 15 2 39 0 55 -2 15 -4 2 -4 -28z"/>
<path d="M1543 1269 c-2 -23 3 -25 10 -4 4 8 3 16 -1 19 -4 3 -9 -4 -9 -15z"/>
<path d="M2416 1274 c-17 -12 -17 -14 -4 -14 9 0 20 5 23 11 11 17 2 18 -19 3z"/>
<path d="M2812 1275 c0 -11 3 -29 8 -40 11 -25 11 1 0 35 -6 20 -8 21 -8 5z"/>
<path d="M2677 1259 c-8 -11 -12 -30 -9 -42 4 -15 7 -17 10 -7 2 8 7 27 12 43
11 32 6 34 -13 6z"/>
<path d="M3136 1205 c7 -87 14 -116 25 -110 5 3 11 -7 15 -22 3 -15 8 -35 10
-43 4 -10 2 -12 -4 -5 -6 6 -12 19 -15 30 -3 11 -3 -5 1 -35 3 -30 6 -70 6
-87 0 -18 2 -33 6 -33 3 0 5 -15 6 -32 0 -18 4 -80 8 -137 5 -73 5 -101 -3
-97 -6 4 -11 2 -11 -3 0 -6 5 -11 10 -11 6 0 10 -7 10 -15 0 -8 -5 -15 -12
-15 -9 0 -9 -3 0 -12 14 -14 16 -32 3 -23 -5 3 -13 1 -16 -5 -4 -6 -1 -9 7 -8
9 2 14 -13 15 -57 2 -33 5 -98 9 -145 3 -47 6 -101 8 -120 1 -19 5 -41 10 -48
4 -7 4 -22 1 -33 -4 -12 -3 -19 1 -16 5 3 10 -9 10 -26 1 -18 5 -45 9 -62 5
-24 4 -27 -5 -15 -9 12 -11 12 -8 1 2 -8 13 -16 25 -17 20 -3 20 -3 6 69 -38
196 -50 340 -58 722 -6 248 -14 358 -30 372 -4 5 -6 -7 -3 -24 2 -18 1 -33 -3
-33 -9 0 -23 79 -15 87 3 4 6 1 6 -5 0 -7 5 -12 11 -12 6 0 8 9 3 23 -9 31
-14 34 -25 17 -10 -13 -10 -13 -6 0 2 8 0 24 -4 35 -6 12 -7 -7 -3 -50z m51
-237 c-3 -8 -6 -5 -6 6 -1 11 2 17 5 13 3 -3 4 -12 1 -19z"/>
<path d="M1641 1244 c0 -11 3 -14 6 -6 3 7 2 16 -1 19 -3 4 -6 -2 -5 -13z"/>
<path d="M2886 1193 c-9 -36 -13 -70 -9 -74 5 -5 15 23 22 62 7 39 11 72 9 74
-2 3 -12 -25 -22 -62z"/>
<path d="M1620 1239 c0 -8 -12 -36 -25 -64 -24 -48 -27 -68 -8 -43 17 21 46
108 39 115 -3 3 -6 0 -6 -8z"/>
<path d="M1744 1236 c-3 -8 -4 -25 -2 -38 3 -17 5 -13 9 15 5 38 2 47 -7 23z"/>
<path d="M2396 1238 c2 -3 -2 -9 -8 -11 -9 -4 -8 -6 3 -6 8 -1 23 5 32 12 16
11 15 12 -7 12 -13 0 -22 -3 -20 -7z"/>
<path d="M2485 1239 c-4 -6 -5 -12 -2 -15 2 -3 7 2 10 11 7 17 1 20 -8 4z"/>
<path d="M2008 1223 c7 -3 16 -2 19 1 4 3 -2 6 -13 5 -11 0 -14 -3 -6 -6z"/>
<path d="M2413 1210 c-24 -10 -43 -22 -43 -25 0 -6 57 17 87 34 30 18 0 12
-44 -9z"/>
<path d="M3039 1203 c-3 -16 -1 -44 2 -63 5 -28 7 -23 8 28 1 65 -4 82 -10 35z"/>
<path d="M2345 1210 c-3 -6 1 -7 9 -4 18 7 21 14 7 14 -6 0 -13 -4 -16 -10z"/>
<path d="M2945 1148 c-12 -46 -15 -73 -8 -75 7 -3 7 -19 2 -46 -4 -23 -8 -60
-7 -82 l0 -40 9 45 c5 25 11 74 13 110 2 36 7 86 11 113 11 69 2 57 -20 -25z"/>
<path d="M3072 1200 c0 -14 2 -19 5 -12 2 6 2 18 0 25 -3 6 -5 1 -5 -13z"/>
<path d="M2795 1184 c-9 -15 -12 -23 -6 -20 11 7 35 46 28 46 -3 0 -12 -12
-22 -26z"/>
<path d="M2445 1176 c-22 -11 -42 -22 -44 -23 -2 -2 -2 -5 0 -7 7 -7 89 34 89
44 0 6 -1 10 -2 9 -2 -1 -21 -11 -43 -23z"/>
<path d="M1551 1174 c0 -11 3 -14 6 -6 3 7 2 16 -1 19 -3 4 -6 -2 -5 -13z"/>
<path d="M1637 1158 c-23 -51 -28 -70 -17 -63 6 3 10 14 10 23 0 15 2 15 11 2
9 -13 10 -13 6 0 -2 8 0 27 4 43 10 37 3 34 -14 -5z"/>
<path d="M2340 1171 c0 -7 -5 -9 -12 -5 -7 5 -8 3 -3 -5 5 -9 10 -10 18 -2 6
6 8 14 4 18 -4 3 -7 1 -7 -6z"/>
<path d="M2595 1169 c-4 -6 -5 -12 -2 -15 2 -3 7 2 10 11 7 17 1 20 -8 4z"/>
<path d="M2667 1151 c-4 -17 -3 -21 5 -13 5 5 8 16 6 23 -3 8 -7 3 -11 -10z"/>
<path d="M1727 1153 c-4 -3 -7 -13 -7 -22 1 -13 3 -13 11 2 11 19 8 33 -4 20z"/>
<path d="M2792 1131 c-6 -17 -9 -31 -6 -31 7 0 25 52 20 57 -2 2 -8 -10 -14
-26z"/>
<path d="M2832 1130 c0 -19 2 -27 5 -17 2 9 2 25 0 35 -3 9 -5 1 -5 -18z"/>
<path d="M2290 1140 c-8 -5 -12 -11 -9 -14 2 -3 11 -1 19 4 8 5 12 11 9 14 -2
3 -11 1 -19 -4z"/>
<path d="M2461 1126 c0 -12 5 -30 10 -41 7 -15 8 -12 3 13 -3 20 -1 32 5 32 6
0 11 4 11 8 0 5 -7 9 -15 9 -9 0 -15 -9 -14 -21z"/>
<path d="M2333 1123 c-10 -10 -14 -15 -9 -11 4 3 14 4 21 2 6 -3 12 2 12 11 0
19 -1 19 -24 -2z"/>
<path d="M2418 1113 c-10 -2 -18 -11 -18 -19 0 -8 -6 -13 -12 -11 -7 1 -21
-14 -30 -34 -16 -32 -17 -41 -6 -74 7 -21 20 -41 28 -43 11 -4 10 1 -4 16 -23
27 -17 101 10 117 28 16 70 54 59 54 -5 -1 -18 -3 -27 -6z"/>
<path d="M1535 1089 c-10 -30 0 -33 13 -4 6 14 7 25 2 25 -5 0 -12 -9 -15 -21z"/>
<path d="M2242 1090 c-32 -30 -27 -38 6 -9 15 13 29 25 31 27 2 1 0 2 -5 2 -6
0 -20 -9 -32 -20z"/>
<path d="M2726 1041 c-5 -51 -3 -77 8 -102 14 -32 14 -29 10 65 -2 55 -5 101
-8 103 -2 2 -6 -27 -10 -66z"/>
<path d="M1683 1077 c-16 -34 -17 -58 -2 -37 7 11 8 4 4 -25 l-5 -40 11 34 c5
18 9 47 7 64 l-3 32 -12 -28z"/>
<path d="M2595 1090 c-3 -5 -1 -10 4 -10 6 0 11 5 11 10 0 6 -2 10 -4 10 -3 0
-8 -4 -11 -10z"/>
<path d="M2640 1068 c-6 -18 -19 -46 -27 -61 -8 -16 -13 -30 -11 -32 4 -4 13
12 48 87 7 16 11 30 8 33 -3 3 -11 -9 -18 -27z"/>
<path d="M2495 1068 c-9 -37 -13 -178 -5 -178 4 0 8 38 9 85 1 47 4 92 7 100
4 8 3 15 0 15 -3 0 -8 -10 -11 -22z"/>
<path d="M2681 1074 c0 -11 3 -14 6 -6 3 7 2 16 -1 19 -3 4 -6 -2 -5 -13z"/>
<path d="M2782 1070 c0 -14 2 -19 5 -12 2 6 2 18 0 25 -3 6 -5 1 -5 -13z"/>
<path d="M1496 1058 c-22 -34 -33 -70 -52 -173 -9 -49 -24 -112 -34 -140 -10
-27 -21 -63 -25 -80 -3 -16 -15 -35 -26 -43 -10 -7 -19 -24 -19 -36 0 -14 -16
-40 -40 -64 -27 -26 -38 -45 -34 -56 4 -11 -22 -58 -76 -137 -91 -133 -136
-222 -146 -288 -5 -34 -4 -43 6 -39 8 2 15 17 17 34 6 45 22 90 51 140 57 97
65 110 91 139 14 17 37 52 51 78 16 31 30 45 39 42 10 -4 11 -2 4 7 -14 20
-10 33 20 67 15 17 27 40 27 52 0 22 54 92 63 82 3 -2 3 14 0 38 -4 30 -3 40
5 35 7 -4 12 -17 12 -29 0 -18 2 -19 10 -7 15 23 13 63 -2 54 -10 -6 -10 -4
-2 7 6 8 12 28 12 45 1 74 41 244 63 271 7 7 9 16 6 19 -3 3 -12 -5 -21 -18z"/>
<path d="M1581 1049 c-13 -39 -14 -46 -2 -33 9 10 24 64 17 64 -2 0 -9 -14
-15 -31z"/>
<path d="M1612 1060 c0 -14 2 -19 5 -12 2 6 2 18 0 25 -3 6 -5 1 -5 -13z"/>
<path d="M3042 1055 c0 -16 2 -22 5 -12 2 9 2 23 0 30 -3 6 -5 -1 -5 -18z"/>
<path d="M2827 1025 c-12 -97 -16 -140 -11 -115 3 14 12 47 19 73 9 29 11 56
6 70 -7 18 -10 13 -14 -28z"/>
<path d="M1811 1044 c0 -11 3 -14 6 -6 3 7 2 16 -1 19 -3 4 -6 -2 -5 -13z"/>
<path d="M1510 1020 c-7 -17 -10 -33 -8 -36 3 -3 11 9 17 27 14 42 7 49 -9 9z"/>
<path d="M2176 1033 c-6 -14 -5 -15 5 -6 7 7 10 15 7 18 -3 3 -9 -2 -12 -12z"/>
<path d="M2913 1000 c0 -30 2 -43 4 -27 2 15 2 39 0 55 -2 15 -4 2 -4 -28z"/>
<path d="M2195 1010 c-12 -23 -14 -39 -7 -58 8 -26 9 -26 14 -4 4 12 2 20 -3
16 -13 -8 -11 3 7 37 8 17 13 33 10 36 -2 3 -12 -9 -21 -27z"/>
<path d="M3122 1015 c0 -16 2 -22 5 -12 2 9 2 23 0 30 -3 6 -5 -1 -5 -18z"/>
<path d="M2543 995 c0 -22 2 -30 4 -17 2 12 2 30 0 40 -3 9 -5 -1 -4 -23z"/>
<path d="M2655 1019 c-4 -6 -5 -12 -2 -15 2 -3 7 2 10 11 7 17 1 20 -8 4z"/>
<path d="M1616 1005 c-3 -9 -5 -29 -5 -43 1 -21 2 -23 6 -7 3 11 10 26 16 33
7 9 7 16 0 23 -7 7 -12 5 -17 -6z"/>
<path d="M1800 1006 c0 -11 71 -54 103 -62 4 -1 9 -3 12 -4 8 -4 15 -5 95 -18
41 -7 83 -17 94 -23 14 -8 16 -8 10 3 -6 11 -5 11 8 0 11 -9 18 -10 23 -2 3 6
11 8 16 5 5 -4 9 -2 9 3 0 5 -26 13 -57 17 -129 15 -293 63 -293 86 0 5 -4 9
-10 9 -5 0 -10 -6 -10 -14z"/>
<path d="M2874 996 c-3 -8 -4 -27 -2 -43 3 -23 5 -20 9 15 5 43 2 53 -7 28z"/>
<path d="M3032 985 c0 -16 3 -39 8 -50 9 -20 9 -20 8 0 0 11 -4 34 -8 50 l-8
30 0 -30z"/>
<path d="M1583 955 c0 -27 2 -38 4 -22 2 15 2 37 0 50 -2 12 -4 0 -4 -28z"/>
<path d="M2161 980 c0 -14 4 -32 9 -40 9 -13 10 -13 9 0 -1 8 -5 26 -9 40 l-8
25 -1 -25z"/>
<path d="M1493 944 c-14 -34 -33 -126 -33 -154 0 -11 5 -20 11 -20 7 0 9 10 7
25 -3 14 3 55 13 92 20 71 21 107 2 57z"/>
<path d="M2687 938 c-4 -21 -11 -38 -15 -38 -10 0 -35 -60 -28 -67 3 -4 6 1 6
10 0 10 5 17 11 17 6 0 8 -7 5 -16 -3 -9 -2 -12 5 -9 6 4 8 13 5 21 -3 7 2 20
10 29 10 9 14 29 12 52 l-3 38 -8 -37z"/>
<path d="M3125 949 c10 -35 23 -45 18 -15 -3 15 -10 29 -15 32 -6 4 -7 -2 -3
-17z"/>
<path d="M2582 930 c0 -14 2 -19 5 -12 2 6 2 18 0 25 -3 6 -5 1 -5 -13z"/>
<path d="M2964 924 c-4 -14 -3 -29 2 -34 5 -5 10 6 11 26 3 40 -4 45 -13 8z"/>
<path d="M2898 910 c-3 -17 -1 -33 4 -36 4 -3 8 11 8 30 0 44 -6 47 -12 6z"/>
<path d="M2418 859 c-20 -40 -39 -85 -42 -99 -4 -14 14 16 39 65 24 50 43 94
42 99 -2 6 -20 -24 -39 -65z"/>
<path d="M3001 878 c-1 -31 3 -59 7 -62 5 -3 7 18 5 47 -6 75 -11 81 -12 15z"/>
<path d="M1801 904 c0 -11 3 -14 6 -6 3 7 2 16 -1 19 -3 4 -6 -2 -5 -13z"/>
<path d="M2191 911 c9 -6 30 -12 47 -13 17 -1 28 -6 25 -11 -3 -4 -19 -6 -36
-3 -28 5 -29 5 -11 -5 17 -9 33 -7 74 8 l52 20 -60 0 c-33 1 -70 4 -83 7 -19
6 -21 5 -8 -3z"/>
<path d="M2562 890 c0 -19 2 -27 5 -17 2 9 2 25 0 35 -3 9 -5 1 -5 -18z"/>
<path d="M2830 918 c-9 -74 -10 -147 -2 -152 7 -4 11 22 11 74 0 44 -2 80 -4
80 -3 0 -5 -1 -5 -2z"/>
<path d="M2383 878 c-12 -18 -20 -34 -18 -36 6 -7 44 41 45 56 0 17 -2 15 -27
-20z"/>
<path d="M2722 885 c0 -16 -2 -39 -6 -50 -4 -11 0 -8 8 7 12 19 13 33 6 50 -9
22 -9 21 -8 -7z"/>
<path d="M3053 850 c-1 -33 1 -62 6 -64 8 -5 9 110 0 118 -2 3 -5 -22 -6 -54z"/>
<path d="M1571 884 c0 -11 3 -14 6 -6 3 7 2 16 -1 19 -3 4 -6 -2 -5 -13z"/>
<path d="M3081 884 c0 -11 3 -14 6 -6 3 7 2 16 -1 19 -3 4 -6 -2 -5 -13z"/>
<path d="M1761 874 c0 -11 3 -14 6 -6 3 7 2 16 -1 19 -3 4 -6 -2 -5 -13z"/>
<path d="M2531 874 c0 -11 3 -14 6 -6 3 7 2 16 -1 19 -3 4 -6 -2 -5 -13z"/>
<path d="M1508 850 c-3 -16 -1 -30 4 -30 4 0 8 14 8 30 0 17 -2 30 -4 30 -2 0
-6 -13 -8 -30z"/>
<path d="M2486 865 c-9 -26 -7 -32 5 -12 6 10 9 21 6 23 -2 3 -7 -2 -11 -11z"/>
<path d="M1680 855 c0 -8 4 -15 10 -15 5 0 7 7 4 15 -4 8 -8 15 -10 15 -2 0
-4 -7 -4 -15z"/>
<path d="M2311 856 c-23 -13 -23 -14 -5 -19 15 -4 14 -5 -5 -6 -17 -1 -22 -4
-15 -11 15 -15 37 -4 51 25 13 28 8 30 -26 11z"/>
<path d="M3138 841 c-2 -16 1 -36 8 -46 10 -14 11 -9 7 27 -7 53 -9 57 -15 19z"/>
<path d="M2881 838 c-1 -19 4 -28 14 -28 8 0 15 5 15 10 0 6 -4 10 -9 10 -5 0
-12 8 -14 18 -3 10 -5 6 -6 -10z"/>
<path d="M2463 757 c1 -53 6 -92 10 -88 4 4 8 17 9 27 0 26 -13 148 -18 153
-2 2 -2 -40 -1 -92z"/>
<path d="M2972 825 c0 -16 2 -22 5 -12 2 9 2 23 0 30 -3 6 -5 -1 -5 -18z"/>
<path d="M2783 783 c0 -37 4 -60 9 -57 5 3 7 9 4 12 -3 3 0 12 7 20 8 11 9 14
0 9 -8 -5 -13 6 -16 35 -3 31 -4 26 -4 -19z"/>
<path d="M2188 823 c7 -3 16 -2 19 1 4 3 -2 6 -13 5 -11 0 -14 -3 -6 -6z"/>
<path d="M2726 814 c-9 -23 -7 -149 2 -140 5 6 11 156 6 156 -1 0 -5 -7 -8
-16z"/>
<path d="M2350 808 c0 -9 -7 -21 -15 -28 -8 -7 -15 -18 -14 -24 0 -7 2 -6 6 2
2 6 9 10 14 7 10 -7 25 43 15 52 -3 4 -6 -1 -6 -9z"/>
<path d="M2670 815 c-1 -5 -3 -20 -6 -32 -2 -13 1 -23 7 -23 7 0 9 -29 6 -87
-3 -51 -2 -75 3 -58 10 41 11 166 0 190 -5 11 -9 16 -10 10z"/>
<path d="M2752 800 c0 -14 2 -19 5 -12 2 6 2 18 0 25 -3 6 -5 1 -5 -13z"/>
<path d="M2582 780 c0 -14 2 -19 5 -12 2 6 2 18 0 25 -3 6 -5 1 -5 -13z"/>
<path d="M2960 771 c0 -12 5 -21 10 -21 6 0 10 6 10 14 0 8 -4 18 -10 21 -5 3
-10 -3 -10 -14z"/>
<path d="M3101 774 c0 -11 3 -14 6 -6 3 7 2 16 -1 19 -3 4 -6 -2 -5 -13z"/>
<path d="M1746 765 c-3 -8 -1 -15 4 -15 6 0 10 7 10 15 0 8 -2 15 -4 15 -2 0
-6 -7 -10 -15z"/>
<path d="M2635 769 c-4 -6 -5 -12 -2 -15 2 -3 7 2 10 11 7 17 1 20 -8 4z"/>
<path d="M2874 768 c-7 -12 -15 -118 -8 -118 13 0 23 42 14 64 -10 28 -3 59
11 50 5 -3 9 0 9 5 0 15 -17 14 -26 -1z"/>
<path d="M2932 760 c0 -14 2 -19 5 -12 2 6 2 18 0 25 -3 6 -5 1 -5 -13z"/>
<path d="M1500 756 c0 -8 4 -17 9 -20 5 -4 7 3 4 14 -6 23 -13 26 -13 6z"/>
<path d="M2756 739 c-8 -42 0 -50 9 -9 4 17 5 34 2 36 -2 3 -7 -10 -11 -27z"/>
<path d="M1576 752 c-3 -5 -8 -33 -12 -63 -4 -30 -12 -57 -18 -61 -7 -5 -4 -8
7 -8 13 0 17 8 17 33 0 17 4 49 9 70 9 36 8 46 -3 29z"/>
<path d="M2610 755 c0 -5 5 -17 10 -25 5 -8 10 -10 10 -5 0 6 -5 17 -10 25 -5
8 -10 11 -10 5z"/>
<path d="M3171 744 c0 -11 3 -14 6 -6 3 7 2 16 -1 19 -3 4 -6 -2 -5 -13z"/>
<path d="M1465 731 c4 -12 8 -80 8 -151 1 -71 5 -126 8 -122 9 10 20 113 11
108 -4 -2 -5 31 -3 75 2 64 0 81 -14 96 -17 16 -17 16 -10 -6z"/>
<path d="M2255 740 c3 -5 10 -10 16 -10 5 0 9 5 9 10 0 6 -7 10 -16 10 -8 0
-12 -4 -9 -10z"/>
<path d="M2392 730 c-18 -29 -15 -38 4 -12 9 13 14 25 12 27 -2 2 -9 -5 -16
-15z"/>
<path d="M2825 740 c-3 -5 -1 -10 4 -10 6 0 11 5 11 10 0 6 -2 10 -4 10 -3 0
-8 -4 -11 -10z"/>
<path d="M1720 715 c-6 -14 -10 -36 -10 -48 1 -20 2 -20 11 -4 5 9 7 22 4 27
-3 6 -2 10 3 10 14 0 23 28 12 35 -6 4 -15 -6 -20 -20z"/>
<path d="M2591 722 c-1 -32 20 -112 29 -112 4 0 10 7 14 15 3 8 0 14 -7 12 -7
-1 -16 20 -23 53 -7 30 -13 45 -13 32z"/>
<path d="M1630 713 c0 -13 5 -23 10 -23 13 0 13 11 0 30 -8 12 -10 11 -10 -7z"/>
<path d="M2790 705 c-11 -14 -11 -17 -1 -11 10 7 12 1 8 -30 -2 -22 -10 -51
-16 -66 -6 -18 -7 -28 -1 -28 6 0 10 6 10 14 0 8 5 16 11 18 6 2 9 27 7 62 -3
55 -4 58 -18 41z"/>
<path d="M2341 703 c-1 -6 -4 -20 -7 -30 -5 -17 -5 -17 6 0 6 10 9 23 6 30 -3
9 -5 9 -5 0z"/>
<path d="M2911 694 c0 -11 3 -14 6 -6 3 7 2 16 -1 19 -3 4 -6 -2 -5 -13z"/>
<path d="M2301 684 c0 -11 3 -14 6 -6 3 7 2 16 -1 19 -3 4 -6 -2 -5 -13z"/>
<path d="M2418 668 c-13 -18 -28 -40 -33 -48 -8 -13 -6 -13 8 -2 15 13 60 82
53 82 -2 0 -15 -15 -28 -32z"/>
<path d="M2990 695 c0 -5 5 -17 10 -25 5 -8 10 -10 10 -5 0 6 -5 17 -10 25 -5
8 -10 11 -10 5z"/>
<path d="M3070 670 c0 -16 5 -30 11 -30 6 0 9 -7 6 -15 -4 -8 -2 -17 3 -20 5
-3 8 -19 8 -36 -1 -16 3 -34 9 -40 11 -11 2 59 -16 129 -14 49 -21 54 -21 12z"/>
<path d="M1661 683 c-1 -6 -4 -20 -7 -30 -5 -17 -5 -17 6 0 6 10 9 23 6 30 -3
9 -5 9 -5 0z"/>
<path d="M2566 675 c-9 -26 -7 -32 5 -12 6 10 9 21 6 23 -2 3 -7 -2 -11 -11z"/>
<path d="M1616 645 c-15 -80 -89 -265 -108 -273 -5 -2 -8 -9 -8 -16 0 -7 -14
-32 -31 -55 -17 -24 -28 -45 -25 -48 8 -8 66 79 100 152 46 98 89 227 84 256
-4 19 -6 16 -12 -16z"/>
<path d="M2761 673 c0 -4 4 -17 9 -28 8 -19 9 -19 9 2 1 12 -3 25 -9 28 -5 3
-10 3 -9 -2z"/>
<path d="M2737 663 c-11 -10 -8 -73 2 -73 6 0 6 -12 -1 -31 -6 -16 -8 -32 -6
-35 3 -2 11 16 18 42 11 37 11 47 0 54 -7 4 -9 16 -5 29 6 21 4 26 -8 14z"/>
<path d="M3140 655 c0 -8 -5 -15 -11 -15 -5 0 -8 -4 -5 -8 3 -5 6 -36 7 -70 3
-101 16 -91 16 12 0 53 -1 96 -3 96 -2 0 -4 -7 -4 -15z"/>
<path d="M1441 583 c0 -46 3 -83 7 -83 4 0 6 30 4 68 -5 101 -10 107 -11 15z"/>
<path d="M2244 645 c-4 -8 -10 -13 -14 -10 -5 3 -11 1 -14 -4 -4 -5 1 -8 10
-7 15 2 42 36 29 36 -3 0 -8 -7 -11 -15z"/>
<path d="M2284 618 c-15 -24 -29 -52 -31 -63 -1 -16 1 -15 10 5 6 14 17 31 24
38 18 18 36 53 30 58 -2 2 -17 -15 -33 -38z"/>
<path d="M2990 633 c0 -10 5 -25 10 -33 8 -12 10 -9 10 12 0 15 -4 30 -10 33
-5 3 -10 -2 -10 -12z"/>
<path d="M1700 616 c0 -31 6 -34 13 -6 3 11 1 23 -4 26 -5 3 -9 -6 -9 -20z"/>
<path d="M2341 624 c0 -11 3 -14 6 -6 3 7 2 16 -1 19 -3 4 -6 -2 -5 -13z"/>
<path d="M2439 624 c-7 -9 -14 -26 -16 -37 -2 -17 -1 -19 6 -7 5 8 7 18 5 22
-3 4 -1 8 4 8 6 0 12 7 16 15 7 19 2 19 -15 -1z"/>
<path d="M2832 620 c0 -14 2 -19 5 -12 2 6 2 18 0 25 -3 6 -5 1 -5 -13z"/>
<path d="M2942 615 c0 -16 2 -22 5 -12 2 9 2 23 0 30 -3 6 -5 -1 -5 -18z"/>
<path d="M2481 591 c-29 -56 -26 -65 5 -13 14 24 24 46 21 49 -3 3 -15 -13
-26 -36z"/>
<path d="M2530 623 c0 -15 42 -124 46 -120 4 4 -35 119 -42 126 -2 2 -4 -1 -4
-6z"/>
<path d="M2561 610 c0 -8 6 -28 14 -45 17 -39 18 -21 0 25 -7 19 -14 28 -14
20z"/>
<path d="M2591 604 c0 -11 3 -14 6 -6 3 7 2 16 -1 19 -3 4 -6 -2 -5 -13z"/>
<path d="M1533 568 c-7 -24 -14 -52 -18 -63 -7 -26 30 53 39 83 4 12 3 22 -1
22 -5 0 -14 -19 -20 -42z"/>
<path d="M1576 585 c-9 -26 -7 -32 5 -12 6 10 9 21 6 23 -2 3 -7 -2 -11 -11z"/>
<path d="M2314 586 c-14 -10 -21 -27 -22 -48 -1 -27 1 -30 9 -15 6 9 7 22 4
27 -4 6 4 19 17 30 27 23 22 26 -8 6z"/>
<path d="M2397 594 c-4 -4 -7 -14 -7 -23 0 -11 3 -12 11 -4 6 6 10 16 7 23 -2
6 -7 8 -11 4z"/>
<path d="M2508 590 c-7 -21 3 -70 13 -64 13 8 11 -50 -3 -64 -6 -6 -9 -14 -6
-17 3 -3 13 9 21 28 16 33 13 82 -4 71 -5 -3 -6 2 -3 10 3 8 1 22 -4 32 -7 12
-11 13 -14 4z"/>
<path d="M2637 587 c-7 -20 40 -147 54 -147 6 0 6 8 0 19 -6 10 -7 22 -3 26 4
5 1 5 -5 1 -12 -7 -17 6 -16 42 1 6 -3 12 -8 12 -5 0 -9 5 -9 11 0 5 6 7 13 3
9 -6 9 -4 1 7 -6 8 -13 21 -16 28 -3 12 -6 11 -11 -2z"/>
<path d="M2842 576 c-17 -37 -15 -45 4 -18 8 12 14 27 12 33 -2 6 -9 -1 -16
-15z"/>
<path d="M1690 570 c0 -5 5 -10 11 -10 5 0 7 5 4 10 -3 6 -8 10 -11 10 -2 0
-4 -4 -4 -10z"/>
<path d="M2881 563 c7 -12 15 -20 18 -17 3 2 -3 12 -13 22 -17 16 -18 16 -5
-5z"/>
<path d="M2926 571 c-7 -11 9 -57 23 -65 6 -4 4 9 -4 27 -8 19 -11 37 -8 41 4
3 4 6 0 6 -3 0 -8 -4 -11 -9z"/>
<path d="M2996 567 c3 -10 9 -15 12 -12 3 3 0 11 -7 18 -10 9 -11 8 -5 -6z"/>
<path d="M3031 564 c0 -11 3 -14 6 -6 3 7 2 16 -1 19 -3 4 -6 -2 -5 -13z"/>
<path d="M1376 555 c4 -8 8 -15 10 -15 2 0 4 7 4 15 0 8 -4 15 -10 15 -5 0 -7
-7 -4 -15z"/>
<path d="M2367 557 c-11 -29 -9 -43 4 -30 6 6 9 19 7 29 -3 18 -4 18 -11 1z"/>
<path d="M2691 553 c0 -10 4 -36 8 -58 6 -35 8 -37 15 -17 5 14 3 28 -4 37 -6
8 -9 23 -5 35 4 11 2 20 -4 20 -6 0 -11 -8 -10 -17z"/>
<path d="M2406 522 c-4 -24 -6 -46 -2 -49 8 -8 18 42 14 68 -3 18 -6 13 -12
-19z"/>
<path d="M2766 545 c-3 -9 -6 -22 -5 -28 0 -7 5 -1 10 12 5 13 8 26 5 28 -2 2
-6 -3 -10 -12z"/>
<path d="M1633 533 c-27 -78 -69 -168 -94 -199 -16 -20 -29 -41 -29 -47 0 -6
-7 -19 -17 -29 -9 -10 -11 -18 -5 -18 23 0 71 53 101 111 34 66 39 84 16 53
-20 -27 -18 -14 6 43 25 56 40 103 33 103 -3 0 -7 -8 -11 -17z m-49 -165 c-4
-13 -10 -25 -14 -28 -4 -3 -15 -20 -24 -38 -10 -19 -20 -31 -23 -29 -4 5 57
116 65 117 2 0 0 -10 -4 -22z"/>
<path d="M2203 503 c-13 -24 -20 -43 -16 -43 4 0 -4 -12 -18 -27 l-24 -28 27
24 c15 13 31 34 34 45 4 12 11 24 16 27 6 4 8 15 6 25 -2 14 -9 9 -25 -23z"/>
<path d="M2621 524 c0 -11 3 -14 6 -6 3 7 2 16 -1 19 -3 4 -6 -2 -5 -13z"/>
<path d="M2855 530 c3 -5 8 -10 11 -10 2 0 4 5 4 10 0 6 -5 10 -11 10 -5 0 -7
-4 -4 -10z"/>
<path d="M1551 504 c0 -11 3 -14 6 -6 3 7 2 16 -1 19 -3 4 -6 -2 -5 -13z"/>
<path d="M2345 480 c0 -21 3 -36 7 -34 10 6 10 45 0 61 -4 6 -7 -5 -7 -27z"/>
<path d="M2843 499 c-1 -10 2 -19 8 -19 11 0 12 27 1 34 -4 2 -9 -4 -9 -15z"/>
<path d="M2435 499 c-4 -6 -5 -12 -2 -15 2 -3 7 2 10 11 7 17 1 20 -8 4z"/>
<path d="M2775 491 c-3 -5 -1 -12 5 -16 5 -3 10 1 10 9 0 18 -6 21 -15 7z"/>
<path d="M2956 475 c-3 -8 -1 -15 4 -15 6 0 10 7 10 15 0 8 -2 15 -4 15 -2 0
-6 -7 -10 -15z"/>
<path d="M2558 458 c-2 -13 2 -30 9 -37 7 -7 11 -16 8 -22 -4 -5 -2 -9 4 -9 5
0 13 5 16 10 3 6 1 10 -5 10 -7 0 -10 6 -7 13 3 7 -1 24 -8 36 l-12 24 -5 -25z"/>
<path d="M2806 463 c-6 -14 -5 -15 5 -6 7 7 10 15 7 18 -3 3 -9 -2 -12 -12z"/>
<path d="M3026 453 c9 -38 14 -42 14 -10 0 14 -5 29 -10 32 -7 4 -8 -3 -4 -22z"/>
<path d="M2220 455 c-7 -9 -8 -15 -2 -15 5 0 12 7 16 15 3 8 4 15 2 15 -2 0
-9 -7 -16 -15z"/>
<path d="M2757 463 c-4 -3 -7 -11 -7 -17 0 -6 5 -5 12 2 6 6 9 14 7 17 -3 3
-9 2 -12 -2z"/>
<path d="M3171 454 c0 -11 3 -14 6 -6 3 7 2 16 -1 19 -3 4 -6 -2 -5 -13z"/>
<path d="M1437 445 c-4 -8 -2 -17 3 -20 6 -4 10 3 10 14 0 25 -6 27 -13 6z"/>
<path d="M1663 448 c-12 -15 -43 -74 -43 -83 0 -3 5 -5 10 -5 6 0 9 3 8 8 -2
11 13 45 30 65 8 9 13 19 10 22 -3 3 -10 0 -15 -7z"/>
<path d="M2250 451 c0 -6 4 -13 10 -16 6 -3 7 1 4 9 -7 18 -14 21 -14 7z"/>
<path d="M2425 451 c-10 -18 -14 -51 -6 -51 5 0 11 12 14 28 6 30 3 39 -8 23z"/>
<path d="M2481 444 c0 -11 3 -14 6 -6 3 7 2 16 -1 19 -3 4 -6 -2 -5 -13z"/>
<path d="M2716 452 c-2 -4 -1 -14 5 -22 7 -12 9 -10 9 8 0 23 -5 28 -14 14z"/>
<path d="M2380 442 c0 -7 -5 -11 -11 -9 -6 1 -12 -11 -13 -27 -1 -15 -9 -34
-18 -40 -9 -7 -13 -17 -9 -24 4 -7 18 10 34 44 16 31 25 59 22 62 -3 3 -5 0
-5 -6z"/>
<path d="M3111 433 c-1 -12 4 -25 9 -28 12 -7 12 2 0 30 -8 19 -9 19 -9 -2z"/>
<path d="M2777 433 c-4 -3 -7 -16 -6 -27 0 -19 1 -19 10 3 10 24 8 36 -4 24z"/>
<path d="M1461 384 c-12 -26 -20 -48 -17 -51 2 -3 14 17 25 43 27 61 21 67 -8
8z"/>
<path d="M2209 428 c-5 -19 -8 -50 -4 -46 7 7 15 48 9 48 -2 0 -4 -1 -5 -2z"/>
<path d="M2298 410 c-12 -39 -10 -76 3 -63 6 6 9 28 7 49 -3 35 -4 36 -10 14z"/>
<path d="M2235 410 c-3 -5 -1 -10 4 -10 6 0 11 5 11 10 0 6 -2 10 -4 10 -3 0
-8 -4 -11 -10z"/>
<path d="M2481 404 c0 -11 3 -14 6 -6 3 7 2 16 -1 19 -3 4 -6 -2 -5 -13z"/>
<path d="M2540 400 c-6 -11 -7 -20 -2 -20 6 0 12 9 15 20 3 11 3 20 1 20 -2 0
-8 -9 -14 -20z"/>
<path d="M2706 407 c3 -10 9 -15 12 -12 3 3 0 11 -7 18 -10 9 -11 8 -5 -6z"/>
<path d="M1427 387 c-9 -11 -17 -25 -17 -30 0 -6 10 2 21 17 12 15 20 29 17
31 -2 2 -11 -6 -21 -18z"/>
<path d="M3167 403 c-3 -5 -1 -17 4 -28 7 -17 8 -17 8 8 1 27 -4 34 -12 20z"/>
<path d="M2387 393 c-4 -3 -7 -13 -7 -22 1 -13 3 -13 11 2 11 19 8 33 -4 20z"/>
<path d="M2682 375 c12 -14 23 -25 24 -25 7 0 -10 36 -20 42 -23 16 -25 7 -4
-17z"/>
<path d="M2091 374 c0 -11 3 -14 6 -6 3 7 2 16 -1 19 -3 4 -6 -2 -5 -13z"/>
<path d="M2409 383 c0 -5 -2 -16 -4 -25 -3 -19 10 -24 20 -8 3 6 2 10 -4 10
-6 0 -8 7 -5 15 4 8 3 15 0 15 -3 0 -6 -3 -7 -7z"/>
<path d="M2750 383 c0 -4 5 -15 10 -23 8 -13 10 -13 10 2 0 9 -4 20 -10 23 -5
3 -10 3 -10 -2z"/>
<path d="M2166 365 c-3 -8 -1 -15 4 -15 6 0 10 7 10 15 0 8 -2 15 -4 15 -2 0
-6 -7 -10 -15z"/>
<path d="M2485 354 c-9 -14 -15 -27 -13 -30 2 -2 12 10 22 26 21 37 15 40 -9
4z"/>
<path d="M2595 339 c0 -21 3 -39 8 -39 4 0 7 15 7 34 0 19 -3 37 -7 39 -5 3
-8 -12 -8 -34z"/>
<path d="M2800 360 c0 -11 4 -20 9 -20 5 0 7 9 4 20 -3 11 -7 20 -9 20 -2 0
-4 -9 -4 -20z"/>
<path d="M2991 373 c-1 -6 -4 -20 -7 -30 -5 -17 -5 -17 6 0 6 10 9 23 6 30 -3
9 -5 9 -5 0z"/>
<path d="M3053 351 c0 -11 5 -18 9 -15 4 3 5 11 1 19 -7 21 -12 19 -10 -4z"/>
<path d="M3110 356 c0 -8 4 -17 9 -20 5 -4 7 3 4 14 -6 23 -13 26 -13 6z"/>
<path d="M3130 361 c0 -6 4 -12 8 -15 5 -3 9 1 9 9 0 8 -4 15 -9 15 -4 0 -8
-4 -8 -9z"/>
<path d="M2225 340 c4 -6 11 -8 16 -5 14 9 11 15 -7 15 -8 0 -12 -5 -9 -10z"/>
<path d="M2640 341 c0 -6 4 -13 10 -16 6 -3 7 1 4 9 -7 18 -14 21 -14 7z"/>
<path d="M2937 343 c-4 -3 -7 -11 -7 -17 0 -6 5 -5 12 2 6 6 9 14 7 17 -3 3
-9 2 -12 -2z"/>
<path d="M2355 329 c-4 -6 -4 -13 -1 -16 3 -4 6 -1 6 6 0 7 5 9 10 6 6 -3 10
-1 10 4 0 14 -17 14 -25 0z"/>
<path d="M2686 315 c8 -35 10 -39 17 -28 3 5 -1 19 -9 33 l-14 25 6 -30z"/>
<path d="M2290 289 c0 -30 3 -40 10 -33 16 16 17 66 3 71 -9 3 -13 -8 -13 -38z"/>
<path d="M2516 315 c-9 -26 -7 -32 5 -12 6 10 9 21 6 23 -2 3 -7 -2 -11 -11z"/>
<path d="M2720 320 c0 -5 5 -10 11 -10 5 0 7 5 4 10 -3 6 -8 10 -11 10 -2 0
-4 -4 -4 -10z"/>
<path d="M1410 286 c-12 -20 -27 -36 -32 -36 -6 0 -9 -3 -5 -6 3 -3 -8 -19
-26 -35 -17 -16 -26 -29 -20 -29 21 0 122 125 110 136 -3 3 -15 -11 -27 -30z"/>
<path d="M2226 304 c-8 -21 -8 -34 2 -34 4 0 8 11 8 25 2 29 -1 32 -10 9z"/>
<path d="M2391 304 c0 -11 3 -14 6 -6 3 7 2 16 -1 19 -3 4 -6 -2 -5 -13z"/>
<path d="M2470 274 c-21 -49 -26 -70 -9 -41 17 29 40 87 34 87 -3 0 -15 -21
-25 -46z"/>
<path d="M2402 278 c-10 -30 -10 -31 3 -14 13 17 21 46 12 46 -1 0 -8 -15 -15
-32z"/>
<path d="M2650 289 c0 -11 4 -18 10 -14 5 3 7 12 3 20 -7 21 -13 19 -13 -6z"/>
<path d="M2970 300 c0 -5 5 -10 10 -10 6 0 10 5 10 10 0 6 -4 10 -10 10 -5 0
-10 -4 -10 -10z"/>
<path d="M2327 271 c-4 -17 -3 -21 5 -13 5 5 8 16 6 23 -3 8 -7 3 -11 -10z"/>
<path d="M2551 274 c0 -11 3 -14 6 -6 3 7 2 16 -1 19 -3 4 -6 -2 -5 -13z"/>
<path d="M2845 279 c-4 -6 -5 -12 -2 -15 2 -3 7 2 10 11 7 17 1 20 -8 4z"/>
<path d="M2073 237 c-22 -34 -40 -92 -25 -83 5 3 12 20 16 38 3 17 14 40 23
50 9 10 14 20 12 22 -2 3 -14 -10 -26 -27z"/>
<path d="M2711 254 c0 -11 3 -14 6 -6 3 7 2 16 -1 19 -3 4 -6 -2 -5 -13z"/>
<path d="M3124 256 c-3 -8 -4 -25 -2 -38 3 -17 5 -13 9 15 5 38 2 47 -7 23z"/>
<path d="M3179 242 c-3 -20 -2 -29 4 -23 5 5 7 19 5 32 -3 20 -5 19 -9 -9z"/>
<path d="M1540 245 c-19 -22 -8 -25 13 -3 9 10 13 18 8 18 -5 0 -14 -7 -21
-15z"/>
<path d="M2505 249 c-4 -6 -5 -12 -2 -15 2 -3 7 2 10 11 7 17 1 20 -8 4z"/>
<path d="M2595 242 c-8 -23 0 -24 18 -4 14 15 15 19 2 19 -8 0 -17 -7 -20 -15z"/>
<path d="M2674 235 c-1 -14 2 -22 7 -19 11 6 12 44 2 44 -5 0 -9 -11 -9 -25z"/>
<path d="M2950 235 c0 -8 4 -15 8 -15 5 0 9 7 9 15 0 8 -4 15 -9 15 -4 0 -8
-7 -8 -15z"/>
<path d="M2306 225 c-3 -9 -6 -22 -5 -28 0 -7 5 -1 10 12 5 13 8 26 5 28 -2 2
-6 -3 -10 -12z"/>
<path d="M2373 190 c-7 -27 -10 -58 -8 -69 2 -11 -2 -22 -9 -24 -15 -6 -27
-53 -19 -74 10 -26 23 0 18 35 -3 23 -2 30 3 19 6 -15 10 -8 19 30 10 43 17
133 10 133 -1 0 -8 -22 -14 -50z"/>
<path d="M2506 200 c-19 -47 -21 -73 -5 -50 8 11 9 8 4 -13 -4 -19 -2 -26 5
-22 6 4 10 23 10 43 -1 20 2 47 5 60 12 37 -2 25 -19 -18z"/>
<path d="M1411 212 c-8 -9 -24 -28 -35 -42 -11 -14 -2 -7 22 15 23 21 42 40
42 42 0 9 -17 0 -29 -15z"/>
<path d="M1447 200 c-16 -16 -27 -30 -24 -30 2 0 21 14 42 30 21 17 31 30 24
30 -8 0 -27 -13 -42 -30z"/>
<path d="M2743 213 c-3 -10 -8 -22 -11 -28 -3 -5 1 -4 8 2 13 12 23 43 14 43
-3 0 -7 -8 -11 -17z"/>
<path d="M2541 204 c0 -11 3 -14 6 -6 3 7 2 16 -1 19 -3 4 -6 -2 -5 -13z"/>
<path d="M2251 194 c0 -11 3 -14 6 -6 3 7 2 16 -1 19 -3 4 -6 -2 -5 -13z"/>
<path d="M2700 190 c-6 -11 -7 -20 -2 -20 6 0 12 9 15 20 3 11 3 20 1 20 -2 0
-8 -9 -14 -20z"/>
<path d="M3191 194 c0 -11 3 -14 6 -6 3 7 2 16 -1 19 -3 4 -6 -2 -5 -13z"/>
<path d="M2346 185 c-3 -9 -6 -22 -5 -28 0 -7 5 -1 10 12 5 13 8 26 5 28 -2 2
-6 -3 -10 -12z"/>
<path d="M2633 174 c0 -18 2 -22 8 -13 11 18 11 39 0 39 -5 0 -8 -12 -8 -26z"/>
<path d="M2855 179 c-4 -6 -5 -12 -2 -15 2 -3 7 2 10 11 7 17 1 20 -8 4z"/>
<path d="M1991 163 c-10 -11 -10 -17 -2 -24 6 -5 9 -6 6 -3 -3 4 0 13 7 21 15
19 6 24 -11 6z"/>
<path d="M2318 175 c-3 -6 -8 -28 -11 -50 l-7 -40 15 39 c14 37 16 73 3 51z"/>
<path d="M2738 158 c-10 -10 -14 -18 -9 -18 10 0 36 29 30 34 -2 1 -12 -6 -21
-16z"/>
<path d="M3120 164 c0 -8 5 -12 10 -9 6 3 10 10 10 16 0 5 -4 9 -10 9 -5 0
-10 -7 -10 -16z"/>
<path d="M2250 159 c0 -6 -6 -9 -12 -6 -8 3 -13 -4 -13 -19 l0 -24 17 23 c17
22 23 37 13 37 -3 0 -5 -5 -5 -11z"/>
<path d="M2436 155 c-9 -26 -7 -32 5 -12 6 10 9 21 6 23 -2 3 -7 -2 -11 -11z"/>
<path d="M1293 148 c-13 -6 -23 -15 -23 -20 0 -8 17 -1 50 22 20 13 1 12 -27
-2z"/>
<path d="M2677 141 c3 -11 -2 -34 -11 -52 -23 -45 -19 -61 4 -19 21 38 26 75
11 84 -5 4 -7 -3 -4 -13z"/>
<path d="M3081 144 c0 -11 3 -14 6 -6 3 7 2 16 -1 19 -3 4 -6 -2 -5 -13z"/>
<path d="M3176 145 c4 -8 8 -15 10 -15 2 0 4 7 4 15 0 8 -4 15 -10 15 -5 0 -7
-7 -4 -15z"/>
<path d="M2027 133 c-4 -3 -7 -13 -7 -22 1 -13 3 -13 11 2 11 19 8 33 -4 20z"/>
<path d="M2760 131 c0 -5 5 -13 10 -16 6 -3 10 -2 10 4 0 5 -4 13 -10 16 -5 3
-10 2 -10 -4z"/>
<path d="M3110 129 c0 -5 5 -7 10 -4 6 3 10 8 10 11 0 2 -4 4 -10 4 -5 0 -10
-5 -10 -11z"/>
<path d="M2282 110 c0 -14 2 -19 5 -12 2 6 2 18 0 25 -3 6 -5 1 -5 -13z"/>
<path d="M2926 113 c-6 -14 -5 -15 5 -6 7 7 10 15 7 18 -3 3 -9 -2 -12 -12z"/>
<path d="M2811 97 c-13 -21 -12 -21 5 -5 10 10 16 20 13 22 -3 3 -11 -5 -18
-17z"/>
<path d="M1240 100 c-9 -6 -10 -10 -3 -10 6 0 15 5 18 10 8 12 4 12 -15 0z"/>
<path d="M1971 94 c0 -11 3 -14 6 -6 3 7 2 16 -1 19 -3 4 -6 -2 -5 -13z"/>
<path d="M2246 95 c-3 -9 -6 -24 -5 -33 0 -9 5 -4 10 12 9 32 6 48 -5 21z"/>
<path d="M2386 59 c-19 -61 -18 -59 -8 -59 8 0 33 102 27 108 -2 2 -11 -20
-19 -49z"/>
<path d="M3113 88 c-4 -7 -6 -22 -5 -33 2 -17 1 -17 -7 -5 -6 8 -11 11 -11 5
1 -5 7 -19 15 -29 14 -19 15 -18 16 10 0 16 2 37 4 47 4 20 -1 22 -12 5z"/>
<path d="M1289 73 c-13 -16 -12 -17 4 -4 16 13 21 21 13 21 -2 0 -10 -8 -17
-17z"/>
<path d="M2010 69 c-6 -11 -10 -25 -8 -30 2 -5 8 4 15 21 13 34 9 40 -7 9z"/>
<path d="M2496 75 c-3 -9 -9 -14 -13 -12 -5 3 -8 -10 -8 -28 0 -40 4 -37 21
12 13 36 13 60 0 28z"/>
<path d="M2695 79 c-4 -6 -5 -12 -2 -15 2 -3 7 2 10 11 7 17 1 20 -8 4z"/>
<path d="M3046 73 c-6 -14 -5 -15 5 -6 7 7 10 15 7 18 -3 3 -9 -2 -12 -12z"/>
<path d="M2161 64 c0 -11 3 -14 6 -6 3 7 2 16 -1 19 -3 4 -6 -2 -5 -13z"/>
<path d="M2292 60 c0 -14 2 -19 5 -12 2 6 2 18 0 25 -3 6 -5 1 -5 -13z"/>
<path d="M2531 73 c0 -6 -4 -20 -7 -30 -5 -14 -4 -15 5 -7 7 7 11 20 8 30 -3
11 -5 14 -6 7z"/>
<path d="M2591 53 c-10 -26 -10 -27 4 -9 8 11 15 23 15 28 0 15 -7 8 -19 -19z"/>
<path d="M2755 70 c-3 -5 -1 -10 4 -10 6 0 11 5 11 10 0 6 -2 10 -4 10 -3 0
-8 -4 -11 -10z"/>
<path d="M3180 63 c0 -5 8 -17 17 -28 14 -18 15 -18 9 -2 -3 10 -6 23 -6 28 0
5 -4 9 -10 9 -5 0 -10 -3 -10 -7z"/>
<path d="M2730 50 c0 -5 5 -10 11 -10 5 0 7 5 4 10 -3 6 -8 10 -11 10 -2 0 -4
-4 -4 -10z"/>
<path d="M1971 34 c0 -11 3 -14 6 -6 3 7 2 16 -1 19 -3 4 -6 -2 -5 -13z"/>
<path d="M2550 39 c0 -5 5 -7 10 -4 6 3 10 8 10 11 0 2 -4 4 -10 4 -5 0 -10
-5 -10 -11z"/>
<path d="M2670 30 c-6 -11 -8 -20 -6 -20 3 0 10 9 16 20 6 11 8 20 6 20 -3 0
-10 -9 -16 -20z"/>
<path d="M2871 34 c0 -11 3 -14 6 -6 3 7 2 16 -1 19 -3 4 -6 -2 -5 -13z"/>
<path d="M2266 24 c-4 -9 -4 -19 -1 -22 2 -3 7 3 11 12 4 9 4 19 1 22 -2 3 -7
-3 -11 -12z"/>
<path d="M2195 19 c-4 -6 -5 -12 -2 -15 2 -3 7 2 10 11 7 17 1 20 -8 4z"/>
<path d="M2800 14 c0 -8 5 -12 10 -9 6 4 8 11 5 16 -9 14 -15 11 -15 -7z"/>
</g>
</svg>
