<?xml version="1.0" standalone="no"?>
<!DOCTYPE svg PUBLIC "-//W3C//DTD SVG 20010904//EN"
 "http://www.w3.org/TR/2001/REC-SVG-20010904/DTD/svg10.dtd">
<svg version="1.0" xmlns="http://www.w3.org/2000/svg"
 width="300.000000pt" height="300.000000pt" viewBox="0 0 300.000000 300.000000"
 preserveAspectRatio="xMidYMid meet">
<metadata>
Created by potrace 1.10, written by Peter Selinger 2001-2011
</metadata>
<g transform="translate(0.000000,300.000000) scale(0.100000,-0.100000)"
fill="#ffffff" stroke="none">
<path d="M1915 2908 c-49 -4 -110 -13 -135 -20 -25 -7 -48 -11 -52 -10 -5 1
-8 -2 -8 -8 0 -5 -7 -10 -15 -10 -8 0 -15 -4 -15 -8 0 -4 -28 -14 -62 -21 -63
-13 -151 -58 -220 -113 -54 -42 -153 -195 -163 -249 -10 -60 -15 -138 -6 -116
13 35 87 101 141 125 30 13 83 37 116 53 34 16 69 29 79 29 9 0 25 5 35 10 12
7 34 7 59 1 26 -5 43 -5 50 2 12 12 30 15 164 22 63 4 97 3 93 -3 -3 -6 -16
-8 -29 -5 -21 4 -22 4 -3 -11 11 -9 23 -16 28 -16 4 0 8 -5 8 -12 0 -6 -3 -9
-6 -5 -10 10 -53 -35 -47 -49 3 -8 0 -14 -6 -14 -20 0 -11 -17 16 -29 18 -8
23 -15 16 -22 -13 -13 -56 -2 -48 12 4 5 -4 9 -17 9 -18 0 -20 -2 -8 -10 8 -5
11 -12 7 -16 -3 -4 -13 -2 -20 5 -15 12 -47 5 -47 -11 0 -5 7 -8 16 -6 10 2
19 -4 21 -12 4 -12 3 -12 -5 -1 -5 7 -12 9 -15 5 -8 -14 11 -54 25 -54 10 0
10 2 0 9 -11 6 -10 10 4 15 10 4 15 4 11 0 -4 -4 1 -16 10 -27 18 -19 17 -20
-27 -14 -25 3 -56 9 -70 13 -22 7 -24 6 -11 -9 7 -9 21 -17 30 -18 9 0 11 -3
4 -5 -15 -6 -5 -34 11 -34 7 0 18 -11 24 -25 9 -19 19 -25 41 -25 39 0 32 -27
-7 -33 -28 -3 -27 -4 26 -24 16 -6 16 -6 -2 -11 -15 -3 -16 -6 -5 -13 11 -7
10 -9 -4 -9 -10 0 -16 -4 -13 -8 7 -12 -45 -13 -60 -2 -8 8 -14 8 -19 0 -3 -6
-11 -8 -16 -4 -5 3 -7 9 -4 14 3 5 1 11 -5 15 -5 3 -10 2 -10 -4 0 -8 -17 -13
-105 -26 -97 -15 -114 -25 -110 -61 1 -15 -2 -23 -9 -21 -6 2 -10 12 -10 21 2
18 2 18 -20 10 -21 -8 -20 -34 1 -34 15 0 15 -1 -1 -13 -17 -13 -16 -15 18
-31 38 -18 47 -36 19 -36 -10 0 -24 -4 -31 -9 -11 -6 -10 -11 3 -25 9 -9 12
-16 6 -16 -5 0 -16 6 -23 14 -8 7 -26 11 -43 9 -17 -2 -48 3 -70 13 l-40 17
29 8 c16 5 34 5 39 2 5 -3 27 -7 48 -8 33 -2 37 0 27 12 -6 8 -35 26 -62 41
-41 21 -65 26 -125 27 -50 0 -76 4 -79 13 -2 6 5 15 15 19 40 14 74 45 64 57
-19 22 6 35 45 23 25 -8 38 -7 46 1 8 8 7 13 -7 18 -16 6 -15 8 6 20 20 11 21
13 5 14 -15 0 -16 3 -6 15 7 9 11 17 8 20 -4 4 -42 -35 -43 -45 0 -2 -9 -6
-20 -8 -10 -1 -22 -7 -25 -13 -10 -15 -41 1 -38 20 2 8 13 20 25 26 16 8 19
15 12 27 -7 12 -4 20 8 28 15 9 14 10 -7 6 -78 -14 -100 -16 -100 -7 0 5 5 11
12 13 8 3 8 9 1 22 -8 15 -12 11 -26 -26 -25 -67 -37 -120 -37 -160 0 -33 2
-36 23 -30 20 5 21 4 8 -11 -7 -9 -19 -17 -27 -17 -12 0 -32 -72 -39 -148 -4
-34 5 -77 26 -127 5 -11 10 -38 12 -60 5 -65 77 -177 125 -196 13 -5 22 -17
22 -29 0 -37 33 -19 45 23 12 41 30 59 110 107 128 78 218 148 211 166 -6 15
27 37 39 26 4 -4 1 3 -6 16 -12 20 -12 25 3 36 10 7 14 16 10 20 -4 5 0 7 8 5
8 -2 26 3 39 10 13 7 37 17 52 21 27 8 31 5 54 -34 14 -24 23 -50 19 -59 -3
-8 0 -25 6 -37 10 -19 10 -21 -7 -16 -12 4 -20 1 -21 -6 -7 -106 -30 -160 -59
-137 -9 9 -13 9 -13 0 0 -6 -5 -11 -11 -11 -5 0 -7 5 -4 10 3 6 -4 10 -18 10
-21 0 -23 -4 -23 -42 1 -36 5 -43 23 -46 11 -2 23 -12 26 -23 5 -19 4 -20 -19
-4 -23 15 -25 14 -31 -2 -10 -26 -33 -41 -55 -35 -13 3 -17 0 -12 -11 5 -13 0
-15 -21 -11 -16 3 -45 -4 -71 -16 -24 -12 -48 -19 -53 -16 -13 8 -151 -16
-151 -26 0 -4 -7 -8 -15 -8 -8 0 -15 -4 -15 -10 0 -5 5 -10 10 -10 6 0 10 -3
10 -8 0 -10 -79 -34 -90 -27 -4 3 -11 22 -15 43 -7 41 -28 68 -109 139 -26 23
-45 47 -41 52 4 7 -4 11 -19 11 -26 0 -43 -15 -27 -24 5 -3 7 -15 4 -27 -4
-15 0 -22 16 -26 11 -3 19 -9 16 -13 -3 -5 3 -11 14 -15 10 -3 21 -15 24 -25
4 -16 0 -20 -18 -20 -13 0 -26 -4 -30 -9 -7 -13 34 -51 56 -51 18 0 33 -26 23
-41 -9 -15 -44 -10 -74 11 -15 11 -39 20 -52 20 -12 -1 -44 1 -70 2 -53 4 -61
-6 -45 -54 11 -33 41 -54 104 -69 26 -7 54 -16 61 -22 16 -13 15 -57 -3 -101
-15 -35 -14 -39 5 -66 12 -17 25 -30 30 -30 6 0 5 -10 -1 -23 -16 -35 4 -74
46 -91 40 -17 40 -17 21 -54 -21 -43 -27 -95 -15 -133 25 -74 68 -97 202 -106
85 -5 133 0 293 32 19 4 22 -1 27 -58 3 -34 8 -71 13 -81 5 -14 4 -17 -4 -12
-7 4 -12 16 -12 27 0 10 -4 19 -9 19 -5 0 -12 8 -15 17 -3 10 -3 -4 -1 -32 3
-27 10 -54 15 -59 15 -15 12 -26 -6 -26 -8 0 -12 -5 -9 -10 4 -6 10 -8 15 -5
4 3 15 -6 24 -20 18 -28 21 -49 5 -40 -5 4 -35 8 -65 8 -46 2 -59 6 -75 27
-12 14 -17 19 -13 11 5 -11 1 -13 -22 -8 -34 6 -92 -15 -100 -38 -5 -13 -23
-15 -110 -12 -74 3 -107 0 -114 -8 -6 -7 -30 -15 -55 -18 -85 -12 -163 -71
-228 -173 -14 -22 -36 -50 -51 -63 -14 -14 -26 -34 -26 -46 0 -12 -7 -30 -15
-41 -8 -10 -15 -22 -15 -26 0 -5 486 -8 1080 -8 l1080 0 0 1439 0 1439 -27 17
c-42 28 -114 15 -178 -34 -35 -27 -60 -39 -75 -36 -16 3 -24 -1 -27 -15 -7
-26 -38 -25 -64 1 -12 12 -31 22 -44 24 -13 1 -31 9 -40 18 -8 9 -30 18 -48
21 -18 2 -93 14 -168 26 -137 21 -222 23 -414 8z m-38 -83 c-65 -33 -114 -52
-124 -48 -11 4 -14 3 -9 -6 4 -6 4 -11 -1 -10 -19 5 -62 -14 -56 -24 3 -6 1
-7 -5 -3 -6 4 -21 2 -33 -5 -15 -8 -19 -8 -15 0 4 6 1 11 -6 11 -22 0 61 40
187 91 165 67 201 63 62 -6z m138 35 c-3 -5 -12 -10 -18 -10 -7 0 -6 4 3 10
19 12 23 12 15 0z m145 -2 c-30 -13 -182 -85 -225 -106 -28 -14 -29 -14 -16 2
12 14 11 16 -7 14 -11 -2 -21 2 -21 7 -1 6 2 10 7 10 4 1 25 10 47 22 58 30
158 57 225 61 8 0 4 -4 -10 -10z m-195 -18 c-3 -5 -11 -10 -16 -10 -6 0 -7 5
-4 10 3 6 11 10 16 10 6 0 7 -4 4 -10z m-35 -15 c0 -2 -15 -12 -32 -20 l-33
-16 25 20 c24 20 40 26 40 16z m675 -5 c3 -5 4 -10 1 -10 -3 0 -8 5 -11 10 -3
6 -4 10 -1 10 3 0 8 -4 11 -10z m-905 -4 c0 -2 -7 -7 -16 -10 -8 -3 -12 -2 -9
4 6 10 25 14 25 6z m-41 -20 c-2 -2 -15 -9 -29 -15 -24 -11 -24 -11 -6 3 16
13 49 24 35 12z m535 -60 c-10 -8 -30 -24 -44 -36 -14 -12 -38 -28 -55 -36
l-30 -15 30 23 c16 13 48 37 70 54 22 17 42 29 44 27 3 -2 -4 -10 -15 -17z
m-42 -1 c-23 -17 -86 -45 -99 -45 -11 1 99 59 112 59 5 1 0 -6 -13 -14z m403
-16 c-4 -5 -12 -9 -20 -9 -7 0 -24 -9 -37 -20 -12 -11 -32 -27 -43 -36 -20
-15 -20 -15 2 -5 39 19 37 12 -5 -19 -23 -16 -46 -30 -52 -30 -14 0 -12 -18 3
-23 6 -2 -1 -2 -16 0 -31 5 -101 -27 -132 -60 -23 -25 -99 -67 -122 -67 -26 0
-2 22 51 45 28 13 97 57 153 99 56 42 106 76 111 76 6 0 12 4 14 8 5 14 82 60
91 55 4 -2 5 -9 2 -14z m-200 -14 c-29 -23 -45 -31 -45 -20 0 6 62 45 70 45 3
0 -8 -11 -25 -25z m-170 -15 c-10 -11 -22 -20 -28 -20 -5 0 1 9 14 20 31 25
37 25 14 0z m-335 -4 c0 -3 -4 -8 -10 -11 -5 -3 -10 -1 -10 4 0 6 5 11 10 11
6 0 10 -2 10 -4z m680 0 c0 -2 -8 -10 -17 -17 -16 -13 -17 -12 -4 4 13 16 21
21 21 13z m51 -42 c-29 -26 -50 -49 -47 -52 3 -2 -6 -19 -19 -36 -32 -42 -127
-98 -172 -102 l-36 -3 53 31 c34 19 49 33 41 37 -8 5 4 14 31 24 24 10 61 34
83 55 50 47 105 92 112 92 3 0 -18 -21 -46 -46z m-459 1 c-11 -9 -27 -21 -34
-29 -17 -16 -86 -28 -93 -15 -4 5 5 9 18 9 14 0 30 7 37 15 7 8 20 15 29 15 9
0 25 7 35 15 11 8 22 12 25 10 2 -3 -5 -12 -17 -20z m168 21 c0 -3 -5 -8 -12
-12 -7 -4 -8 -3 -4 4 7 12 16 16 16 8z m-293 -93 c-4 -3 -10 -3 -14 0 -3 4 0
7 7 7 7 0 10 -3 7 -7z m338 -33 c-3 -5 -16 -15 -28 -21 l-22 -12 20 21 c21 22
41 30 30 12z m300 -10 c-3 -5 -12 -10 -19 -10 -8 0 -19 -7 -26 -15 -7 -9 -19
-14 -27 -11 -7 3 -13 1 -13 -5 0 -6 -5 -7 -10 -4 -15 9 -1 27 16 21 8 -3 14
-1 14 4 0 5 15 14 33 19 17 5 33 10 35 10 2 1 0 -3 -3 -9z m-115 -45 c0 -2
-15 -12 -32 -20 l-33 -16 24 21 c22 19 41 26 41 15z m103 -26 c-23 -23 -97
-60 -125 -62 -10 -1 -18 -5 -18 -9 0 -4 -13 -8 -30 -8 -18 0 -29 -5 -27 -12 4
-22 -30 -20 -36 2 -4 16 -2 20 9 16 8 -3 14 -1 14 4 0 5 19 15 43 21 23 7 48
17 55 22 7 5 15 7 18 4 3 -3 24 3 47 13 49 22 66 25 50 9z m-563 -29 c-19 -13
-30 -13 -30 0 0 6 10 10 23 10 18 0 19 -2 7 -10z m310 -61 c10 0 8 -3 -5 -9
-29 -12 -37 -12 -29 2 5 8 2 9 -9 5 -10 -4 -17 -2 -17 4 0 7 9 9 23 5 12 -3
29 -6 37 -7z m129 -13 c-11 -11 -168 -64 -209 -70 -61 -9 -46 1 36 25 38 11
89 26 114 33 51 15 65 18 59 12z m-122 -13 c-4 -3 -10 -3 -14 0 -3 4 0 7 7 7
7 0 10 -3 7 -7z m-140 -50 c-4 -3 -10 -3 -14 0 -3 4 0 7 7 7 7 0 10 -3 7 -7z
m-76 -44 c-47 -16 -87 -27 -89 -24 -5 5 0 7 83 34 95 30 99 23 6 -10z m-174
-45 c-3 -3 -12 -4 -19 -1 -8 3 -5 6 6 6 11 1 17 -2 13 -5z m263 -46 c0 -6 -7
-5 -15 2 -8 7 -15 17 -15 22 0 6 7 5 15 -2 8 -7 15 -17 15 -22z m-1006 -33
c-4 -8 -11 -15 -16 -15 -6 0 -5 6 2 15 7 8 14 15 16 15 2 0 1 -7 -2 -15z m473
-22 c-4 -3 -10 -3 -14 0 -3 4 0 7 7 7 7 0 10 -3 7 -7z m233 -49 c0 -11 -22 -1
-47 21 l-28 26 38 -22 c20 -11 37 -23 37 -25z m114 38 c3 -5 -1 -9 -9 -9 -8 0
-12 4 -9 9 3 4 7 8 9 8 2 0 6 -4 9 -8z m-427 -22 c4 -13 3 -13 -6 0 -8 11 -11
11 -11 2 0 -9 -5 -10 -19 -3 -10 6 -22 7 -26 3 -5 -4 -5 -2 -1 5 9 16 59 11
63 -7z m484 -17 c13 -16 12 -17 -3 -4 -10 7 -18 15 -18 17 0 8 8 3 21 -13z
m-20 -10 c13 -15 12 -15 -8 -4 -24 12 -29 21 -14 21 5 0 15 -7 22 -17z m-534
-20 c-4 -3 -10 -3 -14 0 -3 4 0 7 7 7 7 0 10 -3 7 -7z m658 -51 c-3 -3 -11 0
-18 7 -9 10 -8 11 6 5 10 -3 15 -9 12 -12z m-460 -2 c3 -5 1 -10 -4 -10 -6 0
-11 5 -11 10 0 6 2 10 4 10 3 0 8 -4 11 -10z m-138 -17 c-4 -3 -10 -3 -14 0
-3 4 0 7 7 7 7 0 10 -3 7 -7z m638 -63 c3 -5 4 -10 1 -10 -3 0 -8 5 -11 10 -3
6 -4 10 -1 10 3 0 8 -4 11 -10z m75 -100 c12 -16 19 -30 16 -30 -2 0 -14 14
-26 30 -12 17 -19 30 -16 30 2 0 14 -13 26 -30z m265 20 c3 -5 4 -10 1 -10 -3
0 -8 5 -11 10 -3 6 -4 10 -1 10 3 0 8 -4 11 -10z m-200 -106 c15 -19 25 -37
22 -40 -2 -2 -16 14 -31 36 -33 50 -28 52 9 4z m242 9 c-4 -3 -7 0 -7 7 0 7 3
10 7 7 3 -4 3 -10 0 -14z m-263 -315 c-3 -9 0 -19 5 -23 7 -3 8 0 5 9 -13 34
7 13 36 -36 32 -57 41 -90 12 -47 -9 14 -22 24 -28 22 -6 -2 -23 22 -38 53
-15 31 -39 73 -53 93 -25 34 -24 34 20 -9 30 -29 45 -51 41 -62z m196 -7 c0
-25 -18 1 -25 34 l-6 30 15 -25 c8 -14 15 -32 16 -39z m-45 -1 c3 -5 4 -10 1
-10 -3 0 -8 5 -11 10 -3 6 -4 10 -1 10 3 0 8 -4 11 -10z m38 -98 c28 -73 52
-170 45 -178 -3 -2 -11 22 -18 53 -13 57 -21 81 -54 155 -18 41 -20 52 -7 44
5 -4 21 -36 34 -74z m37 17 c11 -30 20 -63 19 -74 0 -20 -29 52 -43 110 -11
44 2 25 24 -36z m-1303 -84 c24 -26 45 -74 38 -86 -4 -5 1 -9 9 -9 9 0 16 -7
16 -16 0 -13 -7 -15 -31 -10 -17 3 -39 1 -50 -4 -14 -8 -27 -6 -49 5 -29 15
-30 15 -30 -5 0 -11 -5 -20 -10 -20 -20 0 -80 29 -80 39 0 5 21 29 47 53 25
24 60 57 77 74 26 26 32 28 38 15 3 -9 14 -25 25 -36z m903 38 c8 2 21 6 28
10 8 6 15 0 21 -15 12 -32 0 -41 -40 -31 -26 7 -35 15 -37 34 -2 15 0 19 5 12
5 -7 15 -11 23 -10z m437 -80 c-4 -3 -7 0 -7 7 0 7 3 10 7 7 3 -4 3 -10 0 -14z
m-10 -130 c-4 -3 -7 0 -7 7 0 7 3 10 7 7 3 -4 3 -10 0 -14z m-1217 -23 c0 -27
-19 -35 -38 -17 -12 13 -13 19 -3 31 16 19 41 10 41 -14z m330 -553 c0 -5 -4
-5 -10 -2 -5 3 -10 14 -10 23 0 15 2 15 10 2 5 -8 10 -19 10 -23z"/>
<path d="M2434 2508 l-19 -23 23 19 c21 18 27 26 19 26 -2 0 -12 -10 -23 -22z"/>
<path d="M2360 2470 c-9 -6 -10 -10 -3 -10 6 0 15 5 18 10 8 12 4 12 -15 0z"/>
<path d="M2400 1351 c0 -5 5 -13 10 -16 6 -3 10 -2 10 4 0 5 -4 13 -10 16 -5
3 -10 2 -10 -4z"/>
<path d="M1880 2580 c0 -5 5 -10 10 -10 6 0 10 5 10 10 0 6 -4 10 -10 10 -5 0
-10 -4 -10 -10z"/>
<path d="M1833 2513 c4 -3 10 -3 14 0 3 4 0 7 -7 7 -7 0 -10 -3 -7 -7z"/>
<path d="M1833 2453 c4 -3 10 -3 14 0 3 4 0 7 -7 7 -7 0 -10 -3 -7 -7z"/>
<path d="M1713 2353 c4 -3 10 -3 14 0 3 4 0 7 -7 7 -7 0 -10 -3 -7 -7z"/>
<path d="M1674 2268 c-4 -7 -3 -8 4 -4 12 7 16 16 8 16 -3 0 -8 -5 -12 -12z"/>
<path d="M1700 2270 c0 -5 9 -14 20 -20 14 -7 20 -7 20 0 0 5 -7 10 -16 10 -8
0 -12 5 -9 10 3 6 1 10 -4 10 -6 0 -11 -4 -11 -10z"/>
<path d="M1320 2266 c0 -2 7 -7 16 -10 8 -3 12 -2 9 4 -6 10 -25 14 -25 6z"/>
<path d="M1333 2143 c4 -3 10 -3 14 0 3 4 0 7 -7 7 -7 0 -10 -3 -7 -7z"/>
<path d="M1583 2143 c4 -3 10 -3 14 0 3 4 0 7 -7 7 -7 0 -10 -3 -7 -7z"/>
<path d="M1663 2143 c4 -3 10 -3 14 0 3 4 0 7 -7 7 -7 0 -10 -3 -7 -7z"/>
<path d="M1605 2130 c-16 -7 -17 -9 -3 -9 9 -1 20 4 23 9 7 11 7 11 -20 0z"/>
<path d="M1540 520 c0 -7 3 -10 7 -7 3 4 3 10 0 14 -4 3 -7 0 -7 -7z"/>
</g>
</svg>
